{
.appVersion = "973";
DisplayStrings = (
"\U00CEnjurand pi/tcommaaccent ig/abreve iat, zoofobul colmand/abreve  vexat whisky /scommaaccent i tebquila.",
OQ/_part.qtail/_part.qtail.titl/Q.titl
);
classes = (
{
automatic = 1;
code = "A Aacute Abreve Abreveacute Abrevedotbelow Abrevegrave Abrevehookabove Abrevetilde Acaron Acircumflex Acircumflexacute Acircumflexdotbelow Acircumflexgrave Acircumflexhookabove Acircumflextilde Adieresis Adieresis.titl Adotbelow Agrave Ahookabove Amacron Aogonek Aring Aring.titl Atilde AE B C Cacute Cacute.loclPLK Ccaron Ccedilla Cdotaccent D Eth Dcaron Dcroat E Eacute Ecaron Ecircumflex Ecircumflexacute Ecircumflexdotbelow Ecircumflexgrave Ecircumflexhookabove Ecircumflextilde Edieresis Edotaccent Edotbelow Egrave Ehookabove Emacron Eogonek Etilde F G Gbreve Gcommaaccent Gdotaccent H Hbar I Iacute Icaron Icircumflex Idieresis Idotaccent Idotbelow Igrave Ihookabove Imacron Iogonek Itilde J K Kcommaaccent L Lacute Lcaron Lcommaaccent Lslash M N Nacute Nacute.loclPLK Ncaron Ncommaaccent Eng Ntilde O Oacute Oacute.loclPLK Ocaron Ocircumflex Ocircumflexacute Ocircumflexdotbelow Ocircumflexgrave Ocircumflexhookabove Ocircumflextilde Odieresis Odieresis.titl Odotbelow Ograve Ohookabove Ohorn Ohornacute Ohorndotbelow Ohorngrave Ohornhookabove Ohorntilde Ohungarumlaut Omacron Oslash Otilde OE P Thorn Q Q.titl R Racute Rcaron Rcommaaccent S Sacute Sacute.loclPLK Scaron Scedilla Scommaaccent Germandbls T Tbar Tcaron Tcedilla Tcommaaccent U Uacute Ucaron Ucircumflex Udieresis Udieresis.titl Udieresisacute Udieresiscaron Udieresisgrave Udieresismacron Udotbelow Ugrave Uhookabove Uhorn Uhornacute Uhorndotbelow Uhorngrave Uhornhookabove Uhorntilde Uhungarumlaut Umacron Uogonek Uring Utilde V W Wacute Wcircumflex Wdieresis Wgrave X Y Yacute Ycircumflex Ydieresis Ydotbelow Ygrave Yhookabove Ytilde Z Zacute Zacute.loclPLK Zcaron Zdotaccent";
name = Uppercase;
}
);
copyright = "Copyright © 2015 by Daniel Gamage. ";
customParameters = (
{
name = note;

glyphs = (
{
glyphname = A;
lastChange = "2017-02-11 08:31:07 +0000";
layers = (
{
anchors = (
{
name = bottom;
position = "{259, 0}";
},
{
name = ogonek;
position = "{482, 0}";
},
{
name = top;
position = "{256, 750}";
}
);
components = (
{
name = V;
transform = "{-1, 0, 0, -1, 537, 750}";
}
);
layerId = "B5727F16-0A35-4648-A4D9-FB286E4462AB";
paths = (
{
closed = 1;
nodes = (
"130 190 LINE",
"343 190 LINE",
"343 210 LINE",
"130 210 LINE"
);
}
);
width = 552;
}
);
unicode = 0041;
},
{
glyphname = AE;
lastChange = "2017-02-09 05:12:31 +0000";
layers = (
{
anchors = (
{
name = bottom;
position = "{300, 0}";
},
{
name = top;
position = "{300, 750}";
}
);
associatedMasterId = "B5727F16-0A35-4648-A4D9-FB286E4462AB";
components = (
{
name = A;
},
{
name = _serifVertical;
transform = "{1, 0, 0, 1, 590, 730}";
},
{
name = _serifVertical;
transform = "{1, 0, 0, 1, 490, 370}";
},
{
name = _serifVertical;
transform = "{1, 0, 0, -1, 490, 390}";
},
{
name = _serifVertical;
transform = "{1, 0, 0, -1, 650, 20}";
}
);
layerId = "0A936562-B0A9-4D25-AAA4-FA16893CB985";
name = "SemiCondensed Dec 26 15, 23:22";
paths = (
{
closed = 1;
nodes = (
"462 0 LINE",
"650 0 LINE",
"650 20 LINE",
"462 20 LINE"
);
},
{
closed = 1;
nodes = (
"242 730 LINE",
"590 730 LINE",
"590 750 LINE",
"242 750 LINE"
);
},
{
closed = 1;
nodes = (
"334 370 LINE",
"490 370 LINE",
"490 390 LINE",
"334 390 LINE"
);
}
);
width = 680;
},
{
anchors = (
{
name = bottom;
position = "{534, 0}";
},
{
name = ogonek;
position = "{595, 0}";
},
{
name = top;
position = "{534, 750}";
}
);
associatedMasterId = "B5727F16-0A35-4648-A4D9-FB286E4462AB";
components = (
{
name = _corner.serif;
transform = "{-1, 0, 0, -1, 91, 0}";
},
{
name = _corner.serif;
transform = "{1, 0, 0, -1, 80, 0}";
},
{
name = _serifVertical;
transform = "{1, 0, 0, 1, 710, 730}";
},
{
name = _serifVertical;
transform = "{1, 0, 0, 1, 610, 370}";
},
{
name = _corner.serif;
transform = "{-1, 0, 0, -1, 471, 0}";
},
{
name = _serifVertical;
transform = "{1, 0, 0, -1, 610, 390}";
},
{
name = _serifVertical;
transform = "{1, 0, 0, -1, 700, 20}";
},
{
name = _corner.serif;
transform = "{1, 0, 0, -1, 371, 0}";
}
);
layerId = "E823678A-7593-40FF-B35B-64083B446769";
name = "SemiCondensed Dec 28 15, 14:52";
paths = (
{
closed = 1;
nodes = (
"422 0 LINE",
"700 0 LINE",
"700 20 LINE",
"422 20 LINE"
);
},
{
closed = 1;
nodes = (
"371 0 LINE",
"471 0 LINE",
"471 750 LINE",
"371 750 LINE"
);
},
{
closed = 1;
nodes = (
"432 730 LINE",
"710 730 LINE",
"710 750 LINE",
"432 750 LINE"
);
},
{
closed = 1;
nodes = (
"414 370 LINE",
"610 370 LINE",
"610 390 LINE",
"414 390 LINE"
);
},
{
closed = 1;
nodes = (
"154 190 LINE",
"387 190 LINE",
"387 210 LINE",
"154 210 LINE"
);
},
{
closed = 1;
nodes = (
"387 750 LINE",
"366 750 LINE",
"70 0 LINE",
"91 0 LINE"
);
}
);
width = 740;
},
{
anchors = (
{
name = bottom;
position = "{300, 0}";
},
{
name = top;
position = "{300, 750}";
}
);
associatedMasterId = "B5727F16-0A35-4648-A4D9-FB286E4462AB";
components = (
{
name = A;
},
{
name = _serifVertical;
transform = "{1, 0, 0, 1, 590, 730}";
},
{
name = _serifVertical;
transform = "{1, 0, 0, 1, 490, 370}";
},
{
name = _serifVertical;
transform = "{1, 0, 0, -1, 490, 390}";
},
{
name = _serifVertical;
transform = "{1, 0, 0, -1, 650, 20}";
}
);
layerId = "2B97CB99-8BF7-4D53-91EB-9A022C9C0F7B";
name = "SemiCondensed Dec 26 15, 23:22";
paths = (
{
closed = 1;
nodes = (
"462 0 LINE",
"650 0 LINE",
"650 20 LINE",
"462 20 LINE"
);
},
{
closed = 1;
nodes = (
"242 730 LINE",
"590 730 LINE",
"590 750 LINE",
"242 750 LINE"
);
},
{
closed = 1;
nodes = (
"334 370 LINE",
"490 370 LINE",
"490 390 LINE",
"334 390 LINE"
);
}
);
width = 680;
},
{
anchors = (
{
name = bottom;
position = "{534, 0}";
},
{
name = ogonek;
position = "{595, 0}";
},
{
name = top;
position = "{534, 750}";
}
);
associatedMasterId = "B5727F16-0A35-4648-A4D9-FB286E4462AB";
components = (
{
name = _corner.serif;
transform = "{-1, 0, 0, -1, 91, 0}";
},
{
name = _corner.serif;
transform = "{1, 0, 0, -1, 80, 0}";
},
{
name = _serifVertical;
transform = "{1, 0, 0, 1, 710, 730}";
},
{
name = _serifVertical;
transform = "{1, 0, 0, 1, 610, 370}";
},
{
name = _corner.serif;
transform = "{-1, 0, 0, -1, 471, 0}";
},
{
name = _serifVertical;
transform = "{1, 0, 0, -1, 610, 390}";
},
{
name = _serifVertical;
transform = "{1, 0, 0, -1, 700, 20}";
},
{
name = _corner.serif;
transform = "{1, 0, 0, -1, 371, 0}";
}
);
layerId = "9CC163BC-DC79-4EFF-9EAC-8A830A91643A";
name = "SemiCondensed Dec 28 15, 14:52";
paths = (
{
closed = 1;
nodes = (
"422 0 LINE",
"700 0 LINE",
"700 20 LINE",
"422 20 LINE"
);
},
{
closed = 1;
nodes = (
"371 0 LINE",
"471 0 LINE",
"471 750 LINE",
"371 750 LINE"
);
},
{
closed = 1;
nodes = (
"432 730 LINE",
"710 730 LINE",
"710 750 LINE",
"432 750 LINE"
);
},
{
closed = 1;
nodes = (
"414 370 LINE",
"610 370 LINE",
"610 390 LINE",
"414 390 LINE"
);
},
{
closed = 1;
nodes = (
"154 190 LINE",
"387 190 LINE",
"387 210 LINE",
"154 210 LINE"
);
},
{
closed = 1;
nodes = (
"387 750 LINE",
"366 750 LINE",
"70 0 LINE",
"91 0 LINE"
);
}
);
width = 740;
},
{
anchors = (
{
name = bottom;
position = "{475, 0}";
},
{
name = ogonek;
position = "{576, 0}";
},
{
name = top;
position = "{452, 750}";
},
{
name = topleft;
position = "{232, 750}";
}
);
hints = (
{
origin = "{1, 2}";
scale = "{-1, 1}";
type = Corner;
name = _corner.serif;
},
{
origin = "{1, 3}";
type = Corner;
name = _corner.serif;
options = 1;
},
{
origin = "{2, 2}";
type = Corner;
name = _corner.serifVerticalBottom;
},
{
origin = "{4, 1}";
scale = "{-1, 1}";
type = Corner;
name = _corner.serifVertical;
options = 1;
},
{
origin = "{4, 2}";
type = Corner;
name = _corner.serifVertical;
options = 1;
},
{
origin = "{3, 1}";
scale = "{-1, 1}";
type = Corner;
name = _corner.serifVertical;
options = 1;
},
{
origin = "{5, 3}";
type = Corner;
name = _corner.serif;
},
{
origin = "{5, 0}";
scale = "{-1, 1}";
type = Corner;
name = _corner.serif;
options = 1;
}
);
layerId = "B5727F16-0A35-4648-A4D9-FB286E4462AB";
paths = (
{
closed = 1;
nodes = (
"137 190 LINE",
"350 190 LINE",
"350 210 LINE",
"137 210 LINE"
);
},
{
closed = 1;
nodes = (
"350 750 LINE",
"329 750 LINE",
"53 0 LINE",
"74 0 LINE"
);
},
{
closed = 1;
nodes = (
"363 0 LINE",
"641 0 LINE",
"641 20 LINE",
"363 20 LINE"
);
},
{
closed = 1;
nodes = (
"383 730 LINE",
"631 730 LINE",
"631 750 LINE",
"383 750 LINE"
);
},
{
closed = 1;
nodes = (
"365 370 LINE",
"541 370 LINE",
"541 390 LINE",
"365 390 LINE"
);
},
{
closed = 1;
nodes = (
"322 0 LINE",
"422 0 LINE",
"422 750 LINE",
"322 750 LINE"
);
}
);
width = 671;
},
{
anchors = (
{
name = bottom;
position = "{300, 0}";
},
{
name = top;
position = "{300, 750}";
}
);
associatedMasterId = "B5727F16-0A35-4648-A4D9-FB286E4462AB";
components = (
{
name = A;
},
{
name = _serifVertical;
transform = "{1, 0, 0, 1, 590, 730}";
},
{
name = _serifVertical;
transform = "{1, 0, 0, 1, 490, 370}";
},
{
name = _serifVertical;
transform = "{1, 0, 0, -1, 490, 390}";
},
{
name = _serifVertical;
transform = "{1, 0, 0, -1, 650, 20}";
}
);
layerId = "56DE7972-714C-41E2-8B6A-C55E11C2D642";
name = "SemiCondensed Dec 26 15, 23:22";
paths = (
{
closed = 1;
nodes = (
"462 0 LINE",
"650 0 LINE",
"650 20 LINE",
"462 20 LINE"
);
},
{
closed = 1;
nodes = (
"242 730 LINE",
"590 730 LINE",
"590 750 LINE",
"242 750 LINE"
);
},
{
closed = 1;
nodes = (
"334 370 LINE",
"490 370 LINE",
"490 390 LINE",
"334 390 LINE"
);
}
);
width = 680;
},
{
anchors = (
{
name = bottom;
position = "{534, 0}";
},
{
name = ogonek;
position = "{595, 0}";
},
{
name = top;
position = "{534, 750}";
}
);
associatedMasterId = "B5727F16-0A35-4648-A4D9-FB286E4462AB";
components = (
{
name = _corner.serif;
transform = "{-1, 0, 0, -1, 91, 0}";
},
{
name = _corner.serif;
transform = "{1, 0, 0, -1, 80, 0}";
},
{
name = _serifVertical;
transform = "{1, 0, 0, 1, 710, 730}";
},
{
name = _serifVertical;
transform = "{1, 0, 0, 1, 610, 370}";
},
{
name = _corner.serif;
transform = "{-1, 0, 0, -1, 471, 0}";
},
{
name = _serifVertical;
transform = "{1, 0, 0, -1, 610, 390}";
},
{
name = _serifVertical;
transform = "{1, 0, 0, -1, 700, 20}";
},
{
name = _corner.serif;
transform = "{1, 0, 0, -1, 371, 0}";
}
);
layerId = "CD48F219-94EA-46F4-A81C-09CB8641581F";
name = "SemiCondensed Dec 28 15, 14:52";
paths = (
{
closed = 1;
nodes = (
"422 0 LINE",
"700 0 LINE",
"700 20 LINE",
"422 20 LINE"
);
},
{
closed = 1;
nodes = (
"371 0 LINE",
"471 0 LINE",
"471 750 LINE",
"371 750 LINE"
);
},
{
closed = 1;
nodes = (
"432 730 LINE",
"710 730 LINE",
"710 750 LINE",
"432 750 LINE"
);
},
{
closed = 1;
nodes = (
"414 370 LINE",
"610 370 LINE",
"610 390 LINE",
"414 390 LINE"
);
},
{
closed = 1;
nodes = (
"154 190 LINE",
"387 190 LINE",
"387 210 LINE",
"154 210 LINE"
);
},
{
closed = 1;
nodes = (
"387 750 LINE",
"366 750 LINE",
"70 0 LINE",
"91 0 LINE"
);
}
);
width = 740;
}
);
leftMetricsKey = "=A-20";
rightMetricsKey = E;
unicode = 00C6;
},
{
glyphname = B;
lastChange = "2017-02-09 03:08:08 +0000";
layers = (
{
anchors = (
{
name = bottom;
position = "{243, 0}";
},
{
name = bottomright;
position = "{280, 0}";
},
{
name = top;
position = "{243, 750}";
}
);
hints = (
{
origin = "{2, 2}";
scale = "{-1, 1}";
type = Corner;
name = _corner.serif;
options = 1;
},
{
origin = "{2, 1}";
type = Corner;
name = _corner.serif;
}
);
layerId = "B5727F16-0A35-4648-A4D9-FB286E4462AB";
paths = (
{
closed = 1;
nodes = (
"415 0 OFFCURVE",
"505 68 OFFCURVE",
"505 209 CURVE SMOOTH",
"505 350 OFFCURVE",
"415 411 OFFCURVE",
"270 411 CURVE SMOOTH",
"196 411 LINE",
"186 396 LINE",
"230 396 LINE SMOOTH",
"344 396 OFFCURVE",
"395 361 OFFCURVE",
"395 209 CURVE SMOOTH",
"395 57 OFFCURVE",
"344 20 OFFCURVE",
"230 20 CURVE SMOOTH",
"140 20 LINE",
"180 0 LINE",
"270 0 LINE SMOOTH"
);
},
{
closed = 1;
nodes = (
"150 730 LINE",
"230 730 LINE SMOOTH",
"324 730 OFFCURVE",
"365 693 OFFCURVE",
"365 573 CURVE SMOOTH",
"365 453 OFFCURVE",
"324 418 OFFCURVE",
"230 418 CURVE SMOOTH",
"186 418 LINE",
"196 405 LINE",
"270 405 LINE SMOOTH",
"395 405 OFFCURVE",
"475 464 OFFCURVE",
"475 573 CURVE SMOOTH",
"475 683 OFFCURVE",
"395 750 OFFCURVE",
"270 750 CURVE SMOOTH",
"190 750 LINE"
);
},
{
closed = 1;
nodes = (
"220 750 LINE",
"120 750 LINE",
"120 0 LINE",
"220 0 LINE"
);
}
);
width = 545;
}
);
leftMetricsKey = I;
unicode = 0042;
},
{
glyphname = C;
lastChange = "2016-01-22 22:00:05 +0000";
layers = (
{
associatedMasterId = "B5727F16-0A35-4648-A4D9-FB286E4462AB";
layerId = "9B89C26A-F875-42B7-B014-CC71BB09C592";
name = "Regular Dec 15 15, 22:26";
paths = (
{
closed = 1;
nodes = (
"121 712 OFFCURVE",
"35 567 OFFCURVE",
"35 349 CURVE SMOOTH",
"35 132 OFFCURVE",
"112 -12 OFFCURVE",
"227 -12 CURVE SMOOTH",
"328 -12 OFFCURVE",
"369 77 OFFCURVE",
"369 77 CURVE",
"352 87 LINE",
"352 87 OFFCURVE",
"308 13 OFFCURVE",
"250 13 CURVE SMOOTH",
"175 13 OFFCURVE",
"145 109 OFFCURVE",
"145 349 CURVE SMOOTH",
"145 623 OFFCURVE",
"166 692 OFFCURVE",
"250 692 CURVE SMOOTH",
"326 692 OFFCURVE",
"363 620 OFFCURVE",
"295 591 CURVE SMOOTH",
"231 563 OFFCURVE",
"276 448 OFFCURVE",
"349 486 CURVE SMOOTH",
"409 518 OFFCURVE",
"420 712 OFFCURVE",
"250 712 CURVE SMOOTH"
);
}
);
width = 401;
},
{
anchors = (
{
name = bottom;
position = "{227, 0}";
},
{
name = top;
position = "{227, 750}";
}
);
associatedMasterId = "B5727F16-0A35-4648-A4D9-FB286E4462AB";
background = {
components = (
{
name = O;
}
);
};
layerId = "3616BD39-5180-43A1-B78D-1817BDA219CF";
name = "Regular Dec 22 15, 12:51";
paths = (
{
closed = 1;
nodes = (
"180 21 OFFCURVE",
"150 117 OFFCURVE",
"150 374 CURVE SMOOTH",
"150 667 OFFCURVE",
"171 741 OFFCURVE",
"255 741 CURVE SMOOTH",
"332 741 OFFCURVE",
"363 641 OFFCURVE",
"388 513 CURVE",
"388 749 LINE",
"368 694 OFFCURVE",
"346 762 OFFCURVE",
"255 762 CURVE SMOOTH",
"126 762 OFFCURVE",
"40 607 OFFCURVE",
"40 374 CURVE SMOOTH",
"40 142 OFFCURVE",
"117 -12 OFFCURVE",
"252 -12 CURVE SMOOTH",
"336 -12 OFFCURVE",
"358 56 OFFCURVE",
"378 1 CURVE",
"378 237 LINE",
"353 109 OFFCURVE",
"337 21 OFFCURVE",
"265 21 CURVE SMOOTH"
);
},
{
closed = 1;
nodes = (
"388 513 LINE",
"408 513 LINE",
"408 749 LINE",
"388 749 LINE"
);
},
{
closed = 1;
nodes = (
"398 1 LINE",
"398 237 LINE",
"378 237 LINE",
"378 1 LINE"
);
}
);
width = 443;
},
{
associatedMasterId = "B5727F16-0A35-4648-A4D9-FB286E4462AB";
layerId = "51C606C2-9D58-4221-9ED4-08B8A183203F";
name = "Regular Dec 15 15, 22:26";
paths = (
{
closed = 1;
nodes = (
"121 712 OFFCURVE",
"35 567 OFFCURVE",
"35 349 CURVE SMOOTH",
"35 132 OFFCURVE",
"112 -12 OFFCURVE",
"227 -12 CURVE SMOOTH",
"328 -12 OFFCURVE",
"369 77 OFFCURVE",
"369 77 CURVE",
"352 87 LINE",
"352 87 OFFCURVE",
"308 13 OFFCURVE",
"250 13 CURVE SMOOTH",
"175 13 OFFCURVE",
"145 109 OFFCURVE",
"145 349 CURVE SMOOTH",
"145 623 OFFCURVE",
"166 692 OFFCURVE",
"250 692 CURVE SMOOTH",
"326 692 OFFCURVE",
"363 620 OFFCURVE",
"295 591 CURVE SMOOTH",
"231 563 OFFCURVE",
"276 448 OFFCURVE",
"349 486 CURVE SMOOTH",
"409 518 OFFCURVE",
"420 712 OFFCURVE",
"250 712 CURVE SMOOTH"
);
}
);
width = 401;
},
{
anchors = (
{
name = bottom;
position = "{227, 0}";
},
{
name = top;
position = "{227, 750}";
}
);
associatedMasterId = "B5727F16-0A35-4648-A4D9-FB286E4462AB";
background = {
components = (
{
name = O;
}
);
};
layerId = "081F2CB9-8853-4893-89CA-B2DE6E1580BA";
name = "Regular Dec 22 15, 12:51";
paths = (
{
closed = 1;
nodes = (
"180 21 OFFCURVE",
"150 117 OFFCURVE",
"150 374 CURVE SMOOTH",
"150 667 OFFCURVE",
"171 741 OFFCURVE",
"255 741 CURVE SMOOTH",
"332 741 OFFCURVE",
"363 641 OFFCURVE",
"388 513 CURVE",
"388 749 LINE",
"368 694 OFFCURVE",
"346 762 OFFCURVE",
"255 762 CURVE SMOOTH",
"126 762 OFFCURVE",
"40 607 OFFCURVE",
"40 374 CURVE SMOOTH",
"40 142 OFFCURVE",
"117 -12 OFFCURVE",
"252 -12 CURVE SMOOTH",
"336 -12 OFFCURVE",
"358 56 OFFCURVE",
"378 1 CURVE",
"378 237 LINE",
"353 109 OFFCURVE",
"337 21 OFFCURVE",
"265 21 CURVE SMOOTH"
);
},
{
closed = 1;
nodes = (
"388 513 LINE",
"408 513 LINE",
"408 749 LINE",
"388 749 LINE"
);
},
{
closed = 1;
nodes = (
"398 1 LINE",
"398 237 LINE",
"378 237 LINE",
"378 1 LINE"
);
}
);
width = 443;
},
{
associatedMasterId = "B5727F16-0A35-4648-A4D9-FB286E4462AB";
layerId = "771DFA04-307F-46BB-A60F-45ADF008D14C";
name = "Regular Dec 15 15, 22:26";
paths = (
{
closed = 1;
nodes = (
"121 712 OFFCURVE",
"35 567 OFFCURVE",
"35 349 CURVE SMOOTH",
"35 132 OFFCURVE",
"112 -12 OFFCURVE",
"227 -12 CURVE SMOOTH",
"328 -12 OFFCURVE",
"369 77 OFFCURVE",
"369 77 CURVE",
"352 87 LINE",
"352 87 OFFCURVE",
"308 13 OFFCURVE",
"250 13 CURVE SMOOTH",
"175 13 OFFCURVE",
"145 109 OFFCURVE",
"145 349 CURVE SMOOTH",
"145 623 OFFCURVE",
"166 692 OFFCURVE",
"250 692 CURVE SMOOTH",
"326 692 OFFCURVE",
"363 620 OFFCURVE",
"295 591 CURVE SMOOTH",
"231 563 OFFCURVE",
"276 448 OFFCURVE",
"349 486 CURVE SMOOTH",
"409 518 OFFCURVE",
"420 712 OFFCURVE",
"250 712 CURVE SMOOTH"
);
}
);
width = 401;
},
{
anchors = (
{
name = bottom;
position = "{227, 0}";
},
{
name = top;
position = "{227, 750}";
}
);
associatedMasterId = "B5727F16-0A35-4648-A4D9-FB286E4462AB";
background = {
components = (
{
name = O;
}
);
};
layerId = "F158975D-85B9-4CEC-904C-F45A09C95161";
name = "Regular Dec 22 15, 12:51";
paths = (
{
closed = 1;
nodes = (
"180 21 OFFCURVE",
"150 117 OFFCURVE",
"150 374 CURVE SMOOTH",
"150 667 OFFCURVE",
"171 741 OFFCURVE",
"255 741 CURVE SMOOTH",
"332 741 OFFCURVE",
"363 641 OFFCURVE",
"388 513 CURVE",
"388 749 LINE",
"368 694 OFFCURVE",
"346 762 OFFCURVE",
"255 762 CURVE SMOOTH",
"126 762 OFFCURVE",
"40 607 OFFCURVE",
"40 374 CURVE SMOOTH",
"40 142 OFFCURVE",
"117 -12 OFFCURVE",
"252 -12 CURVE SMOOTH",
"336 -12 OFFCURVE",
"358 56 OFFCURVE",
"378 1 CURVE",
"378 237 LINE",
"353 109 OFFCURVE",
"337 21 OFFCURVE",
"265 21 CURVE SMOOTH"
);
},
{
closed = 1;
nodes = (
"388 513 LINE",
"408 513 LINE",
"408 749 LINE",
"388 749 LINE"
);
},
{
closed = 1;
nodes = (
"398 1 LINE",
"398 237 LINE",
"378 237 LINE",
"378 1 LINE"
);
}
);
width = 443;
},
{
associatedMasterId = "B5727F16-0A35-4648-A4D9-FB286E4462AB";
layerId = "21626D50-117B-4CBE-8910-9732A6007E11";
name = "Regular Dec 15 15, 22:26";
paths = (
{
closed = 1;
nodes = (
"121 712 OFFCURVE",
"35 567 OFFCURVE",
"35 349 CURVE SMOOTH",
"35 132 OFFCURVE",
"112 -12 OFFCURVE",
"227 -12 CURVE SMOOTH",
"328 -12 OFFCURVE",
"369 77 OFFCURVE",
"369 77 CURVE",
"352 87 LINE",
"352 87 OFFCURVE",
"308 13 OFFCURVE",
"250 13 CURVE SMOOTH",
"175 13 OFFCURVE",
"145 109 OFFCURVE",
"145 349 CURVE SMOOTH",
"145 623 OFFCURVE",
"166 692 OFFCURVE",
"250 692 CURVE SMOOTH",
"326 692 OFFCURVE",
"363 620 OFFCURVE",
"295 591 CURVE SMOOTH",
"231 563 OFFCURVE",
"276 448 OFFCURVE",
"349 486 CURVE SMOOTH",
"409 518 OFFCURVE",
"420 712 OFFCURVE",
"250 712 CURVE SMOOTH"
);
}
);
width = 401;
},
{
anchors = (
{
name = bottom;
position = "{227, 0}";
},
{
name = top;
position = "{227, 750}";
}
);
associatedMasterId = "B5727F16-0A35-4648-A4D9-FB286E4462AB";
background = {
components = (
{
name = O;
}
);
};
layerId = "41DCFCB6-C38E-46DD-804E-BCA4EBD370A0";
name = "Regular Dec 22 15, 12:51";
paths = (
{
closed = 1;
nodes = (
"180 21 OFFCURVE",
"150 117 OFFCURVE",
"150 374 CURVE SMOOTH",
"150 667 OFFCURVE",
"171 741 OFFCURVE",
"255 741 CURVE SMOOTH",
"332 741 OFFCURVE",
"363 641 OFFCURVE",
"388 513 CURVE",
"388 749 LINE",
"368 694 OFFCURVE",
"346 762 OFFCURVE",
"255 762 CURVE SMOOTH",
"126 762 OFFCURVE",
"40 607 OFFCURVE",
"40 374 CURVE SMOOTH",
"40 142 OFFCURVE",
"117 -12 OFFCURVE",
"252 -12 CURVE SMOOTH",
"336 -12 OFFCURVE",
"358 56 OFFCURVE",
"378 1 CURVE",
"378 237 LINE",
"353 109 OFFCURVE",
"337 21 OFFCURVE",
"265 21 CURVE SMOOTH"
);
},
{
closed = 1;
nodes = (
"388 513 LINE",
"408 513 LINE",
"408 749 LINE",
"388 749 LINE"
);
},
{
closed = 1;
nodes = (
"398 1 LINE",
"398 237 LINE",
"378 237 LINE",
"378 1 LINE"
);
}
);
width = 443;
},
{
anchors = (
{
name = bottom;
position = "{252, 0}";
},
{
name = top;
position = "{270, 750}";
}
);
background = {
components = (
{
name = O;
}
);
};
layerId = "B5727F16-0A35-4648-A4D9-FB286E4462AB";
paths = (
{
closed = 1;
nodes = (
"358 -9 OFFCURVE",
"380 56 OFFCURVE",
"410 -10 CURVE",
"430 -10 LINE",
"430 245 LINE",
"410 245 LINE",
"388 77 OFFCURVE",
"345 9 OFFCURVE",
"270 9 CURVE SMOOTH",
"195 9 OFFCURVE",
"165 117 OFFCURVE",
"165 374 CURVE SMOOTH",
"165 667 OFFCURVE",
"186 742 OFFCURVE",
"270 742 CURVE SMOOTH",
"348 742 OFFCURVE",
"391 673 OFFCURVE",
"413 525 CURVE",
"433 525 LINE",
"433 760 LINE",
"413 760 LINE",
"383 694 OFFCURVE",
"361 760 OFFCURVE",
"270 760 CURVE SMOOTH",
"138 760 OFFCURVE",
"50 606 OFFCURVE",
"50 374 CURVE SMOOTH",
"50 144 OFFCURVE",
"137 -9 OFFCURVE",
"267 -9 CURVE SMOOTH"
);
}
);
width = 483;
},
{
associatedMasterId = "B5727F16-0A35-4648-A4D9-FB286E4462AB";
layerId = "33D6842F-6B2D-434C-8C06-E79A7B07FFBA";
name = "Regular Dec 15 15, 22:26";
paths = (
{
closed = 1;
nodes = (
"121 712 OFFCURVE",
"35 567 OFFCURVE",
"35 349 CURVE SMOOTH",
"35 132 OFFCURVE",
"112 -12 OFFCURVE",
"227 -12 CURVE SMOOTH",
"328 -12 OFFCURVE",
"369 77 OFFCURVE",
"369 77 CURVE",
"352 87 LINE",
"352 87 OFFCURVE",
"308 13 OFFCURVE",
"250 13 CURVE SMOOTH",
"175 13 OFFCURVE",
"145 109 OFFCURVE",
"145 349 CURVE SMOOTH",
"145 623 OFFCURVE",
"166 692 OFFCURVE",
"250 692 CURVE SMOOTH",
"326 692 OFFCURVE",
"363 620 OFFCURVE",
"295 591 CURVE SMOOTH",
"231 563 OFFCURVE",
"276 448 OFFCURVE",
"349 486 CURVE SMOOTH",
"409 518 OFFCURVE",
"420 712 OFFCURVE",
"250 712 CURVE SMOOTH"
);
}
);
width = 401;
},
{
anchors = (
{
name = bottom;
position = "{227, 0}";
},
{
name = top;
position = "{227, 750}";
}
);
associatedMasterId = "B5727F16-0A35-4648-A4D9-FB286E4462AB";
background = {
components = (
{
name = O;
}
);
};
layerId = "DB034DC5-09A8-4D38-94E4-18522BD7EC9E";
name = "Regular Dec 22 15, 12:51";
paths = (
{
closed = 1;
nodes = (
"180 21 OFFCURVE",
"150 117 OFFCURVE",
"150 374 CURVE SMOOTH",
"150 667 OFFCURVE",
"171 741 OFFCURVE",
"255 741 CURVE SMOOTH",
"332 741 OFFCURVE",
"363 641 OFFCURVE",
"388 513 CURVE",
"388 749 LINE",
"368 694 OFFCURVE",
"346 762 OFFCURVE",
"255 762 CURVE SMOOTH",
"126 762 OFFCURVE",
"40 607 OFFCURVE",
"40 374 CURVE SMOOTH",
"40 142 OFFCURVE",
"117 -12 OFFCURVE",
"252 -12 CURVE SMOOTH",
"336 -12 OFFCURVE",
"358 56 OFFCURVE",
"378 1 CURVE",
"378 237 LINE",
"353 109 OFFCURVE",
"337 21 OFFCURVE",
"265 21 CURVE SMOOTH"
);
},
{
closed = 1;
nodes = (
"388 513 LINE",
"408 513 LINE",
"408 749 LINE",
"388 749 LINE"
);
},
{
closed = 1;
nodes = (
"398 1 LINE",
"398 237 LINE",
"378 237 LINE",
"378 1 LINE"
);
}
);
width = 443;
},
{
associatedMasterId = "B5727F16-0A35-4648-A4D9-FB286E4462AB";
layerId = "41C91E67-5F0B-4165-AF40-4E0282EB4BA4";
name = "Regular Dec 15 15, 22:26";
paths = (
{
closed = 1;
nodes = (
"121 712 OFFCURVE",
"35 567 OFFCURVE",
"35 349 CURVE SMOOTH",
"35 132 OFFCURVE",
"112 -12 OFFCURVE",
"227 -12 CURVE SMOOTH",
"328 -12 OFFCURVE",
"369 77 OFFCURVE",
"369 77 CURVE",
"352 87 LINE",
"352 87 OFFCURVE",
"308 13 OFFCURVE",
"250 13 CURVE SMOOTH",
"175 13 OFFCURVE",
"145 109 OFFCURVE",
"145 349 CURVE SMOOTH",
"145 623 OFFCURVE",
"166 692 OFFCURVE",
"250 692 CURVE SMOOTH",
"326 692 OFFCURVE",
"363 620 OFFCURVE",
"295 591 CURVE SMOOTH",
"231 563 OFFCURVE",
"276 448 OFFCURVE",
"349 486 CURVE SMOOTH",
"409 518 OFFCURVE",
"420 712 OFFCURVE",
"250 712 CURVE SMOOTH"
);
}
);
width = 401;
},
{
anchors = (
{
name = bottom;
position = "{227, 0}";
},
{
name = top;
position = "{227, 750}";
}
);
associatedMasterId = "B5727F16-0A35-4648-A4D9-FB286E4462AB";
background = {
components = (
{
name = O;
}
);
};
layerId = "C8655322-A399-4BFF-8B6C-0210B2F55998";
name = "Regular Dec 22 15, 12:51";
paths = (
{
closed = 1;
nodes = (
"180 21 OFFCURVE",
"150 117 OFFCURVE",
"150 374 CURVE SMOOTH",
"150 667 OFFCURVE",
"171 741 OFFCURVE",
"255 741 CURVE SMOOTH",
"332 741 OFFCURVE",
"363 641 OFFCURVE",
"388 513 CURVE",
"388 749 LINE",
"368 694 OFFCURVE",
"346 762 OFFCURVE",
"255 762 CURVE SMOOTH",
"126 762 OFFCURVE",
"40 607 OFFCURVE",
"40 374 CURVE SMOOTH",
"40 142 OFFCURVE",
"117 -12 OFFCURVE",
"252 -12 CURVE SMOOTH",
"336 -12 OFFCURVE",
"358 56 OFFCURVE",
"378 1 CURVE",
"378 237 LINE",
"353 109 OFFCURVE",
"337 21 OFFCURVE",
"265 21 CURVE SMOOTH"
);
},
{
closed = 1;
nodes = (
"388 513 LINE",
"408 513 LINE",
"408 749 LINE",
"388 749 LINE"
);
},
{
closed = 1;
nodes = (
"398 1 LINE",
"398 237 LINE",
"378 237 LINE",
"378 1 LINE"
);
}
);
width = 443;
}
);
leftMetricsKey = O;
unicode = 0043;
},
{
glyphname = D;
lastChange = "2017-02-09 02:51:51 +0000";
layers = (
{
anchors = (
{
name = bottom;
position = "{268, 0}";
},
{
name = center;
position = "{288, 380}";
},
{
name = stroke;
position = "{100, 390}";
},
{
name = top;
position = "{268, 750}";
}
);
associatedMasterId = "B5727F16-0A35-4648-A4D9-FB286E4462AB";
components = (
{
name = I;
}
);
layerId = "80306282-6805-4142-A0EC-6D3715AF978F";
name = "SemiCondensed Dec 28 15, 14:26";
paths = (
{
closed = 1;
nodes = (
"270 730 LINE",
"370 730 OFFCURVE",
"395 659 OFFCURVE",
"395 375 CURVE SMOOTH",
"395 91 OFFCURVE",
"370 20 OFFCURVE",
"270 20 CURVE",
"290 0 LINE",
"425 0 OFFCURVE",
"510 139 OFFCURVE",
"510 375 CURVE SMOOTH",
"510 611 OFFCURVE",
"425 750 OFFCURVE",
"290 750 CURVE"
);
}
);
width = 560;
},
{
anchors = (
{
name = bottom;
position = "{268, 0}";
},
{
name = center;
position = "{288, 380}";
},
{
name = stroke;
position = "{100, 390}";
},
{
name = top;
position = "{268, 750}";
}
);
associatedMasterId = "B5727F16-0A35-4648-A4D9-FB286E4462AB";
components = (
{
name = I;
}
);
layerId = "26A70E8D-8082-48A9-B4B7-B53E759F47B5";
name = "SemiCondensed Dec 28 15, 14:26";
paths = (
{
closed = 1;
nodes = (
"270 730 LINE",
"370 730 OFFCURVE",
"395 659 OFFCURVE",
"395 375 CURVE SMOOTH",
"395 91 OFFCURVE",
"370 20 OFFCURVE",
"270 20 CURVE",
"290 0 LINE",
"425 0 OFFCURVE",
"510 139 OFFCURVE",
"510 375 CURVE SMOOTH",
"510 611 OFFCURVE",
"425 750 OFFCURVE",
"290 750 CURVE"
);
}
);
width = 560;
},
{
anchors = (
{
name = bottom;
position = "{268, 0}";
},
{
name = center;
position = "{288, 380}";
},
{
name = ogonek;
position = "{268, 8}";
},
{
name = stroke;
position = "{100, 390}";
},
{
name = top;
position = "{268, 750}";
},
{
name = topleft;
position = "{60, 750}";
}
);
background = {
components = (
{
alignment = -1;
name = O;
transform = "{1, 0, 0, 1, 50, 0}";
}
);
};
hints = (
{
origin = "{1, 3}";
type = Corner;
name = _corner.serif;
options = 1;
},
{
origin = "{1, 0}";
scale = "{-1, 1}";
type = Corner;
name = _corner.serif;
options = 1;
}
);
layerId = "B5727F16-0A35-4648-A4D9-FB286E4462AB";
paths = (
{
closed = 1;
nodes = (
"170 750 LINE",
"170 730 LINE",
"230 730 LINE",
"365 730 OFFCURVE",
"405 648 OFFCURVE",
"405 375 CURVE SMOOTH",
"405 102 OFFCURVE",
"365 20 OFFCURVE",
"230 20 CURVE",
"172 20 LINE",
"172 0 LINE",
"240 0 LINE",
"420 0 OFFCURVE",
"520 134 OFFCURVE",
"520 375 CURVE SMOOTH",
"520 616 OFFCURVE",
"420 750 OFFCURVE",
"240 750 CURVE"
);
},
{
closed = 1;
nodes = (
"120 0 LINE",
"220 0 LINE",
"220 750 LINE",
"120 750 LINE"
);
}
);
width = 570;
},
{
anchors = (
{
name = bottom;
position = "{268, 0}";
},
{
name = center;
position = "{288, 380}";
},
{
name = stroke;
position = "{100, 390}";
},
{
name = top;
position = "{268, 750}";
}
);
associatedMasterId = "B5727F16-0A35-4648-A4D9-FB286E4462AB";
components = (
{
name = I;
}
);
layerId = "7D0DE851-D3AF-4AB8-853F-AE05F3EA4651";
name = "SemiCondensed Dec 28 15, 14:26";
paths = (
{
closed = 1;
nodes = (
"270 730 LINE",
"370 730 OFFCURVE",
"395 659 OFFCURVE",
"395 375 CURVE SMOOTH",
"395 91 OFFCURVE",
"370 20 OFFCURVE",
"270 20 CURVE",
"290 0 LINE",
"425 0 OFFCURVE",
"510 139 OFFCURVE",
"510 375 CURVE SMOOTH",
"510 611 OFFCURVE",
"425 750 OFFCURVE",
"290 750 CURVE"
);
}
);
width = 560;
}
);
leftMetricsKey = I;
rightMetricsKey = O;
unicode = 0044;
},
{
glyphname = E;
lastChange = "2017-02-11 08:33:26 +0000";
layers = (
{
anchors = (
{
name = bottom;
position = "{273, 0}";
},
{
name = ogonek;
position = "{469, 0}";
},
{
name = top;
position = "{273, 750}";
},
{
name = topleft;
position = "{30, 750}";
}
);
components = (
{
name = F;
}
);
hints = (
{
origin = "{0, 2}";
type = Corner;
name = _corner.serifVerticalBottom;
}
);
layerId = "B5727F16-0A35-4648-A4D9-FB286E4462AB";
paths = (
{
closed = 1;
nodes = (
"161 0 LINE",
"469 0 LINE",
"469 20 LINE",
"161 20 LINE"
);
}
);
width = 499;
}
);
leftMetricsKey = I;
unicode = 0045;
},
{
glyphname = F;
lastChange = "2017-02-11 08:33:31 +0000";
layers = (
{
anchors = (
{
name = bottom;
position = "{170, 0}";
},
{
name = top;
position = "{280, 750}";
}
);
components = (
{
name = I;
}
);
hints = (
{
origin = "{1, 1}";
scale = "{-1, 1}";
type = Corner;
name = _corner.serifVertical;
options = 1;
},
{
origin = "{1, 2}";
type = Corner;
name = _corner.serifVertical;
options = 1;
},
{
origin = "{0, 1}";
scale = "{-1, 1}";
type = Corner;
name = _corner.serifVertical;
options = 1;
}
);
layerId = "B5727F16-0A35-4648-A4D9-FB286E4462AB";
paths = (
{
closed = 1;
nodes = (
"181 730 LINE",
"459 730 LINE",
"459 750 LINE",
"181 750 LINE"
);
},
{
closed = 1;
nodes = (
"163 370 LINE",
"359 370 LINE",
"359 390 LINE",
"163 390 LINE"
);
}
);
width = 489;
}
);
leftMetricsKey = I;
unicode = 0046;
},
{
glyphname = G;
lastChange = "2017-02-09 03:03:42 +0000";
layers = (
{
anchors = (
{
name = bottom;
position = "{234, 0}";
},
{
name = top;
position = "{234, 700}";
}
);
associatedMasterId = "B5727F16-0A35-4648-A4D9-FB286E4462AB";
layerId = "019B4515-956B-4090-9A99-E2BB7C6E0F4B";
name = "Regular Dec 16 15, 15:44";
paths = (
{
closed = 1;
nodes = (
"308 84 OFFCURVE",
"308 19 OFFCURVE",
"245 19 CURVE",
"261 0 LINE",
"408 62 LINE",
"408 270 LINE",
"308 270 LINE"
);
},
{
closed = 1;
nodes = (
"242 260 LINE",
"458 260 LINE",
"458 280 LINE",
"242 280 LINE"
);
},
{
closed = 1;
nodes = (
"160 19 OFFCURVE",
"130 109 OFFCURVE",
"130 349 CURVE SMOOTH",
"130 623 OFFCURVE",
"151 692 OFFCURVE",
"235 692 CURVE SMOOTH",
"312 692 OFFCURVE",
"343 599 OFFCURVE",
"368 479 CURVE",
"368 700 LINE",
"348 648 OFFCURVE",
"326 712 OFFCURVE",
"235 712 CURVE SMOOTH",
"106 712 OFFCURVE",
"20 567 OFFCURVE",
"20 349 CURVE SMOOTH",
"20 132 OFFCURVE",
"97 -12 OFFCURVE",
"232 -12 CURVE SMOOTH",
"346 -12 OFFCURVE",
"368 52 OFFCURVE",
"388 0 CURVE",
"388 221 LINE",
"363 101 OFFCURVE",
"347 19 OFFCURVE",
"245 19 CURVE SMOOTH"
);
},
{
closed = 1;
nodes = (
"368 479 LINE",
"388 479 LINE",
"388 700 LINE",
"368 700 LINE"
);
},
{
closed = 1;
nodes = (
"408 0 LINE",
"408 221 LINE",
"388 221 LINE",
"388 0 LINE"
);
}
);
width = 468;
},
{
anchors = (
{
name = bottom;
position = "{234, 0}";
},
{
name = top;
position = "{234, 700}";
}
);
associatedMasterId = "B5727F16-0A35-4648-A4D9-FB286E4462AB";
background = {
components = (
{
name = C;
}
);
};
layerId = "F56A7F66-8B5A-42B6-A441-E3E0BDA9DC7A";
name = "Regular Dec 18 15, 01:48";
paths = (
{
closed = 1;
nodes = (
"318 84 OFFCURVE",
"318 19 OFFCURVE",
"255 19 CURVE",
"271 0 LINE",
"418 62 LINE",
"418 270 LINE",
"318 270 LINE"
);
},
{
closed = 1;
nodes = (
"252 260 LINE",
"468 260 LINE",
"468 280 LINE",
"252 280 LINE"
);
},
{
closed = 1;
nodes = (
"160 19 OFFCURVE",
"130 109 OFFCURVE",
"130 349 CURVE SMOOTH",
"130 623 OFFCURVE",
"151 692 OFFCURVE",
"235 692 CURVE SMOOTH",
"312 692 OFFCURVE",
"343 599 OFFCURVE",
"368 479 CURVE",
"368 700 LINE",
"348 648 OFFCURVE",
"326 712 OFFCURVE",
"235 712 CURVE SMOOTH",
"106 712 OFFCURVE",
"20 567 OFFCURVE",
"20 349 CURVE SMOOTH",
"20 132 OFFCURVE",
"97 -12 OFFCURVE",
"242 -12 CURVE SMOOTH",
"356 -12 OFFCURVE",
"378 52 OFFCURVE",
"398 0 CURVE",
"398 221 LINE",
"373 101 OFFCURVE",
"357 19 OFFCURVE",
"255 19 CURVE SMOOTH"
);
},
{
closed = 1;
nodes = (
"368 479 LINE",
"388 479 LINE",
"388 700 LINE",
"368 700 LINE"
);
},
{
closed = 1;
nodes = (
"418 0 LINE",
"418 221 LINE",
"398 221 LINE",
"398 0 LINE"
);
}
);
width = 478;
},
{
anchors = (
{
name = bottom;
position = "{234, 0}";
},
{
name = top;
position = "{234, 700}";
}
);
associatedMasterId = "B5727F16-0A35-4648-A4D9-FB286E4462AB";
layerId = "F10E4D15-43CF-4EA0-8521-C2143AA46D51";
name = "Regular Dec 16 15, 15:44";
paths = (
{
closed = 1;
nodes = (
"308 84 OFFCURVE",
"308 19 OFFCURVE",
"245 19 CURVE",
"261 0 LINE",
"408 62 LINE",
"408 270 LINE",
"308 270 LINE"
);
},
{
closed = 1;
nodes = (
"242 260 LINE",
"458 260 LINE",
"458 280 LINE",
"242 280 LINE"
);
},
{
closed = 1;
nodes = (
"160 19 OFFCURVE",
"130 109 OFFCURVE",
"130 349 CURVE SMOOTH",
"130 623 OFFCURVE",
"151 692 OFFCURVE",
"235 692 CURVE SMOOTH",
"312 692 OFFCURVE",
"343 599 OFFCURVE",
"368 479 CURVE",
"368 700 LINE",
"348 648 OFFCURVE",
"326 712 OFFCURVE",
"235 712 CURVE SMOOTH",
"106 712 OFFCURVE",
"20 567 OFFCURVE",
"20 349 CURVE SMOOTH",
"20 132 OFFCURVE",
"97 -12 OFFCURVE",
"232 -12 CURVE SMOOTH",
"346 -12 OFFCURVE",
"368 52 OFFCURVE",
"388 0 CURVE",
"388 221 LINE",
"363 101 OFFCURVE",
"347 19 OFFCURVE",
"245 19 CURVE SMOOTH"
);
},
{
closed = 1;
nodes = (
"368 479 LINE",
"388 479 LINE",
"388 700 LINE",
"368 700 LINE"
);
},
{
closed = 1;
nodes = (
"408 0 LINE",
"408 221 LINE",
"388 221 LINE",
"388 0 LINE"
);
}
);
width = 468;
},
{
anchors = (
{
name = bottom;
position = "{234, 0}";
},
{
name = top;
position = "{234, 700}";
}
);
associatedMasterId = "B5727F16-0A35-4648-A4D9-FB286E4462AB";
background = {
components = (
{
name = C;
}
);
};
layerId = "E545478C-EE1F-4EF2-94EC-D35FF79D2FC7";
name = "Regular Dec 18 15, 01:48";
paths = (
{
closed = 1;
nodes = (
"318 84 OFFCURVE",
"318 19 OFFCURVE",
"255 19 CURVE",
"271 0 LINE",
"418 62 LINE",
"418 270 LINE",
"318 270 LINE"
);
},
{
closed = 1;
nodes = (
"252 260 LINE",
"468 260 LINE",
"468 280 LINE",
"252 280 LINE"
);
},
{
closed = 1;
nodes = (
"160 19 OFFCURVE",
"130 109 OFFCURVE",
"130 349 CURVE SMOOTH",
"130 623 OFFCURVE",
"151 692 OFFCURVE",
"235 692 CURVE SMOOTH",
"312 692 OFFCURVE",
"343 599 OFFCURVE",
"368 479 CURVE",
"368 700 LINE",
"348 648 OFFCURVE",
"326 712 OFFCURVE",
"235 712 CURVE SMOOTH",
"106 712 OFFCURVE",
"20 567 OFFCURVE",
"20 349 CURVE SMOOTH",
"20 132 OFFCURVE",
"97 -12 OFFCURVE",
"242 -12 CURVE SMOOTH",
"356 -12 OFFCURVE",
"378 52 OFFCURVE",
"398 0 CURVE",
"398 221 LINE",
"373 101 OFFCURVE",
"357 19 OFFCURVE",
"255 19 CURVE SMOOTH"
);
},
{
closed = 1;
nodes = (
"368 479 LINE",
"388 479 LINE",
"388 700 LINE",
"368 700 LINE"
);
},
{
closed = 1;
nodes = (
"418 0 LINE",
"418 221 LINE",
"398 221 LINE",
"398 0 LINE"
);
}
);
width = 478;
},
{
anchors = (
{
name = bottom;
position = "{269, 0}";
},
{
name = top;
position = "{269, 750}";
}
);
associatedMasterId = "B5727F16-0A35-4648-A4D9-FB286E4462AB";
background = {
components = (
{
name = C;
},
{
name = _serifVertical;
transform = "{1, 0, 0, 1, 433, 730}";
}
);
};
layerId = "279104AA-25C8-48C6-8E9A-6A1059EF817F";
name = "SemiCondensed Dec 26 15, 23:18";
paths = (
{
closed = 1;
nodes = (
"355 90 OFFCURVE",
"367 9 OFFCURVE",
"273 9 CURVE",
"316 1 LINE",
"432 37 LINE",
"450 -10 LINE",
"450 320 LINE",
"355 320 LINE"
);
},
{
closed = 1;
nodes = (
"277 310 LINE",
"493 310 LINE",
"493 330 LINE",
"277 330 LINE"
);
},
{
closed = 1;
nodes = (
"413 525 LINE",
"433 525 LINE",
"433 760 LINE",
"413 760 LINE"
);
},
{
closed = 1;
nodes = (
"348 -9 OFFCURVE",
"400 56 OFFCURVE",
"430 -10 CURVE",
"430 225 LINE",
"408 77 OFFCURVE",
"345 9 OFFCURVE",
"270 9 CURVE SMOOTH",
"195 9 OFFCURVE",
"165 117 OFFCURVE",
"165 374 CURVE SMOOTH",
"165 667 OFFCURVE",
"186 742 OFFCURVE",
"270 742 CURVE SMOOTH",
"348 742 OFFCURVE",
"391 673 OFFCURVE",
"413 525 CURVE",
"413 760 LINE",
"383 694 OFFCURVE",
"361 760 OFFCURVE",
"270 760 CURVE SMOOTH",
"138 760 OFFCURVE",
"50 606 OFFCURVE",
"50 374 CURVE SMOOTH",
"50 144 OFFCURVE",
"137 -9 OFFCURVE",
"267 -9 CURVE SMOOTH"
);
},
{
closed = 1;
nodes = (
"450 -10 LINE",
"450 225 LINE",
"430 225 LINE",
"430 -10 LINE"
);
}
);
width = 513;
},
{
anchors = (
{
name = bottom;
position = "{234, 0}";
},
{
name = top;
position = "{234, 700}";
}
);
associatedMasterId = "B5727F16-0A35-4648-A4D9-FB286E4462AB";
layerId = "40CF5AAE-6D57-4CB8-8329-5E9D87AEEA37";
name = "Regular Dec 16 15, 15:44";
paths = (
{
closed = 1;
nodes = (
"308 84 OFFCURVE",
"308 19 OFFCURVE",
"245 19 CURVE",
"261 0 LINE",
"408 62 LINE",
"408 270 LINE",
"308 270 LINE"
);
},
{
closed = 1;
nodes = (
"242 260 LINE",
"458 260 LINE",
"458 280 LINE",
"242 280 LINE"
);
},
{
closed = 1;
nodes = (
"160 19 OFFCURVE",
"130 109 OFFCURVE",
"130 349 CURVE SMOOTH",
"130 623 OFFCURVE",
"151 692 OFFCURVE",
"235 692 CURVE SMOOTH",
"312 692 OFFCURVE",
"343 599 OFFCURVE",
"368 479 CURVE",
"368 700 LINE",
"348 648 OFFCURVE",
"326 712 OFFCURVE",
"235 712 CURVE SMOOTH",
"106 712 OFFCURVE",
"20 567 OFFCURVE",
"20 349 CURVE SMOOTH",
"20 132 OFFCURVE",
"97 -12 OFFCURVE",
"232 -12 CURVE SMOOTH",
"346 -12 OFFCURVE",
"368 52 OFFCURVE",
"388 0 CURVE",
"388 221 LINE",
"363 101 OFFCURVE",
"347 19 OFFCURVE",
"245 19 CURVE SMOOTH"
);
},
{
closed = 1;
nodes = (
"368 479 LINE",
"388 479 LINE",
"388 700 LINE",
"368 700 LINE"
);
},
{
closed = 1;
nodes = (
"408 0 LINE",
"408 221 LINE",
"388 221 LINE",
"388 0 LINE"
);
}
);
width = 468;
},
{
anchors = (
{
name = bottom;
position = "{234, 0}";
},
{
name = top;
position = "{234, 700}";
}
);
associatedMasterId = "B5727F16-0A35-4648-A4D9-FB286E4462AB";
background = {
components = (
{
name = C;
}
);
};
layerId = "57B3D489-83B7-41F6-87ED-DDFB74F21512";
name = "Regular Dec 18 15, 01:48";
paths = (
{
closed = 1;
nodes = (
"318 84 OFFCURVE",
"318 19 OFFCURVE",
"255 19 CURVE",
"271 0 LINE",
"418 62 LINE",
"418 270 LINE",
"318 270 LINE"
);
},
{
closed = 1;
nodes = (
"252 260 LINE",
"468 260 LINE",
"468 280 LINE",
"252 280 LINE"
);
},
{
closed = 1;
nodes = (
"160 19 OFFCURVE",
"130 109 OFFCURVE",
"130 349 CURVE SMOOTH",
"130 623 OFFCURVE",
"151 692 OFFCURVE",
"235 692 CURVE SMOOTH",
"312 692 OFFCURVE",
"343 599 OFFCURVE",
"368 479 CURVE",
"368 700 LINE",
"348 648 OFFCURVE",
"326 712 OFFCURVE",
"235 712 CURVE SMOOTH",
"106 712 OFFCURVE",
"20 567 OFFCURVE",
"20 349 CURVE SMOOTH",
"20 132 OFFCURVE",
"97 -12 OFFCURVE",
"242 -12 CURVE SMOOTH",
"356 -12 OFFCURVE",
"378 52 OFFCURVE",
"398 0 CURVE",
"398 221 LINE",
"373 101 OFFCURVE",
"357 19 OFFCURVE",
"255 19 CURVE SMOOTH"
);
},
{
closed = 1;
nodes = (
"368 479 LINE",
"388 479 LINE",
"388 700 LINE",
"368 700 LINE"
);
},
{
closed = 1;
nodes = (
"418 0 LINE",
"418 221 LINE",
"398 221 LINE",
"398 0 LINE"
);
}
);
width = 478;
},
{
anchors = (
{
name = bottom;
position = "{234, 0}";
},
{
name = top;
position = "{234, 700}";
}
);
associatedMasterId = "B5727F16-0A35-4648-A4D9-FB286E4462AB";
layerId = "9A59CF9B-CB86-446F-B582-FAF86A5110D3";
name = "Regular Dec 16 15, 15:44";
paths = (
{
closed = 1;
nodes = (
"308 84 OFFCURVE",
"308 19 OFFCURVE",
"245 19 CURVE",
"261 0 LINE",
"408 62 LINE",
"408 270 LINE",
"308 270 LINE"
);
},
{
closed = 1;
nodes = (
"242 260 LINE",
"458 260 LINE",
"458 280 LINE",
"242 280 LINE"
);
},
{
closed = 1;
nodes = (
"160 19 OFFCURVE",
"130 109 OFFCURVE",
"130 349 CURVE SMOOTH",
"130 623 OFFCURVE",
"151 692 OFFCURVE",
"235 692 CURVE SMOOTH",
"312 692 OFFCURVE",
"343 599 OFFCURVE",
"368 479 CURVE",
"368 700 LINE",
"348 648 OFFCURVE",
"326 712 OFFCURVE",
"235 712 CURVE SMOOTH",
"106 712 OFFCURVE",
"20 567 OFFCURVE",
"20 349 CURVE SMOOTH",
"20 132 OFFCURVE",
"97 -12 OFFCURVE",
"232 -12 CURVE SMOOTH",
"346 -12 OFFCURVE",
"368 52 OFFCURVE",
"388 0 CURVE",
"388 221 LINE",
"363 101 OFFCURVE",
"347 19 OFFCURVE",
"245 19 CURVE SMOOTH"
);
},
{
closed = 1;
nodes = (
"368 479 LINE",
"388 479 LINE",
"388 700 LINE",
"368 700 LINE"
);
},
{
closed = 1;
nodes = (
"408 0 LINE",
"408 221 LINE",
"388 221 LINE",
"388 0 LINE"
);
}
);
width = 468;
},
{
anchors = (
{
name = bottom;
position = "{234, 0}";
},
{
name = top;
position = "{234, 700}";
}
);
associatedMasterId = "B5727F16-0A35-4648-A4D9-FB286E4462AB";
background = {
components = (
{
name = C;
}
);
};
layerId = "083B2FCC-96AC-4B2A-A21A-F2E67847D9F0";
name = "Regular Dec 18 15, 01:48";
paths = (
{
closed = 1;
nodes = (
"318 84 OFFCURVE",
"318 19 OFFCURVE",
"255 19 CURVE",
"271 0 LINE",
"418 62 LINE",
"418 270 LINE",
"318 270 LINE"
);
},
{
closed = 1;
nodes = (
"252 260 LINE",
"468 260 LINE",
"468 280 LINE",
"252 280 LINE"
);
},
{
closed = 1;
nodes = (
"160 19 OFFCURVE",
"130 109 OFFCURVE",
"130 349 CURVE SMOOTH",
"130 623 OFFCURVE",
"151 692 OFFCURVE",
"235 692 CURVE SMOOTH",
"312 692 OFFCURVE",
"343 599 OFFCURVE",
"368 479 CURVE",
"368 700 LINE",
"348 648 OFFCURVE",
"326 712 OFFCURVE",
"235 712 CURVE SMOOTH",
"106 712 OFFCURVE",
"20 567 OFFCURVE",
"20 349 CURVE SMOOTH",
"20 132 OFFCURVE",
"97 -12 OFFCURVE",
"242 -12 CURVE SMOOTH",
"356 -12 OFFCURVE",
"378 52 OFFCURVE",
"398 0 CURVE",
"398 221 LINE",
"373 101 OFFCURVE",
"357 19 OFFCURVE",
"255 19 CURVE SMOOTH"
);
},
{
closed = 1;
nodes = (
"368 479 LINE",
"388 479 LINE",
"388 700 LINE",
"368 700 LINE"
);
},
{
closed = 1;
nodes = (
"418 0 LINE",
"418 221 LINE",
"398 221 LINE",
"398 0 LINE"
);
}
);
width = 478;
},
{
anchors = (
{
name = bottom;
position = "{269, 0}";
},
{
name = top;
position = "{269, 750}";
}
);
associatedMasterId = "B5727F16-0A35-4648-A4D9-FB286E4462AB";
background = {
components = (
{
name = C;
},
{
name = _serifVertical;
transform = "{1, 0, 0, 1, 433, 730}";
}
);
};
layerId = "6D2DFC7E-9AA7-40CC-8BBE-E7A3DF085A18";
name = "SemiCondensed Dec 26 15, 23:18";
paths = (
{
closed = 1;
nodes = (
"355 90 OFFCURVE",
"367 9 OFFCURVE",
"273 9 CURVE",
"316 1 LINE",
"432 37 LINE",
"450 -10 LINE",
"450 320 LINE",
"355 320 LINE"
);
},
{
closed = 1;
nodes = (
"277 310 LINE",
"493 310 LINE",
"493 330 LINE",
"277 330 LINE"
);
},
{
closed = 1;
nodes = (
"413 525 LINE",
"433 525 LINE",
"433 760 LINE",
"413 760 LINE"
);
},
{
closed = 1;
nodes = (
"348 -9 OFFCURVE",
"400 56 OFFCURVE",
"430 -10 CURVE",
"430 225 LINE",
"408 77 OFFCURVE",
"345 9 OFFCURVE",
"270 9 CURVE SMOOTH",
"195 9 OFFCURVE",
"165 117 OFFCURVE",
"165 374 CURVE SMOOTH",
"165 667 OFFCURVE",
"186 742 OFFCURVE",
"270 742 CURVE SMOOTH",
"348 742 OFFCURVE",
"391 673 OFFCURVE",
"413 525 CURVE",
"413 760 LINE",
"383 694 OFFCURVE",
"361 760 OFFCURVE",
"270 760 CURVE SMOOTH",
"138 760 OFFCURVE",
"50 606 OFFCURVE",
"50 374 CURVE SMOOTH",
"50 144 OFFCURVE",
"137 -9 OFFCURVE",
"267 -9 CURVE SMOOTH"
);
},
{
closed = 1;
nodes = (
"450 -10 LINE",
"450 225 LINE",
"430 225 LINE",
"430 -10 LINE"
);
}
);
width = 513;
},
{
anchors = (
{
name = bottom;
position = "{234, 0}";
},
{
name = top;
position = "{234, 700}";
}
);
associatedMasterId = "B5727F16-0A35-4648-A4D9-FB286E4462AB";
layerId = "0CB303F7-813E-4485-8922-0975C35D1C3C";
name = "Regular Dec 16 15, 15:44";
paths = (
{
closed = 1;
nodes = (
"308 84 OFFCURVE",
"308 19 OFFCURVE",
"245 19 CURVE",
"261 0 LINE",
"408 62 LINE",
"408 270 LINE",
"308 270 LINE"
);
},
{
closed = 1;
nodes = (
"242 260 LINE",
"458 260 LINE",
"458 280 LINE",
"242 280 LINE"
);
},
{
closed = 1;
nodes = (
"160 19 OFFCURVE",
"130 109 OFFCURVE",
"130 349 CURVE SMOOTH",
"130 623 OFFCURVE",
"151 692 OFFCURVE",
"235 692 CURVE SMOOTH",
"312 692 OFFCURVE",
"343 599 OFFCURVE",
"368 479 CURVE",
"368 700 LINE",
"348 648 OFFCURVE",
"326 712 OFFCURVE",
"235 712 CURVE SMOOTH",
"106 712 OFFCURVE",
"20 567 OFFCURVE",
"20 349 CURVE SMOOTH",
"20 132 OFFCURVE",
"97 -12 OFFCURVE",
"232 -12 CURVE SMOOTH",
"346 -12 OFFCURVE",
"368 52 OFFCURVE",
"388 0 CURVE",
"388 221 LINE",
"363 101 OFFCURVE",
"347 19 OFFCURVE",
"245 19 CURVE SMOOTH"
);
},
{
closed = 1;
nodes = (
"368 479 LINE",
"388 479 LINE",
"388 700 LINE",
"368 700 LINE"
);
},
{
closed = 1;
nodes = (
"408 0 LINE",
"408 221 LINE",
"388 221 LINE",
"388 0 LINE"
);
}
);
width = 468;
},
{
anchors = (
{
name = bottom;
position = "{234, 0}";
},
{
name = top;
position = "{234, 700}";
}
);
associatedMasterId = "B5727F16-0A35-4648-A4D9-FB286E4462AB";
background = {
components = (
{
name = C;
}
);
};
layerId = "D4632F4C-437B-454B-8F12-EA6A443FA4E4";
name = "Regular Dec 18 15, 01:48";
paths = (
{
closed = 1;
nodes = (
"318 84 OFFCURVE",
"318 19 OFFCURVE",
"255 19 CURVE",
"271 0 LINE",
"418 62 LINE",
"418 270 LINE",
"318 270 LINE"
);
},
{
closed = 1;
nodes = (
"252 260 LINE",
"468 260 LINE",
"468 280 LINE",
"252 280 LINE"
);
},
{
closed = 1;
nodes = (
"160 19 OFFCURVE",
"130 109 OFFCURVE",
"130 349 CURVE SMOOTH",
"130 623 OFFCURVE",
"151 692 OFFCURVE",
"235 692 CURVE SMOOTH",
"312 692 OFFCURVE",
"343 599 OFFCURVE",
"368 479 CURVE",
"368 700 LINE",
"348 648 OFFCURVE",
"326 712 OFFCURVE",
"235 712 CURVE SMOOTH",
"106 712 OFFCURVE",
"20 567 OFFCURVE",
"20 349 CURVE SMOOTH",
"20 132 OFFCURVE",
"97 -12 OFFCURVE",
"242 -12 CURVE SMOOTH",
"356 -12 OFFCURVE",
"378 52 OFFCURVE",
"398 0 CURVE",
"398 221 LINE",
"373 101 OFFCURVE",
"357 19 OFFCURVE",
"255 19 CURVE SMOOTH"
);
},
{
closed = 1;
nodes = (
"368 479 LINE",
"388 479 LINE",
"388 700 LINE",
"368 700 LINE"
);
},
{
closed = 1;
nodes = (
"418 0 LINE",
"418 221 LINE",
"398 221 LINE",
"398 0 LINE"
);
}
);
width = 478;
},
{
anchors = (
{
name = bottom;
position = "{234, 0}";
},
{
name = top;
position = "{234, 700}";
}
);
associatedMasterId = "B5727F16-0A35-4648-A4D9-FB286E4462AB";
layerId = "C199949A-2F32-4B07-939C-90A53959651B";
name = "Regular Dec 16 15, 15:44";
paths = (
{
closed = 1;
nodes = (
"308 84 OFFCURVE",
"308 19 OFFCURVE",
"245 19 CURVE",
"261 0 LINE",
"408 62 LINE",
"408 270 LINE",
"308 270 LINE"
);
},
{
closed = 1;
nodes = (
"242 260 LINE",
"458 260 LINE",
"458 280 LINE",
"242 280 LINE"
);
},
{
closed = 1;
nodes = (
"160 19 OFFCURVE",
"130 109 OFFCURVE",
"130 349 CURVE SMOOTH",
"130 623 OFFCURVE",
"151 692 OFFCURVE",
"235 692 CURVE SMOOTH",
"312 692 OFFCURVE",
"343 599 OFFCURVE",
"368 479 CURVE",
"368 700 LINE",
"348 648 OFFCURVE",
"326 712 OFFCURVE",
"235 712 CURVE SMOOTH",
"106 712 OFFCURVE",
"20 567 OFFCURVE",
"20 349 CURVE SMOOTH",
"20 132 OFFCURVE",
"97 -12 OFFCURVE",
"232 -12 CURVE SMOOTH",
"346 -12 OFFCURVE",
"368 52 OFFCURVE",
"388 0 CURVE",
"388 221 LINE",
"363 101 OFFCURVE",
"347 19 OFFCURVE",
"245 19 CURVE SMOOTH"
);
},
{
closed = 1;
nodes = (
"368 479 LINE",
"388 479 LINE",
"388 700 LINE",
"368 700 LINE"
);
},
{
closed = 1;
nodes = (
"408 0 LINE",
"408 221 LINE",
"388 221 LINE",
"388 0 LINE"
);
}
);
width = 468;
},
{
anchors = (
{
name = bottom;
position = "{234, 0}";
},
{
name = top;
position = "{234, 700}";
}
);
associatedMasterId = "B5727F16-0A35-4648-A4D9-FB286E4462AB";
background = {
components = (
{
name = C;
}
);
};
layerId = "CAE08910-8F52-43BC-B56A-973A9FFBB81F";
name = "Regular Dec 18 15, 01:48";
paths = (
{
closed = 1;
nodes = (
"318 84 OFFCURVE",
"318 19 OFFCURVE",
"255 19 CURVE",
"271 0 LINE",
"418 62 LINE",
"418 270 LINE",
"318 270 LINE"
);
},
{
closed = 1;
nodes = (
"252 260 LINE",
"468 260 LINE",
"468 280 LINE",
"252 280 LINE"
);
},
{
closed = 1;
nodes = (
"160 19 OFFCURVE",
"130 109 OFFCURVE",
"130 349 CURVE SMOOTH",
"130 623 OFFCURVE",
"151 692 OFFCURVE",
"235 692 CURVE SMOOTH",
"312 692 OFFCURVE",
"343 599 OFFCURVE",
"368 479 CURVE",
"368 700 LINE",
"348 648 OFFCURVE",
"326 712 OFFCURVE",
"235 712 CURVE SMOOTH",
"106 712 OFFCURVE",
"20 567 OFFCURVE",
"20 349 CURVE SMOOTH",
"20 132 OFFCURVE",
"97 -12 OFFCURVE",
"242 -12 CURVE SMOOTH",
"356 -12 OFFCURVE",
"378 52 OFFCURVE",
"398 0 CURVE",
"398 221 LINE",
"373 101 OFFCURVE",
"357 19 OFFCURVE",
"255 19 CURVE SMOOTH"
);
},
{
closed = 1;
nodes = (
"368 479 LINE",
"388 479 LINE",
"388 700 LINE",
"368 700 LINE"
);
},
{
closed = 1;
nodes = (
"418 0 LINE",
"418 221 LINE",
"398 221 LINE",
"398 0 LINE"
);
}
);
width = 478;
},
{
anchors = (
{
name = bottom;
position = "{269, 0}";
},
{
name = top;
position = "{269, 750}";
}
);
associatedMasterId = "B5727F16-0A35-4648-A4D9-FB286E4462AB";
background = {
components = (
{
name = C;
},
{
name = _serifVertical;
transform = "{1, 0, 0, 1, 433, 730}";
}
);
};
layerId = "9EE7A1D9-1ECF-4122-A721-0B2461D390FD";
name = "SemiCondensed Dec 26 15, 23:18";
paths = (
{
closed = 1;
nodes = (
"355 90 OFFCURVE",
"367 9 OFFCURVE",
"273 9 CURVE",
"316 1 LINE",
"432 37 LINE",
"450 -10 LINE",
"450 320 LINE",
"355 320 LINE"
);
},
{
closed = 1;
nodes = (
"277 310 LINE",
"493 310 LINE",
"493 330 LINE",
"277 330 LINE"
);
},
{
closed = 1;
nodes = (
"413 525 LINE",
"433 525 LINE",
"433 760 LINE",
"413 760 LINE"
);
},
{
closed = 1;
nodes = (
"348 -9 OFFCURVE",
"400 56 OFFCURVE",
"430 -10 CURVE",
"430 225 LINE",
"408 77 OFFCURVE",
"345 9 OFFCURVE",
"270 9 CURVE SMOOTH",
"195 9 OFFCURVE",
"165 117 OFFCURVE",
"165 374 CURVE SMOOTH",
"165 667 OFFCURVE",
"186 742 OFFCURVE",
"270 742 CURVE SMOOTH",
"348 742 OFFCURVE",
"391 673 OFFCURVE",
"413 525 CURVE",
"413 760 LINE",
"383 694 OFFCURVE",
"361 760 OFFCURVE",
"270 760 CURVE SMOOTH",
"138 760 OFFCURVE",
"50 606 OFFCURVE",
"50 374 CURVE SMOOTH",
"50 144 OFFCURVE",
"137 -9 OFFCURVE",
"267 -9 CURVE SMOOTH"
);
},
{
closed = 1;
nodes = (
"450 -10 LINE",
"450 225 LINE",
"430 225 LINE",
"430 -10 LINE"
);
}
);
width = 513;
},
{
anchors = (
{
name = bottom;
position = "{269, 0}";
},
{
name = top;
position = "{269, 750}";
}
);
background = {
components = (
{
name = C;
}
);
};
layerId = "B5727F16-0A35-4648-A4D9-FB286E4462AB";
paths = (
{
closed = 1;
nodes = (
"453 320 LINE",
"453 53 LINE",
"316 1 LINE",
"272 9 LINE",
"309 9 OFFCURVE",
"330 23 OFFCURVE",
"343 44 CURVE SMOOTH",
"364 73 OFFCURVE",
"363 133 OFFCURVE",
"363 218 CURVE SMOOTH",
"363 320 LINE"
);
},
{
closed = 1;
nodes = (
"503 330 LINE",
"503 310 LINE",
"277 310 LINE",
"277 330 LINE"
);
},
{
closed = 1;
nodes = (
"361 760 OFFCURVE",
"383 694 OFFCURVE",
"413 760 CURVE",
"433 760 LINE",
"433 525 LINE",
"413 525 LINE",
"388 693 OFFCURVE",
"337 742 OFFCURVE",
"270 742 CURVE SMOOTH",
"186 742 OFFCURVE",
"165 667 OFFCURVE",
"165 374 CURVE SMOOTH",
"165 113 OFFCURVE",
"195 9 OFFCURVE",
"272 9 CURVE SMOOTH",
"384 9 OFFCURVE",
"428 109 OFFCURVE",
"453 238 CURVE",
"453 40 LINE",
"377 20 OFFCURVE",
"351 -9 OFFCURVE",
"267 -9 CURVE SMOOTH",
"137 -9 OFFCURVE",
"50 142 OFFCURVE",
"50 374 CURVE SMOOTH",
"50 607 OFFCURVE",
"138 760 OFFCURVE",
"270 760 CURVE SMOOTH"
);
}
);
width = 533;
}
);
leftMetricsKey = C;
unicode = 0047;
},
{
glyphname = H;
lastChange = "2017-02-11 06:38:35 +0000";
layers = (
{
anchors = (
{
name = bottom;
position = "{310, 0}";
},
{
name = center;
position = "{310, 375}";
},
{
name = ogonek;
position = "{568, 8}";
},
{
name = top;
position = "{310, 750}";
},
{
name = topleft;
position = "{20, 750}";
}
);
hints = (
{
origin = "{2, 3}";
type = Corner;
name = _corner.serif;
options = 1;
},
{
origin = "{2, 1}";
scale = "{0.7, 1}";
type = Corner;
name = _corner.serif;
options = 1;
},
{
origin = "{1, 1}";
type = Corner;
name = _corner.serif;
options = 1;
},
{
origin = "{1, 3}";
scale = "{0.7, 1}";
type = Corner;
name = _corner.serif;
options = 1;
},
{
origin = "{1, 2}";
scale = "{-1, 1}";
type = Corner;
name = _corner.serif;
options = 1;
},
{
origin = "{1, 0}";
scale = "{-0.7, 1}";
type = Corner;
name = _corner.serif;
options = 1;
},
{
origin = "{2, 0}";
scale = "{-1, 1}";
type = Corner;
name = _corner.serif;
options = 1;
},
{
origin = "{2, 2}";
scale = "{-0.7, 1}";
type = Corner;
name = _corner.serif;
options = 1;
}
);
layerId = "B5727F16-0A35-4648-A4D9-FB286E4462AB";
paths = (
{
closed = 1;
nodes = (
"145 370 LINE",
"482 370 LINE",
"482 390 LINE",
"145 390 LINE"
);
},
{
closed = 1;
nodes = (
"420 0 LINE",
"520 0 LINE",
"520 750 LINE",
"420 750 LINE"
);
},
{
closed = 1;
nodes = (
"120 0 LINE",
"220 0 LINE",
"220 750 LINE",
"120 750 LINE"
);
}
);
width = 640;
}
);
leftMetricsKey = I;
rightMetricsKey = I;
unicode = 0048;
},
{
glyphname = Hbar;
lastChange = "2016-01-09 22:28:12 +0000";
layers = (
{
components = (
{
name = H;
}
);
layerId = "B5727F16-0A35-4648-A4D9-FB286E4462AB";
paths = (
{
closed = 1;
nodes = (
"40 550 LINE",
"600 550 LINE",
"600 570 LINE",
"40 570 LINE"
);
}
);
width = 640;
}
);
leftMetricsKey = H;
rightMetricsKey = H;
unicode = 0126;
},
{
glyphname = I;
lastChange = "2017-02-09 02:00:48 +0000";
layers = (
{
anchors = (
{
name = bottom;
position = "{170, 0}";
},
{
name = ogonek;
position = "{220, 0}";
},
{
name = top;
position = "{170, 750}";
},
{
name = topleft;
position = "{60, 750}";
}
);
hints = (
{
origin = "{0, 3}";
type = Corner;
name = _corner.serif;
},
{
origin = "{0, 2}";
scale = "{-1, 1}";
type = Corner;
name = _corner.serif;
options = 1;
},
{
origin = "{0, 1}";
type = Corner;
name = _corner.serif;
},
{
origin = "{0, 0}";
scale = "{-1, 1}";
type = Corner;
name = _corner.serif;
options = 1;
}
);
layerId = "B5727F16-0A35-4648-A4D9-FB286E4462AB";
paths = (
{
closed = 1;
nodes = (
"120 0 LINE",
"220 0 LINE",
"220 750 LINE",
"120 750 LINE"
);
}
);
width = 340;
}
);
unicode = 0049;
},
{
glyphname = J;
lastChange = "2017-02-09 02:05:57 +0000";
layers = (
{
anchors = (
{
name = bottom;
position = "{216, 0}";
},
{
name = top;
position = "{216, 750}";
}
);
associatedMasterId = "B5727F16-0A35-4648-A4D9-FB286E4462AB";
components = (
{
name = _corner.serif;
transform = "{1, 0, 0, 1, 166, 750}";
},
{
name = _corner.serif;
transform = "{-1, 0, 0, 1, 266, 750}";
}
);
layerId = "7CF8EB62-CA5B-4313-80A3-0B0F5CEF9FC3";
name = "Regular Dec 25 15, 19:44";
paths = (
{
closed = 1;
nodes = (
"83 8 OFFCURVE",
"115 21 OFFCURVE",
"124 49 CURVE SMOOTH",
"148 129 OFFCURVE",
"29 162 OFFCURVE",
"11 78 CURVE SMOOTH",
"1 32 OFFCURVE",
"35 -10 OFFCURVE",
"111 -10 CURVE SMOOTH",
"247 -10 OFFCURVE",
"266 163 OFFCURVE",
"266 380 CURVE SMOOTH",
"266 750 LINE",
"166 750 LINE",
"166 253 LINE SMOOTH",
"166 130 OFFCURVE",
"180 8 OFFCURVE",
"111 8 CURVE SMOOTH"
);
}
);
width = 366;
},
{
anchors = (
{
name = bottom;
position = "{216, 0}";
},
{
name = top;
position = "{216, 750}";
}
);
associatedMasterId = "B5727F16-0A35-4648-A4D9-FB286E4462AB";
components = (
{
name = _corner.serif;
transform = "{1, 0, 0, 1, 166, 750}";
},
{
name = _corner.serif;
transform = "{-1, 0, 0, 1, 266, 750}";
}
);
layerId = "DDA7EA9C-51FE-4E2D-A40C-E491913C3273";
name = "Regular Dec 25 15, 19:44";
paths = (
{
closed = 1;
nodes = (
"83 8 OFFCURVE",
"115 21 OFFCURVE",
"124 49 CURVE SMOOTH",
"148 129 OFFCURVE",
"29 162 OFFCURVE",
"11 78 CURVE SMOOTH",
"1 32 OFFCURVE",
"35 -10 OFFCURVE",
"111 -10 CURVE SMOOTH",
"247 -10 OFFCURVE",
"266 163 OFFCURVE",
"266 380 CURVE SMOOTH",
"266 750 LINE",
"166 750 LINE",
"166 253 LINE SMOOTH",
"166 130 OFFCURVE",
"180 8 OFFCURVE",
"111 8 CURVE SMOOTH"
);
}
);
width = 366;
},
{
anchors = (
{
name = bottom;
position = "{216, 0}";
},
{
name = top;
position = "{216, 750}";
}
);
associatedMasterId = "B5727F16-0A35-4648-A4D9-FB286E4462AB";
components = (
{
name = _corner.serif;
transform = "{1, 0, 0, 1, 166, 750}";
},
{
name = _corner.serif;
transform = "{-1, 0, 0, 1, 266, 750}";
}
);
layerId = "88619CDE-48DC-4D9A-A859-D04C18CC3F57";
name = "Regular Dec 25 15, 19:44";
paths = (
{
closed = 1;
nodes = (
"83 8 OFFCURVE",
"115 21 OFFCURVE",
"124 49 CURVE SMOOTH",
"148 129 OFFCURVE",
"29 162 OFFCURVE",
"11 78 CURVE SMOOTH",
"1 32 OFFCURVE",
"35 -10 OFFCURVE",
"111 -10 CURVE SMOOTH",
"247 -10 OFFCURVE",
"266 163 OFFCURVE",
"266 380 CURVE SMOOTH",
"266 750 LINE",
"166 750 LINE",
"166 253 LINE SMOOTH",
"166 130 OFFCURVE",
"180 8 OFFCURVE",
"111 8 CURVE SMOOTH"
);
}
);
width = 366;
},
{
anchors = (
{
name = bottom;
position = "{216, 0}";
},
{
name = top;
position = "{216, 750}";
}
);
associatedMasterId = "B5727F16-0A35-4648-A4D9-FB286E4462AB";
components = (
{
name = _corner.serif;
transform = "{1, 0, 0, 1, 166, 750}";
},
{
name = _corner.serif;
transform = "{-1, 0, 0, 1, 266, 750}";
}
);
layerId = "6317A340-1328-423A-ABBD-84BCD7F2B3B7";
name = "Regular Dec 25 15, 19:44";
paths = (
{
closed = 1;
nodes = (
"83 8 OFFCURVE",
"115 21 OFFCURVE",
"124 49 CURVE SMOOTH",
"148 129 OFFCURVE",
"29 162 OFFCURVE",
"11 78 CURVE SMOOTH",
"1 32 OFFCURVE",
"35 -10 OFFCURVE",
"111 -10 CURVE SMOOTH",
"247 -10 OFFCURVE",
"266 163 OFFCURVE",
"266 380 CURVE SMOOTH",
"266 750 LINE",
"166 750 LINE",
"166 253 LINE SMOOTH",
"166 130 OFFCURVE",
"180 8 OFFCURVE",
"111 8 CURVE SMOOTH"
);
}
);
width = 366;
},
{
anchors = (
{
name = bottom;
position = "{237, 0}";
},
{
name = top;
position = "{237, 750}";
}
);
hints = (
{
origin = "{0, 13}";
type = Corner;
name = _corner.serif;
options = 1;
},
{
origin = "{0, 12}";
scale = "{-1, 1}";
type = Corner;
name = _corner.serif;
options = 1;
}
);
layerId = "B5727F16-0A35-4648-A4D9-FB286E4462AB";
paths = (
{
closed = 1;
nodes = (
"74 8 OFFCURVE",
"106 21 OFFCURVE",
"115 49 CURVE SMOOTH",
"139 129 OFFCURVE",
"20 162 OFFCURVE",
"2 78 CURVE SMOOTH",
"-8 32 OFFCURVE",
"26 -10 OFFCURVE",
"102 -10 CURVE SMOOTH",
"250 -10 OFFCURVE",
"287 48 OFFCURVE",
"287 280 CURVE SMOOTH",
"287 750 LINE",
"187 750 LINE",
"187 209 LINE SMOOTH",
"187 48 OFFCURVE",
"170 8 OFFCURVE",
"102 8 CURVE SMOOTH"
);
}
);
width = 377;
},
{
anchors = (
{
name = bottom;
position = "{216, 0}";
},
{
name = top;
position = "{216, 750}";
}
);
associatedMasterId = "B5727F16-0A35-4648-A4D9-FB286E4462AB";
components = (
{
name = _corner.serif;
transform = "{1, 0, 0, 1, 166, 750}";
},
{
name = _corner.serif;
transform = "{-1, 0, 0, 1, 266, 750}";
}
);
layerId = "C5CA88BF-1407-4EAE-96BB-B9AA6E41AE4C";
name = "Regular Dec 25 15, 19:44";
paths = (
{
closed = 1;
nodes = (
"83 8 OFFCURVE",
"115 21 OFFCURVE",
"124 49 CURVE SMOOTH",
"148 129 OFFCURVE",
"29 162 OFFCURVE",
"11 78 CURVE SMOOTH",
"1 32 OFFCURVE",
"35 -10 OFFCURVE",
"111 -10 CURVE SMOOTH",
"247 -10 OFFCURVE",
"266 163 OFFCURVE",
"266 380 CURVE SMOOTH",
"266 750 LINE",
"166 750 LINE",
"166 253 LINE SMOOTH",
"166 130 OFFCURVE",
"180 8 OFFCURVE",
"111 8 CURVE SMOOTH"
);
}
);
width = 366;
},
{
anchors = (
{
name = bottom;
position = "{216, 0}";
},
{
name = top;
position = "{216, 750}";
}
);
associatedMasterId = "B5727F16-0A35-4648-A4D9-FB286E4462AB";
components = (
{
name = _corner.serif;
transform = "{1, 0, 0, 1, 166, 750}";
},
{
name = _corner.serif;
transform = "{-1, 0, 0, 1, 266, 750}";
}
);
layerId = "7BF77792-47BF-4D03-9D38-A21CA7BC971F";
name = "Regular Dec 25 15, 19:44";
paths = (
{
closed = 1;
nodes = (
"83 8 OFFCURVE",
"115 21 OFFCURVE",
"124 49 CURVE SMOOTH",
"148 129 OFFCURVE",
"29 162 OFFCURVE",
"11 78 CURVE SMOOTH",
"1 32 OFFCURVE",
"35 -10 OFFCURVE",
"111 -10 CURVE SMOOTH",
"247 -10 OFFCURVE",
"266 163 OFFCURVE",
"266 380 CURVE SMOOTH",
"266 750 LINE",
"166 750 LINE",
"166 253 LINE SMOOTH",
"166 130 OFFCURVE",
"180 8 OFFCURVE",
"111 8 CURVE SMOOTH"
);
}
);
width = 366;
}
);
unicode = 004A;
},
{
glyphname = K;
lastChange = "2017-02-09 02:06:29 +0000";
layers = (
{
anchors = (
{
name = bottom;
position = "{249, 0}";
},
{
name = top;
position = "{249, 750}";
}
);
associatedMasterId = "B5727F16-0A35-4648-A4D9-FB286E4462AB";
components = (
{
name = _corner.serif;
transform = "{1, 0, 0, 1, 372, 750}";
},
{
name = _corner.serif;
transform = "{-1, 0, 0, 1, 396, 750}";
},
{
name = _corner.serif;
transform = "{-1, 0, 0, -1, 443, 0}";
},
{
name = _corner.serif;
transform = "{1, 0, 0, -1, 330, 0}";
},
{
name = I;
}
);
layerId = "5D2CF7F6-E20D-4E1F-9B86-AF7D7564C0B5";
name = "Regular Dec 19 15, 19:01";
paths = (
{
closed = 1;
nodes = (
"372 750 LINE",
"146 305 LINE",
"165 296 LINE",
"396 750 LINE"
);
},
{
closed = 1;
nodes = (
"330 0 LINE",
"443 0 LINE",
"241 464 LINE",
"182 347 LINE"
);
}
);
width = 477;
},
{
anchors = (
{
name = bottom;
position = "{249, 0}";
},
{
name = top;
position = "{249, 750}";
}
);
associatedMasterId = "B5727F16-0A35-4648-A4D9-FB286E4462AB";
components = (
{
name = _corner.serif;
transform = "{1, 0, 0, 1, 372, 750}";
},
{
name = _corner.serif;
transform = "{-1, 0, 0, 1, 396, 750}";
},
{
name = _corner.serif;
transform = "{-1, 0, 0, -1, 443, 0}";
},
{
name = _corner.serif;
transform = "{1, 0, 0, -1, 330, 0}";
},
{
name = I;
}
);
layerId = "DF3B6806-FBA2-4076-ACB6-E57D7DBFBAC6";
name = "Regular Dec 19 15, 19:01";
paths = (
{
closed = 1;
nodes = (
"372 750 LINE",
"146 305 LINE",
"165 296 LINE",
"396 750 LINE"
);
},
{
closed = 1;
nodes = (
"330 0 LINE",
"443 0 LINE",
"241 464 LINE",
"182 347 LINE"
);
}
);
width = 477;
},
{
anchors = (
{
name = bottom;
position = "{249, 0}";
},
{
name = top;
position = "{249, 750}";
}
);
associatedMasterId = "B5727F16-0A35-4648-A4D9-FB286E4462AB";
components = (
{
name = _corner.serif;
transform = "{1, 0, 0, 1, 372, 750}";
},
{
name = _corner.serif;
transform = "{-1, 0, 0, 1, 396, 750}";
},
{
name = _corner.serif;
transform = "{-1, 0, 0, -1, 443, 0}";
},
{
name = _corner.serif;
transform = "{1, 0, 0, -1, 330, 0}";
},
{
name = I;
}
);
layerId = "C569282A-F74E-4677-B36D-C3051DBBEBD2";
name = "Regular Dec 19 15, 19:01";
paths = (
{
closed = 1;
nodes = (
"372 750 LINE",
"146 305 LINE",
"165 296 LINE",
"396 750 LINE"
);
},
{
closed = 1;
nodes = (
"330 0 LINE",
"443 0 LINE",
"241 464 LINE",
"182 347 LINE"
);
}
);
width = 477;
},
{
anchors = (
{
name = bottom;
position = "{249, 0}";
},
{
name = top;
position = "{249, 750}";
}
);
associatedMasterId = "B5727F16-0A35-4648-A4D9-FB286E4462AB";
components = (
{
name = _corner.serif;
transform = "{1, 0, 0, 1, 372, 750}";
},
{
name = _corner.serif;
transform = "{-1, 0, 0, 1, 396, 750}";
},
{
name = _corner.serif;
transform = "{-1, 0, 0, -1, 443, 0}";
},
{
name = _corner.serif;
transform = "{1, 0, 0, -1, 330, 0}";
},
{
name = I;
}
);
layerId = "B1333C58-1B95-47BC-8AE9-41E87D54D906";
name = "Regular Dec 19 15, 19:01";
paths = (
{
closed = 1;
nodes = (
"372 750 LINE",
"146 305 LINE",
"165 296 LINE",
"396 750 LINE"
);
},
{
closed = 1;
nodes = (
"330 0 LINE",
"443 0 LINE",
"241 464 LINE",
"182 347 LINE"
);
}
);
width = 477;
},
{
anchors = (
{
name = bottom;
position = "{269, 0}";
},
{
name = ogonek;
position = "{309, 8}";
},
{
name = top;
position = "{309, 750}";
},
{
name = topleft;
position = "{60, 750}";
}
);
guideLines = (
{
angle = 61.08;
position = "{269, 419}";
}
);
hints = (
{
origin = "{2, 3}";
type = Corner;
name = _corner.serif;
options = 1;
},
{
origin = "{2, 0}";
scale = "{-1, 1}";
type = Corner;
name = _corner.serif;
options = 1;
},
{
origin = "{1, 1}";
type = Corner;
name = _corner.serif;
options = 1;
},
{
origin = "{0, 3}";
scale = "{-1, 1}";
type = Corner;
name = _corner.serif;
},
{
origin = "{0, 0}";
type = Corner;
name = _corner.serif;
options = 1;
},
{
origin = "{2, 2}";
scale = "{-1, 1}";
type = Corner;
name = _corner.serif;
options = 1;
},
{
origin = "{2, 1}";
type = Corner;
name = _corner.serif;
options = 1;
},
{
origin = "{1, 0}";
scale = "{-1, 1}";
type = Corner;
name = _corner.serif;
}
);
layerId = "B5727F16-0A35-4648-A4D9-FB286E4462AB";
paths = (
{
closed = 1;
nodes = (
"471 750 LINE",
"191 244 LINE",
"210 235 LINE",
"495 750 LINE"
);
},
{
closed = 1;
nodes = (
"424 0 LINE",
"535 0 LINE",
"312 436 LINE",
"249 338 LINE"
);
},
{
closed = 1;
nodes = (
"120 0 LINE",
"220 0 LINE",
"220 750 LINE",
"120 750 LINE"
);
}
);
width = 587;
},
{
anchors = (
{
name = bottom;
position = "{249, 0}";
},
{
name = top;
position = "{249, 750}";
}
);
associatedMasterId = "B5727F16-0A35-4648-A4D9-FB286E4462AB";
components = (
{
name = _corner.serif;
transform = "{1, 0, 0, 1, 372, 750}";
},
{
name = _corner.serif;
transform = "{-1, 0, 0, 1, 396, 750}";
},
{
name = _corner.serif;
transform = "{-1, 0, 0, -1, 443, 0}";
},
{
name = _corner.serif;
transform = "{1, 0, 0, -1, 330, 0}";
},
{
name = I;
}
);
layerId = "66C0E9BF-6B7F-4BAF-A584-3946C0CF6427";
name = "Regular Dec 19 15, 19:01";
paths = (
{
closed = 1;
nodes = (
"372 750 LINE",
"146 305 LINE",
"165 296 LINE",
"396 750 LINE"
);
},
{
closed = 1;
nodes = (
"330 0 LINE",
"443 0 LINE",
"241 464 LINE",
"182 347 LINE"
);
}
);
width = 477;
},
{
anchors = (
{
name = bottom;
position = "{249, 0}";
},
{
name = top;
position = "{249, 750}";
}
);
associatedMasterId = "B5727F16-0A35-4648-A4D9-FB286E4462AB";
components = (
{
name = _corner.serif;
transform = "{1, 0, 0, 1, 372, 750}";
},
{
name = _corner.serif;
transform = "{-1, 0, 0, 1, 396, 750}";
},
{
name = _corner.serif;
transform = "{-1, 0, 0, -1, 443, 0}";
},
{
name = _corner.serif;
transform = "{1, 0, 0, -1, 330, 0}";
},
{
name = I;
}
);
layerId = "7280EA52-0832-4C5A-B2C7-DF12034DBCA8";
name = "Regular Dec 19 15, 19:01";
paths = (
{
closed = 1;
nodes = (
"372 750 LINE",
"146 305 LINE",
"165 296 LINE",
"396 750 LINE"
);
},
{
closed = 1;
nodes = (
"330 0 LINE",
"443 0 LINE",
"241 464 LINE",
"182 347 LINE"
);
}
);
width = 477;
}
);
leftMetricsKey = I;
unicode = 004B;
},
{
glyphname = L;
lastChange = "2017-02-09 01:37:11 +0000";
layers = (
{
anchors = (
{
name = bottom;
position = "{210, 0}";
},
{
name = center;
position = "{175, 380}";
},
{
name = top;
position = "{175, 750}";
}
);
components = (
{
name = I;
}
);
hints = (
{
origin = "{0, 2}";
type = Corner;
name = _corner.serifVerticalBottom;
}
);
layerId = "B5727F16-0A35-4648-A4D9-FB286E4462AB";
paths = (
{
closed = 1;
nodes = (
"141 0 LINE",
"469 0 LINE",
"469 20 LINE",
"141 20 LINE"
);
}
);
width = 499;
}
);
leftMetricsKey = I;
unicode = 004C;
},
{
glyphname = M;
lastChange = "2017-02-09 05:27:28 +0000";
layers = (
{
anchors = (
{
name = bottom;
position = "{355, 0}";
},
{
name = top;
position = "{355, 750}";
}
);
background = {
components = (
{
name = V;
}
);
};
hints = (
{
origin = "{0, 0}";
scale = "{-1, 1}";
type = Corner;
name = _corner.serif;
options = 1;
},
{
origin = "{0, 1}";
type = Corner;
name = _corner.serif;
options = 1;
},
{
origin = "{3, 1}";
type = Corner;
name = _corner.serif;
options = 1;
},
{
origin = "{0, 3}";
type = Corner;
name = _corner.serif;
options = 1;
},
{
origin = "{3, 2}";
scale = "{-1, 1}";
type = Corner;
name = _corner.serif;
options = 1;
},
{
origin = "{3, 0}";
scale = "{-1, 1}";
type = Corner;
name = _corner.serif;
options = 1;
}
);
layerId = "B5727F16-0A35-4648-A4D9-FB286E4462AB";
paths = (
{
closed = 1;
nodes = (
"120 0 LINE",
"140 0 LINE",
"140 750 LINE",
"120 750 LINE"
);
},
{
closed = 1;
nodes = (
"320 -2 LINE",
"339 -2 LINE",
"370 117 LINE",
"374 162 OFFCURVE",
"353 249 OFFCURVE",
"298 458 CURVE SMOOTH",
"221 750 LINE",
"120 750 LINE"
);
},
{
closed = 1;
nodes = (
"490 750 LINE",
"330 -2 LINE",
"351 -2 LINE",
"511 750 LINE"
);
},
{
closed = 1;
nodes = (
"495 0 LINE",
"595 0 LINE",
"595 750 LINE",
"495 750 LINE"
);
}
);
width = 715;
}
);
leftMetricsKey = I;
rightMetricsKey = I;
unicode = 004D;
},
{
glyphname = N;
lastChange = "2017-02-09 02:07:40 +0000";
layers = (
{
anchors = (
{
name = bottom;
position = "{258, 0}";
},
{
name = top;
position = "{258, 750}";
}
);
associatedMasterId = "B5727F16-0A35-4648-A4D9-FB286E4462AB";
components = (
{
name = _corner.serif;
transform = "{1, 0, 0, 1, 90, 750}";
},
{
name = _corner.serif;
transform = "{-1, 0, 0, 1, 425, 750}";
},
{
name = _corner.serif;
transform = "{1, 0, 0, -1, 90, 0}";
},
{
name = _corner.serif;
transform = "{-1, 0, 0, -1, 110, 0}";
},
{
name = _corner.serif;
transform = "{1, 0, 0, 1, 405, 750}";
}
);
layerId = "523429CB-95A5-460D-971F-C00E732D2B7E";
name = "Regular Dec 25 15, 19:37";
paths = (
{
closed = 1;
nodes = (
"90 0 LINE",
"110 0 LINE",
"110 750 LINE",
"90 750 LINE"
);
},
{
closed = 1;
nodes = (
"90 693 LINE",
"405 -10 LINE",
"415 219 LINE",
"180 750 LINE",
"90 750 LINE"
);
},
{
closed = 1;
nodes = (
"405 -10 LINE",
"425 -10 LINE",
"425 750 LINE",
"405 750 LINE"
);
}
);
width = 515;
},
{
anchors = (
{
name = bottom;
position = "{258, 0}";
},
{
name = top;
position = "{258, 750}";
}
);
associatedMasterId = "B5727F16-0A35-4648-A4D9-FB286E4462AB";
components = (
{
name = _corner.serif;
transform = "{1, 0, 0, 1, 90, 750}";
},
{
name = _corner.serif;
transform = "{-1, 0, 0, 1, 425, 750}";
},
{
name = _corner.serif;
transform = "{1, 0, 0, -1, 90, 0}";
},
{
name = _corner.serif;
transform = "{-1, 0, 0, -1, 110, 0}";
},
{
name = _corner.serif;
transform = "{1, 0, 0, 1, 405, 750}";
}
);
layerId = "E8B5A492-CC4C-4A71-9B92-D68B52FBFFED";
name = "Regular Dec 25 15, 19:37";
paths = (
{
closed = 1;
nodes = (
"90 0 LINE",
"110 0 LINE",
"110 750 LINE",
"90 750 LINE"
);
},
{
closed = 1;
nodes = (
"90 693 LINE",
"405 -10 LINE",
"415 219 LINE",
"180 750 LINE",
"90 750 LINE"
);
},
{
closed = 1;
nodes = (
"405 -10 LINE",
"425 -10 LINE",
"425 750 LINE",
"405 750 LINE"
);
}
);
width = 515;
},
{
anchors = (
{
name = bottom;
position = "{258, 0}";
},
{
name = top;
position = "{258, 750}";
}
);
associatedMasterId = "B5727F16-0A35-4648-A4D9-FB286E4462AB";
components = (
{
name = _corner.serif;
transform = "{1, 0, 0, 1, 90, 750}";
},
{
name = _corner.serif;
transform = "{-1, 0, 0, 1, 425, 750}";
},
{
name = _corner.serif;
transform = "{1, 0, 0, -1, 90, 0}";
},
{
name = _corner.serif;
transform = "{-1, 0, 0, -1, 110, 0}";
},
{
name = _corner.serif;
transform = "{1, 0, 0, 1, 405, 750}";
}
);
layerId = "7EF77070-72A0-4AF4-B5EA-AB474367F9E2";
name = "Regular Dec 25 15, 19:37";
paths = (
{
closed = 1;
nodes = (
"90 0 LINE",
"110 0 LINE",
"110 750 LINE",
"90 750 LINE"
);
},
{
closed = 1;
nodes = (
"90 693 LINE",
"405 -10 LINE",
"415 219 LINE",
"180 750 LINE",
"90 750 LINE"
);
},
{
closed = 1;
nodes = (
"405 -10 LINE",
"425 -10 LINE",
"425 750 LINE",
"405 750 LINE"
);
}
);
width = 515;
},
{
anchors = (
{
name = bottom;
position = "{258, 0}";
},
{
name = top;
position = "{258, 750}";
}
);
associatedMasterId = "B5727F16-0A35-4648-A4D9-FB286E4462AB";
components = (
{
name = _corner.serif;
transform = "{1, 0, 0, 1, 90, 750}";
},
{
name = _corner.serif;
transform = "{-1, 0, 0, 1, 425, 750}";
},
{
name = _corner.serif;
transform = "{1, 0, 0, -1, 90, 0}";
},
{
name = _corner.serif;
transform = "{-1, 0, 0, -1, 110, 0}";
},
{
name = _corner.serif;
transform = "{1, 0, 0, 1, 405, 750}";
}
);
layerId = "E16766A6-79D7-4E4F-BC65-FAEE972515F8";
name = "Regular Dec 25 15, 19:37";
paths = (
{
closed = 1;
nodes = (
"90 0 LINE",
"110 0 LINE",
"110 750 LINE",
"90 750 LINE"
);
},
{
closed = 1;
nodes = (
"90 693 LINE",
"405 -10 LINE",
"415 219 LINE",
"180 750 LINE",
"90 750 LINE"
);
},
{
closed = 1;
nodes = (
"405 -10 LINE",
"425 -10 LINE",
"425 750 LINE",
"405 750 LINE"
);
}
);
width = 515;
},
{
anchors = (
{
name = bottom;
position = "{318, 0}";
},
{
name = top;
position = "{318, 750}";
}
);
hints = (
{
origin = "{2, 3}";
type = Corner;
name = _corner.serif;
options = 1;
},
{
origin = "{0, 3}";
type = Corner;
name = _corner.serif;
options = 1;
},
{
origin = "{0, 1}";
type = Corner;
name = _corner.serif;
options = 1;
},
{
origin = "{0, 0}";
scale = "{-1, 1}";
type = Corner;
name = _corner.serif;
options = 1;
},
{
origin = "{2, 2}";
scale = "{-1, 1}";
type = Corner;
name = _corner.serif;
options = 1;
}
);
layerId = "B5727F16-0A35-4648-A4D9-FB286E4462AB";
paths = (
{
closed = 1;
nodes = (
"120 0 LINE",
"140 0 LINE",
"140 750 LINE",
"120 750 LINE"
);
},
{
closed = 1;
nodes = (
"139 632 LINE",
"455 -10 LINE",
"465 209 LINE",
"207 750 LINE",
"120 750 LINE"
);
},
{
closed = 1;
nodes = (
"455 -10 LINE",
"475 -10 LINE",
"475 750 LINE",
"455 750 LINE"
);
}
);
width = 575;
},
{
anchors = (
{
name = bottom;
position = "{258, 0}";
},
{
name = top;
position = "{258, 750}";
}
);
associatedMasterId = "B5727F16-0A35-4648-A4D9-FB286E4462AB";
components = (
{
name = _corner.serif;
transform = "{1, 0, 0, 1, 90, 750}";
},
{
name = _corner.serif;
transform = "{-1, 0, 0, 1, 425, 750}";
},
{
name = _corner.serif;
transform = "{1, 0, 0, -1, 90, 0}";
},
{
name = _corner.serif;
transform = "{-1, 0, 0, -1, 110, 0}";
},
{
name = _corner.serif;
transform = "{1, 0, 0, 1, 405, 750}";
}
);
layerId = "B0137047-7D7A-435D-8550-2ACB6BBD7EE1";
name = "Regular Dec 25 15, 19:37";
paths = (
{
closed = 1;
nodes = (
"90 0 LINE",
"110 0 LINE",
"110 750 LINE",
"90 750 LINE"
);
},
{
closed = 1;
nodes = (
"90 693 LINE",
"405 -10 LINE",
"415 219 LINE",
"180 750 LINE",
"90 750 LINE"
);
},
{
closed = 1;
nodes = (
"405 -10 LINE",
"425 -10 LINE",
"425 750 LINE",
"405 750 LINE"
);
}
);
width = 515;
},
{
anchors = (
{
name = bottom;
position = "{258, 0}";
},
{
name = top;
position = "{258, 750}";
}
);
associatedMasterId = "B5727F16-0A35-4648-A4D9-FB286E4462AB";
components = (
{
name = _corner.serif;
transform = "{1, 0, 0, 1, 90, 750}";
},
{
name = _corner.serif;
transform = "{-1, 0, 0, 1, 425, 750}";
},
{
name = _corner.serif;
transform = "{1, 0, 0, -1, 90, 0}";
},
{
name = _corner.serif;
transform = "{-1, 0, 0, -1, 110, 0}";
},
{
name = _corner.serif;
transform = "{1, 0, 0, 1, 405, 750}";
}
);
layerId = "C79CBC87-5CC9-4459-8AF9-BED7BF390ABA";
name = "Regular Dec 25 15, 19:37";
paths = (
{
closed = 1;
nodes = (
"90 0 LINE",
"110 0 LINE",
"110 750 LINE",
"90 750 LINE"
);
},
{
closed = 1;
nodes = (
"90 693 LINE",
"405 -10 LINE",
"415 219 LINE",
"180 750 LINE",
"90 750 LINE"
);
},
{
closed = 1;
nodes = (
"405 -10 LINE",
"425 -10 LINE",
"425 750 LINE",
"405 750 LINE"
);
}
);
width = 515;
}
);
leftMetricsKey = I;
rightMetricsKey = "=I-20";
unicode = 004E;
},
{
glyphname = Eng;
lastChange = "2017-02-09 02:18:12 +0000";
layers = (
{
components = (
{
name = N;
}
);
layerId = "B5727F16-0A35-4648-A4D9-FB286E4462AB";
paths = (
{
closed = 1;
nodes = (
"483 -150 OFFCURVE",
"475 -30 OFFCURVE",
"475 0 CURVE",
"370 167 LINE",
"445 9 OFFCURVE",
"481 -127 OFFCURVE",
"363 -150 CURVE",
"369 -170 LINE"
);
}
);
width = 575;
}
);
leftMetricsKey = N;
rightMetricsKey = N;
unicode = 014A;
},
{
glyphname = O;
lastChange = "2016-01-22 22:16:38 +0000";
layers = (
{
anchors = (
{
name = bottom;
position = "{260, 0}";
},
{
name = center;
position = "{260, 375}";
},
{
name = ogonek;
position = "{440, 10}";
},
{
name = top;
position = "{260, 750}";
},
{
name = topleft;
position = "{55, 750}";
},
{
name = topright;
position = "{411, 648}";
}
);
layerId = "B5727F16-0A35-4648-A4D9-FB286E4462AB";
paths = (
{
closed = 1;
nodes = (
"386 -10 OFFCURVE",
"470 144 OFFCURVE",
"470 375 CURVE SMOOTH",
"470 605 OFFCURVE",
"386 759 OFFCURVE",
"260 759 CURVE SMOOTH",
"134 759 OFFCURVE",
"50 605 OFFCURVE",
"50 375 CURVE SMOOTH",
"50 144 OFFCURVE",
"134 -10 OFFCURVE",
"260 -10 CURVE SMOOTH"
);
},
{
closed = 1;
nodes = (
"184 8 OFFCURVE",
"165 81 OFFCURVE",
"165 375 CURVE SMOOTH",
"165 668 OFFCURVE",
"184 741 OFFCURVE",
"260 741 CURVE SMOOTH",
"336 741 OFFCURVE",
"355 668 OFFCURVE",
"355 375 CURVE SMOOTH",
"355 81 OFFCURVE",
"336 8 OFFCURVE",
"260 8 CURVE SMOOTH"
);
}
);
width = 520;
}
);
unicode = 004F;
},
{
glyphname = OE;
lastChange = "2017-02-11 08:34:26 +0000";
layers = (
{
anchors = (
{
name = bottom;
position = "{391, 0}";
},
{
name = top;
position = "{440, 750}";
}
);
background = {
components = (
{
name = I;
}
);
};
components = (
{
alignment = -1;
name = D;
transform = "{-1, 0, 0, 1, 570, 0}";
}
);
hints = (
{
origin = "{0, 2}";
type = Corner;
name = _corner.serifVerticalBottom;
},
{
origin = "{2, 1}";
scale = "{-1, 1}";
type = Corner;
name = _corner.serifVertical;
options = 1;
},
{
origin = "{2, 2}";
type = Corner;
name = _corner.serifVertical;
options = 1;
},
{
origin = "{1, 1}";
scale = "{-1, 1}";
type = Corner;
name = _corner.serifVertical;
options = 1;
}
);
layerId = "B5727F16-0A35-4648-A4D9-FB286E4462AB";
paths = (
{
closed = 1;
nodes = (
"391 0 LINE",
"669 0 LINE",
"669 20 LINE",
"391 20 LINE"
);
},
{
closed = 1;
nodes = (
"411 730 LINE",
"659 730 LINE",
"659 750 LINE",
"411 750 LINE"
);
},
{
closed = 1;
nodes = (
"393 370 LINE",
"569 370 LINE",
"569 390 LINE",
"393 390 LINE"
);
}
);
width = 699;
}
);
leftMetricsKey = O;
rightMetricsKey = E;
unicode = 0152;
},
{
glyphname = P;
lastChange = "2017-02-09 02:50:43 +0000";
layers = (
{
anchors = (
{
name = bottom;
position = "{208, 0}";
},
{
name = top;
position = "{208, 700}";
}
);
associatedMasterId = "B5727F16-0A35-4648-A4D9-FB286E4462AB";
components = (
{
name = I;
}
);
layerId = "B31504EE-22BD-4E31-9B8F-4214603C09E9";
name = "Regular Dec 16 15, 15:47";
paths = (
{
closed = 1;
nodes = (
"200 680 LINE",
"274 680 OFFCURVE",
"315 647 OFFCURVE",
"315 505 CURVE SMOOTH",
"315 363 OFFCURVE",
"274 330 OFFCURVE",
"200 330 CURVE",
"166 330 LINE",
"166 310 LINE",
"240 310 LINE",
"345 310 OFFCURVE",
"425 373 OFFCURVE",
"425 505 CURVE SMOOTH",
"425 637 OFFCURVE",
"345 700 OFFCURVE",
"240 700 CURVE"
);
}
);
width = 435;
},
{
anchors = (
{
name = bottom;
position = "{218, 0}";
},
{
name = top;
position = "{218, 750}";
}
);
associatedMasterId = "B5727F16-0A35-4648-A4D9-FB286E4462AB";
components = (
{
name = I;
}
);
layerId = "6B965B55-CAA8-4917-BEB8-6B18063B4BE2";
name = "Regular Dec 19 15, 04:20";
paths = (
{
closed = 1;
nodes = (
"200 730 LINE",
"274 730 OFFCURVE",
"315 689 OFFCURVE",
"315 560 CURVE SMOOTH",
"315 431 OFFCURVE",
"274 390 OFFCURVE",
"200 390 CURVE",
"166 390 LINE",
"166 370 LINE",
"240 370 LINE SMOOTH",
"345 370 OFFCURVE",
"425 443 OFFCURVE",
"425 560 CURVE SMOOTH",
"425 677 OFFCURVE",
"345 750 OFFCURVE",
"240 750 CURVE"
);
}
);
width = 435;
},
{
anchors = (
{
name = bottom;
position = "{218, 0}";
},
{
name = top;
position = "{218, 750}";
}
);
associatedMasterId = "B5727F16-0A35-4648-A4D9-FB286E4462AB";
components = (
{
name = I;
}
);
layerId = "D060C061-453D-4773-BCC1-C7345B9A85A5";
name = "Regular Dec 19 15, 04:20";
paths = (
{
closed = 1;
nodes = (
"200 730 LINE",
"274 730 OFFCURVE",
"315 689 OFFCURVE",
"315 560 CURVE SMOOTH",
"315 431 OFFCURVE",
"274 390 OFFCURVE",
"200 390 CURVE",
"166 390 LINE",
"166 370 LINE",
"240 370 LINE SMOOTH",
"345 370 OFFCURVE",
"425 443 OFFCURVE",
"425 560 CURVE SMOOTH",
"425 677 OFFCURVE",
"345 750 OFFCURVE",
"240 750 CURVE"
);
}
);
width = 435;
},
{
anchors = (
{
name = bottom;
position = "{208, 0}";
},
{
name = top;
position = "{208, 700}";
}
);
associatedMasterId = "B5727F16-0A35-4648-A4D9-FB286E4462AB";
components = (
{
name = I;
}
);
layerId = "10B63D4C-2918-4D50-9052-3F0F42655F31";
name = "Regular Dec 16 15, 15:47";
paths = (
{
closed = 1;
nodes = (
"200 680 LINE",
"274 680 OFFCURVE",
"315 647 OFFCURVE",
"315 505 CURVE SMOOTH",
"315 363 OFFCURVE",
"274 330 OFFCURVE",
"200 330 CURVE",
"166 330 LINE",
"166 310 LINE",
"240 310 LINE",
"345 310 OFFCURVE",
"425 373 OFFCURVE",
"425 505 CURVE SMOOTH",
"425 637 OFFCURVE",
"345 700 OFFCURVE",
"240 700 CURVE"
);
}
);
width = 435;
},
{
anchors = (
{
name = bottom;
position = "{218, 0}";
},
{
name = top;
position = "{218, 750}";
}
);
associatedMasterId = "B5727F16-0A35-4648-A4D9-FB286E4462AB";
components = (
{
name = I;
}
);
layerId = "F675585D-FC41-4168-961C-19D2AC56F36D";
name = "Regular Dec 19 15, 04:20";
paths = (
{
closed = 1;
nodes = (
"200 730 LINE",
"274 730 OFFCURVE",
"315 689 OFFCURVE",
"315 560 CURVE SMOOTH",
"315 431 OFFCURVE",
"274 390 OFFCURVE",
"200 390 CURVE",
"166 390 LINE",
"166 370 LINE",
"240 370 LINE SMOOTH",
"345 370 OFFCURVE",
"425 443 OFFCURVE",
"425 560 CURVE SMOOTH",
"425 677 OFFCURVE",
"345 750 OFFCURVE",
"240 750 CURVE"
);
}
);
width = 435;
},
{
anchors = (
{
name = bottom;
position = "{218, 0}";
},
{
name = top;
position = "{218, 750}";
}
);
associatedMasterId = "B5727F16-0A35-4648-A4D9-FB286E4462AB";
components = (
{
name = I;
}
);
layerId = "3CF07E20-57B4-41C7-A56F-E7E6992FAD18";
name = "Regular Dec 19 15, 04:20";
paths = (
{
closed = 1;
nodes = (
"200 730 LINE",
"274 730 OFFCURVE",
"315 689 OFFCURVE",
"315 560 CURVE SMOOTH",
"315 431 OFFCURVE",
"274 390 OFFCURVE",
"200 390 CURVE",
"166 390 LINE",
"166 370 LINE",
"240 370 LINE SMOOTH",
"345 370 OFFCURVE",
"425 443 OFFCURVE",
"425 560 CURVE SMOOTH",
"425 677 OFFCURVE",
"345 750 OFFCURVE",
"240 750 CURVE"
);
}
);
width = 435;
},
{
anchors = (
{
name = bottom;
position = "{208, 0}";
},
{
name = top;
position = "{208, 700}";
}
);
associatedMasterId = "B5727F16-0A35-4648-A4D9-FB286E4462AB";
components = (
{
name = I;
}
);
layerId = "15477A1B-808B-48B4-8465-8642725C69B4";
name = "Regular Dec 16 15, 15:47";
paths = (
{
closed = 1;
nodes = (
"200 680 LINE",
"274 680 OFFCURVE",
"315 647 OFFCURVE",
"315 505 CURVE SMOOTH",
"315 363 OFFCURVE",
"274 330 OFFCURVE",
"200 330 CURVE",
"166 330 LINE",
"166 310 LINE",
"240 310 LINE",
"345 310 OFFCURVE",
"425 373 OFFCURVE",
"425 505 CURVE SMOOTH",
"425 637 OFFCURVE",
"345 700 OFFCURVE",
"240 700 CURVE"
);
}
);
width = 435;
},
{
anchors = (
{
name = bottom;
position = "{218, 0}";
},
{
name = top;
position = "{218, 750}";
}
);
associatedMasterId = "B5727F16-0A35-4648-A4D9-FB286E4462AB";
components = (
{
name = I;
}
);
layerId = "092CD068-D28D-4C8F-8FE2-0DF8C412E99C";
name = "Regular Dec 19 15, 04:20";
paths = (
{
closed = 1;
nodes = (
"200 730 LINE",
"274 730 OFFCURVE",
"315 689 OFFCURVE",
"315 560 CURVE SMOOTH",
"315 431 OFFCURVE",
"274 390 OFFCURVE",
"200 390 CURVE",
"166 390 LINE",
"166 370 LINE",
"240 370 LINE SMOOTH",
"345 370 OFFCURVE",
"425 443 OFFCURVE",
"425 560 CURVE SMOOTH",
"425 677 OFFCURVE",
"345 750 OFFCURVE",
"240 750 CURVE"
);
}
);
width = 435;
},
{
anchors = (
{
name = bottom;
position = "{218, 0}";
},
{
name = top;
position = "{218, 750}";
}
);
associatedMasterId = "B5727F16-0A35-4648-A4D9-FB286E4462AB";
components = (
{
name = I;
}
);
layerId = "C737887E-AD9F-4E24-BDF4-939612AAA474";
name = "Regular Dec 19 15, 04:20";
paths = (
{
closed = 1;
nodes = (
"200 730 LINE",
"274 730 OFFCURVE",
"315 689 OFFCURVE",
"315 560 CURVE SMOOTH",
"315 431 OFFCURVE",
"274 390 OFFCURVE",
"200 390 CURVE",
"166 390 LINE",
"166 370 LINE",
"240 370 LINE SMOOTH",
"345 370 OFFCURVE",
"425 443 OFFCURVE",
"425 560 CURVE SMOOTH",
"425 677 OFFCURVE",
"345 750 OFFCURVE",
"240 750 CURVE"
);
}
);
width = 435;
},
{
anchors = (
{
name = bottom;
position = "{208, 0}";
},
{
name = top;
position = "{208, 700}";
}
);
associatedMasterId = "B5727F16-0A35-4648-A4D9-FB286E4462AB";
components = (
{
name = I;
}
);
layerId = "C6E003CC-1EEC-4BAE-B16E-9813C2E0E449";
name = "Regular Dec 16 15, 15:47";
paths = (
{
closed = 1;
nodes = (
"200 680 LINE",
"274 680 OFFCURVE",
"315 647 OFFCURVE",
"315 505 CURVE SMOOTH",
"315 363 OFFCURVE",
"274 330 OFFCURVE",
"200 330 CURVE",
"166 330 LINE",
"166 310 LINE",
"240 310 LINE",
"345 310 OFFCURVE",
"425 373 OFFCURVE",
"425 505 CURVE SMOOTH",
"425 637 OFFCURVE",
"345 700 OFFCURVE",
"240 700 CURVE"
);
}
);
width = 435;
},
{
anchors = (
{
name = bottom;
position = "{218, 0}";
},
{
name = top;
position = "{218, 750}";
}
);
associatedMasterId = "B5727F16-0A35-4648-A4D9-FB286E4462AB";
components = (
{
name = I;
}
);
layerId = "52073AD7-F5D1-4F37-82AE-619CB849F230";
name = "Regular Dec 19 15, 04:20";
paths = (
{
closed = 1;
nodes = (
"200 730 LINE",
"274 730 OFFCURVE",
"315 689 OFFCURVE",
"315 560 CURVE SMOOTH",
"315 431 OFFCURVE",
"274 390 OFFCURVE",
"200 390 CURVE",
"166 390 LINE",
"166 370 LINE",
"240 370 LINE SMOOTH",
"345 370 OFFCURVE",
"425 443 OFFCURVE",
"425 560 CURVE SMOOTH",
"425 677 OFFCURVE",
"345 750 OFFCURVE",
"240 750 CURVE"
);
}
);
width = 435;
},
{
anchors = (
{
name = bottom;
position = "{218, 0}";
},
{
name = top;
position = "{218, 750}";
}
);
associatedMasterId = "B5727F16-0A35-4648-A4D9-FB286E4462AB";
components = (
{
name = I;
}
);
layerId = "1BF776BA-F530-4192-86CC-A73C0BC4DCF8";
name = "Regular Dec 19 15, 04:20";
paths = (
{
closed = 1;
nodes = (
"200 730 LINE",
"274 730 OFFCURVE",
"315 689 OFFCURVE",
"315 560 CURVE SMOOTH",
"315 431 OFFCURVE",
"274 390 OFFCURVE",
"200 390 CURVE",
"166 390 LINE",
"166 370 LINE",
"240 370 LINE SMOOTH",
"345 370 OFFCURVE",
"425 443 OFFCURVE",
"425 560 CURVE SMOOTH",
"425 677 OFFCURVE",
"345 750 OFFCURVE",
"240 750 CURVE"
);
}
);
width = 435;
},
{
anchors = (
{
name = bottom;
position = "{248, 0}";
},
{
name = top;
position = "{248, 750}";
},
{
name = topleft;
position = "{60, 750}";
}
);
hints = (
{
origin = "{1, 3}";
type = Corner;
name = _corner.serif;
},
{
origin = "{1, 0}";
scale = "{-1, 1}";
type = Corner;
name = _corner.serif;
options = 1;
},
{
origin = "{1, 1}";
type = Corner;
name = _corner.serif;
}
);
layerId = "B5727F16-0A35-4648-A4D9-FB286E4462AB";
paths = (
{
closed = 1;
nodes = (
"171 730 LINE",
"230 730 LINE SMOOTH",
"314 730 OFFCURVE",
"355 671 OFFCURVE",
"355 550 CURVE SMOOTH",
"355 429 OFFCURVE",
"314 370 OFFCURVE",
"230 370 CURVE SMOOTH",
"171 370 LINE",
"171 352 LINE",
"250 352 LINE SMOOTH",
"381 352 OFFCURVE",
"465 429 OFFCURVE",
"465 550 CURVE SMOOTH",
"465 672 OFFCURVE",
"381 750 OFFCURVE",
"250 750 CURVE SMOOTH",
"171 750 LINE"
);
},
{
closed = 1;
nodes = (
"120 0 LINE",
"220 0 LINE",
"220 750 LINE",
"120 750 LINE"
);
}
);
width = 505;
},
{
anchors = (
{
name = bottom;
position = "{208, 0}";
},
{
name = top;
position = "{208, 700}";
}
);
associatedMasterId = "B5727F16-0A35-4648-A4D9-FB286E4462AB";
components = (
{
name = I;
}
);
layerId = "D827222A-98B3-483F-B14C-253272186790";
name = "Regular Dec 16 15, 15:47";
paths = (
{
closed = 1;
nodes = (
"200 680 LINE",
"274 680 OFFCURVE",
"315 647 OFFCURVE",
"315 505 CURVE SMOOTH",
"315 363 OFFCURVE",
"274 330 OFFCURVE",
"200 330 CURVE",
"166 330 LINE",
"166 310 LINE",
"240 310 LINE",
"345 310 OFFCURVE",
"425 373 OFFCURVE",
"425 505 CURVE SMOOTH",
"425 637 OFFCURVE",
"345 700 OFFCURVE",
"240 700 CURVE"
);
}
);
width = 435;
},
{
anchors = (
{
name = bottom;
position = "{218, 0}";
},
{
name = top;
position = "{218, 750}";
}
);
associatedMasterId = "B5727F16-0A35-4648-A4D9-FB286E4462AB";
components = (
{
name = I;
}
);
layerId = "3DE9CCAB-94FA-41CC-8F50-D3F95ABA5DB4";
name = "Regular Dec 19 15, 04:20";
paths = (
{
closed = 1;
nodes = (
"200 730 LINE",
"274 730 OFFCURVE",
"315 689 OFFCURVE",
"315 560 CURVE SMOOTH",
"315 431 OFFCURVE",
"274 390 OFFCURVE",
"200 390 CURVE",
"166 390 LINE",
"166 370 LINE",
"240 370 LINE SMOOTH",
"345 370 OFFCURVE",
"425 443 OFFCURVE",
"425 560 CURVE SMOOTH",
"425 677 OFFCURVE",
"345 750 OFFCURVE",
"240 750 CURVE"
);
}
);
width = 435;
},
{
anchors = (
{
name = bottom;
position = "{218, 0}";
},
{
name = top;
position = "{218, 750}";
}
);
associatedMasterId = "B5727F16-0A35-4648-A4D9-FB286E4462AB";
components = (
{
name = I;
}
);
layerId = "832F4DDB-BCFB-4A75-A8C2-143023807666";
name = "Regular Dec 19 15, 04:20";
paths = (
{
closed = 1;
nodes = (
"200 730 LINE",
"274 730 OFFCURVE",
"315 689 OFFCURVE",
"315 560 CURVE SMOOTH",
"315 431 OFFCURVE",
"274 390 OFFCURVE",
"200 390 CURVE",
"166 390 LINE",
"166 370 LINE",
"240 370 LINE SMOOTH",
"345 370 OFFCURVE",
"425 443 OFFCURVE",
"425 560 CURVE SMOOTH",
"425 677 OFFCURVE",
"345 750 OFFCURVE",
"240 750 CURVE"
);
}
);
width = 435;
},
{
anchors = (
{
name = bottom;
position = "{208, 0}";
},
{
name = top;
position = "{208, 700}";
}
);
associatedMasterId = "B5727F16-0A35-4648-A4D9-FB286E4462AB";
components = (
{
name = I;
}
);
layerId = "6093EA19-14BC-4D5C-BB37-055DC02EDC52";
name = "Regular Dec 16 15, 15:47";
paths = (
{
closed = 1;
nodes = (
"200 680 LINE",
"274 680 OFFCURVE",
"315 647 OFFCURVE",
"315 505 CURVE SMOOTH",
"315 363 OFFCURVE",
"274 330 OFFCURVE",
"200 330 CURVE",
"166 330 LINE",
"166 310 LINE",
"240 310 LINE",
"345 310 OFFCURVE",
"425 373 OFFCURVE",
"425 505 CURVE SMOOTH",
"425 637 OFFCURVE",
"345 700 OFFCURVE",
"240 700 CURVE"
);
}
);
width = 435;
},
{
anchors = (
{
name = bottom;
position = "{218, 0}";
},
{
name = top;
position = "{218, 750}";
}
);
associatedMasterId = "B5727F16-0A35-4648-A4D9-FB286E4462AB";
components = (
{
name = I;
}
);
layerId = "F469226A-E088-407C-AC8B-749377D269AE";
name = "Regular Dec 19 15, 04:20";
paths = (
{
closed = 1;
nodes = (
"200 730 LINE",
"274 730 OFFCURVE",
"315 689 OFFCURVE",
"315 560 CURVE SMOOTH",
"315 431 OFFCURVE",
"274 390 OFFCURVE",
"200 390 CURVE",
"166 390 LINE",
"166 370 LINE",
"240 370 LINE SMOOTH",
"345 370 OFFCURVE",
"425 443 OFFCURVE",
"425 560 CURVE SMOOTH",
"425 677 OFFCURVE",
"345 750 OFFCURVE",
"240 750 CURVE"
);
}
);
width = 435;
},
{
anchors = (
{
name = bottom;
position = "{218, 0}";
},
{
name = top;
position = "{218, 750}";
}
);
associatedMasterId = "B5727F16-0A35-4648-A4D9-FB286E4462AB";
components = (
{
name = I;
}
);
layerId = "B911D1CB-11A8-4198-BD22-DE83FE994C2C";
name = "Regular Dec 19 15, 04:20";
paths = (
{
closed = 1;
nodes = (
"200 730 LINE",
"274 730 OFFCURVE",
"315 689 OFFCURVE",
"315 560 CURVE SMOOTH",
"315 431 OFFCURVE",
"274 390 OFFCURVE",
"200 390 CURVE",
"166 390 LINE",
"166 370 LINE",
"240 370 LINE SMOOTH",
"345 370 OFFCURVE",
"425 443 OFFCURVE",
"425 560 CURVE SMOOTH",
"425 677 OFFCURVE",
"345 750 OFFCURVE",
"240 750 CURVE"
);
}
);
width = 435;
},
{
anchors = (
{
name = bottom;
position = "{248, 0}";
},
{
name = top;
position = "{248, 750}";
}
);
associatedMasterId = "B5727F16-0A35-4648-A4D9-FB286E4462AB";
components = (
{
name = I;
}
);
layerId = "A55BE9FC-D5B7-4F36-A90B-C9AFE69EB10B";
name = "Feb 8 17, 20:59";
paths = (
{
closed = 1;
nodes = (
"250 730 LINE",
"326 730 OFFCURVE",
"355 696 OFFCURVE",
"355 560 CURVE SMOOTH",
"355 424 OFFCURVE",
"326 390 OFFCURVE",
"230 390 CURVE",
"166 390 LINE",
"166 372 LINE",
"200 370 LINE SMOOTH",
"361 361 OFFCURVE",
"465 433 OFFCURVE",
"465 560 CURVE SMOOTH",
"465 674 OFFCURVE",
"389 750 OFFCURVE",
"290 750 CURVE"
);
}
);
width = 505;
}
);
leftMetricsKey = I;
unicode = 0050;
},
{
glyphname = Thorn;
lastChange = "2016-07-25 15:24:41 +0000";
layers = (
{
anchors = (
{
name = bottom;
position = "{300, 0}";
},
{
name = top;
position = "{300, 750}";
}
);
components = (
{
name = I;
}
);
layerId = "B5727F16-0A35-4648-A4D9-FB286E4462AB";
paths = (
{
closed = 1;
nodes = (
"200 570 LINE",
"200 550 LINE",
"240 550 LINE SMOOTH",
"314 550 OFFCURVE",
"355 509 OFFCURVE",
"355 380 CURVE SMOOTH",
"355 251 OFFCURVE",
"314 210 OFFCURVE",
"240 210 CURVE",
"206 210 LINE",
"206 190 LINE",
"230 188 LINE SMOOTH",
"385 175 OFFCURVE",
"465 253 OFFCURVE",
"465 380 CURVE SMOOTH",
"465 497 OFFCURVE",
"385 582 OFFCURVE",
"230 572 CURVE SMOOTH"
);
}
);
width = 505;
}
);
leftMetricsKey = I;
unicode = 00DE;
},
{
glyphname = R;
lastChange = "2017-02-09 05:14:22 +0000";
layers = (
{
anchors = (
{
name = bottom;
position = "{247, 0}";
},
{
name = top;
position = "{247, 750}";
}
);
associatedMasterId = "B5727F16-0A35-4648-A4D9-FB286E4462AB";
components = (
{
name = P;
}
);
layerId = "8998FB9D-74FC-4046-B839-E55C72AC7DC4";
name = "Regular Dec 24 15, 15:57";
paths = (
{
closed = 1;
nodes = (
"502 41 LINE",
"491 26 OFFCURVE",
"479 20 OFFCURVE",
"466 20 CURVE SMOOTH",
"441 20 OFFCURVE",
"428 49 OFFCURVE",
"430 159 CURVE SMOOTH",
"432 280 OFFCURVE",
"385 374 OFFCURVE",
"232 378 CURVE SMOOTH",
"157 380 LINE",
"157 370 LINE",
"211 367 LINE SMOOTH",
"294 362 OFFCURVE",
"325 322 OFFCURVE",
"320 179 CURVE SMOOTH",
"315 29 OFFCURVE",
"362 -10 OFFCURVE",
"428 -10 CURVE SMOOTH",
"488 -10 OFFCURVE",
"503 10 OFFCURVE",
"515 34 CURVE"
);
}
);
width = 515;
},
{
anchors = (
{
name = bottom;
position = "{247, 0}";
},
{
name = top;
position = "{247, 750}";
}
);
associatedMasterId = "B5727F16-0A35-4648-A4D9-FB286E4462AB";
components = (
{
name = P;
}
);
layerId = "1A04EDE2-56F3-4447-A101-5DF5D8ABC5C3";
name = "Regular Dec 24 15, 15:57";
paths = (
{
closed = 1;
nodes = (
"502 41 LINE",
"491 26 OFFCURVE",
"479 20 OFFCURVE",
"466 20 CURVE SMOOTH",
"441 20 OFFCURVE",
"428 49 OFFCURVE",
"430 159 CURVE SMOOTH",
"432 280 OFFCURVE",
"385 374 OFFCURVE",
"232 378 CURVE SMOOTH",
"157 380 LINE",
"157 370 LINE",
"211 367 LINE SMOOTH",
"294 362 OFFCURVE",
"325 322 OFFCURVE",
"320 179 CURVE SMOOTH",
"315 29 OFFCURVE",
"362 -10 OFFCURVE",
"428 -10 CURVE SMOOTH",
"488 -10 OFFCURVE",
"503 10 OFFCURVE",
"515 34 CURVE"
);
}
);
width = 515;
},
{
anchors = (
{
name = bottom;
position = "{287, 0}";
},
{
name = top;
position = "{287, 750}";
}
);
associatedMasterId = "B5727F16-0A35-4648-A4D9-FB286E4462AB";
background = {
components = (
{
name = B;
}
);
};
components = (
{
name = I;
}
);
layerId = "204F687C-30AE-4B91-9F93-BBDB440B0373";
name = "SemiCondensed Dec 28 15, 16:36";
paths = (
{
closed = 1;
nodes = (
"545 41 LINE",
"534 26 OFFCURVE",
"527 20 OFFCURVE",
"514 20 CURVE SMOOTH",
"489 20 OFFCURVE",
"478 49 OFFCURVE",
"479 159 CURVE SMOOTH",
"480 306 OFFCURVE",
"452 409 OFFCURVE",
"232 409 CURVE SMOOTH",
"157 409 LINE",
"157 403 LINE",
"211 401 LINE SMOOTH",
"362 395 OFFCURVE",
"380 332 OFFCURVE",
"374 179 CURVE SMOOTH",
"368 29 OFFCURVE",
"410 -10 OFFCURVE",
"476 -10 CURVE SMOOTH",
"536 -10 OFFCURVE",
"546 10 OFFCURVE",
"558 34 CURVE"
);
},
{
closed = 1;
nodes = (
"250 730 LINE",
"326 730 OFFCURVE",
"365 696 OFFCURVE",
"365 570 CURVE SMOOTH",
"365 444 OFFCURVE",
"316 418 OFFCURVE",
"220 418 CURVE SMOOTH",
"166 418 LINE",
"166 412 LINE",
"204 408 LINE SMOOTH",
"363 391 OFFCURVE",
"475 438 OFFCURVE",
"475 575 CURVE SMOOTH",
"475 689 OFFCURVE",
"389 750 OFFCURVE",
"290 750 CURVE"
);
}
);
width = 565;
},
{
anchors = (
{
name = bottom;
position = "{287, 0}";
},
{
name = top;
position = "{287, 750}";
}
);
associatedMasterId = "B5727F16-0A35-4648-A4D9-FB286E4462AB";
background = {
components = (
{
name = B;
}
);
};
components = (
{
name = I;
}
);
layerId = "FCBAA531-9EC7-4315-ABE5-72957FDB427A";
name = "SemiCondensed Dec 29 15, 14:49";
paths = (
{
closed = 1;
nodes = (
"555 41 LINE",
"544 26 OFFCURVE",
"537 20 OFFCURVE",
"524 20 CURVE SMOOTH",
"499 20 OFFCURVE",
"488 49 OFFCURVE",
"489 159 CURVE SMOOTH",
"490 306 OFFCURVE",
"452 409 OFFCURVE",
"222 409 CURVE SMOOTH",
"157 409 LINE",
"157 403 LINE",
"201 402 LINE SMOOTH",
"362 398 OFFCURVE",
"390 332 OFFCURVE",
"384 179 CURVE SMOOTH",
"378 29 OFFCURVE",
"420 -10 OFFCURVE",
"486 -10 CURVE SMOOTH",
"546 -10 OFFCURVE",
"556 10 OFFCURVE",
"568 34 CURVE"
);
},
{
closed = 1;
nodes = (
"250 730 LINE",
"326 730 OFFCURVE",
"365 696 OFFCURVE",
"365 570 CURVE SMOOTH",
"365 444 OFFCURVE",
"316 418 OFFCURVE",
"220 418 CURVE SMOOTH",
"166 418 LINE",
"166 412 LINE",
"204 408 LINE SMOOTH",
"363 391 OFFCURVE",
"475 438 OFFCURVE",
"475 575 CURVE SMOOTH",
"475 689 OFFCURVE",
"389 750 OFFCURVE",
"290 750 CURVE"
);
}
);
width = 585;
},
{
anchors = (
{
name = bottom;
position = "{247, 0}";
},
{
name = top;
position = "{247, 750}";
}
);
associatedMasterId = "B5727F16-0A35-4648-A4D9-FB286E4462AB";
components = (
{
name = P;
}
);
layerId = "40BCE218-E066-4129-9B65-8133285846AD";
name = "Regular Dec 24 15, 15:57";
paths = (
{
closed = 1;
nodes = (
"502 41 LINE",
"491 26 OFFCURVE",
"479 20 OFFCURVE",
"466 20 CURVE SMOOTH",
"441 20 OFFCURVE",
"428 49 OFFCURVE",
"430 159 CURVE SMOOTH",
"432 280 OFFCURVE",
"385 374 OFFCURVE",
"232 378 CURVE SMOOTH",
"157 380 LINE",
"157 370 LINE",
"211 367 LINE SMOOTH",
"294 362 OFFCURVE",
"325 322 OFFCURVE",
"320 179 CURVE SMOOTH",
"315 29 OFFCURVE",
"362 -10 OFFCURVE",
"428 -10 CURVE SMOOTH",
"488 -10 OFFCURVE",
"503 10 OFFCURVE",
"515 34 CURVE"
);
}
);
width = 515;
},
{
anchors = (
{
name = bottom;
position = "{247, 0}";
},
{
name = top;
position = "{247, 750}";
}
);
associatedMasterId = "B5727F16-0A35-4648-A4D9-FB286E4462AB";
components = (
{
name = P;
}
);
layerId = "22AB5FD4-6AB8-4BE3-9137-1BB707339D19";
name = "Regular Dec 24 15, 15:57";
paths = (
{
closed = 1;
nodes = (
"502 41 LINE",
"491 26 OFFCURVE",
"479 20 OFFCURVE",
"466 20 CURVE SMOOTH",
"441 20 OFFCURVE",
"428 49 OFFCURVE",
"430 159 CURVE SMOOTH",
"432 280 OFFCURVE",
"385 374 OFFCURVE",
"232 378 CURVE SMOOTH",
"157 380 LINE",
"157 370 LINE",
"211 367 LINE SMOOTH",
"294 362 OFFCURVE",
"325 322 OFFCURVE",
"320 179 CURVE SMOOTH",
"315 29 OFFCURVE",
"362 -10 OFFCURVE",
"428 -10 CURVE SMOOTH",
"488 -10 OFFCURVE",
"503 10 OFFCURVE",
"515 34 CURVE"
);
}
);
width = 515;
},
{
anchors = (
{
name = bottom;
position = "{287, 0}";
},
{
name = top;
position = "{287, 750}";
}
);
associatedMasterId = "B5727F16-0A35-4648-A4D9-FB286E4462AB";
background = {
components = (
{
name = B;
}
);
};
components = (
{
name = I;
}
);
layerId = "F91EC53A-D765-4126-BA92-B7B2013E4156";
name = "SemiCondensed Dec 28 15, 16:36";
paths = (
{
closed = 1;
nodes = (
"545 41 LINE",
"534 26 OFFCURVE",
"527 20 OFFCURVE",
"514 20 CURVE SMOOTH",
"489 20 OFFCURVE",
"478 49 OFFCURVE",
"479 159 CURVE SMOOTH",
"480 306 OFFCURVE",
"452 409 OFFCURVE",
"232 409 CURVE SMOOTH",
"157 409 LINE",
"157 403 LINE",
"211 401 LINE SMOOTH",
"362 395 OFFCURVE",
"380 332 OFFCURVE",
"374 179 CURVE SMOOTH",
"368 29 OFFCURVE",
"410 -10 OFFCURVE",
"476 -10 CURVE SMOOTH",
"536 -10 OFFCURVE",
"546 10 OFFCURVE",
"558 34 CURVE"
);
},
{
closed = 1;
nodes = (
"250 730 LINE",
"326 730 OFFCURVE",
"365 696 OFFCURVE",
"365 570 CURVE SMOOTH",
"365 444 OFFCURVE",
"316 418 OFFCURVE",
"220 418 CURVE SMOOTH",
"166 418 LINE",
"166 412 LINE",
"204 408 LINE SMOOTH",
"363 391 OFFCURVE",
"475 438 OFFCURVE",
"475 575 CURVE SMOOTH",
"475 689 OFFCURVE",
"389 750 OFFCURVE",
"290 750 CURVE"
);
}
);
width = 565;
},
{
anchors = (
{
name = bottom;
position = "{287, 0}";
},
{
name = top;
position = "{287, 750}";
}
);
associatedMasterId = "B5727F16-0A35-4648-A4D9-FB286E4462AB";
background = {
components = (
{
name = B;
}
);
};
components = (
{
name = I;
}
);
layerId = "5A01169F-64CE-425A-A456-A3260EA25980";
name = "SemiCondensed Dec 29 15, 14:49";
paths = (
{
closed = 1;
nodes = (
"555 41 LINE",
"544 26 OFFCURVE",
"537 20 OFFCURVE",
"524 20 CURVE SMOOTH",
"499 20 OFFCURVE",
"488 49 OFFCURVE",
"489 159 CURVE SMOOTH",
"490 306 OFFCURVE",
"452 409 OFFCURVE",
"222 409 CURVE SMOOTH",
"157 409 LINE",
"157 403 LINE",
"201 402 LINE SMOOTH",
"362 398 OFFCURVE",
"390 332 OFFCURVE",
"384 179 CURVE SMOOTH",
"378 29 OFFCURVE",
"420 -10 OFFCURVE",
"486 -10 CURVE SMOOTH",
"546 -10 OFFCURVE",
"556 10 OFFCURVE",
"568 34 CURVE"
);
},
{
closed = 1;
nodes = (
"250 730 LINE",
"326 730 OFFCURVE",
"365 696 OFFCURVE",
"365 570 CURVE SMOOTH",
"365 444 OFFCURVE",
"316 418 OFFCURVE",
"220 418 CURVE SMOOTH",
"166 418 LINE",
"166 412 LINE",
"204 408 LINE SMOOTH",
"363 391 OFFCURVE",
"475 438 OFFCURVE",
"475 575 CURVE SMOOTH",
"475 689 OFFCURVE",
"389 750 OFFCURVE",
"290 750 CURVE"
);
}
);
width = 585;
},
{
anchors = (
{
name = bottom;
position = "{305, 0}";
},
{
name = top;
position = "{287, 750}";
}
);
background = {
components = (
{
name = B;
}
);
};
components = (
{
name = I;
}
);
layerId = "B5727F16-0A35-4648-A4D9-FB286E4462AB";
paths = (
{
closed = 1;
nodes = (
"555 71 LINE",
"547 35 OFFCURVE",
"532 20 OFFCURVE",
"511 20 CURVE SMOOTH",
"485 20 OFFCURVE",
"477 45 OFFCURVE",
"469 159 CURVE SMOOTH",
"454 360 OFFCURVE",
"403 412 OFFCURVE",
"240 412 CURVE SMOOTH",
"145 412 LINE",
"145 409 LINE",
"219 403 LINE SMOOTH",
"319 396 OFFCURVE",
"353 350 OFFCURVE",
"363 179 CURVE SMOOTH",
"373 29 OFFCURVE",
"396 -12 OFFCURVE",
"476 -12 CURVE SMOOTH",
"532 -12 OFFCURVE",
"556 10 OFFCURVE",
"568 66 CURVE"
);
},
{
closed = 1;
nodes = (
"250 730 LINE",
"326 730 OFFCURVE",
"365 696 OFFCURVE",
"365 570 CURVE SMOOTH",
"365 444 OFFCURVE",
"316 418 OFFCURVE",
"220 418 CURVE SMOOTH",
"166 418 LINE",
"166 412 LINE",
"204 408 LINE SMOOTH",
"363 391 OFFCURVE",
"475 438 OFFCURVE",
"475 575 CURVE SMOOTH",
"475 689 OFFCURVE",
"389 750 OFFCURVE",
"290 750 CURVE"
);
}
);
width = 585;
},
{
anchors = (
{
name = bottom;
position = "{247, 0}";
},
{
name = top;
position = "{247, 750}";
}
);
associatedMasterId = "B5727F16-0A35-4648-A4D9-FB286E4462AB";
components = (
{
name = P;
}
);
layerId = "E2E323BD-D32A-411C-87A9-0859DD383B13";
name = "Regular Dec 24 15, 15:57";
paths = (
{
closed = 1;
nodes = (
"502 41 LINE",
"491 26 OFFCURVE",
"479 20 OFFCURVE",
"466 20 CURVE SMOOTH",
"441 20 OFFCURVE",
"428 49 OFFCURVE",
"430 159 CURVE SMOOTH",
"432 280 OFFCURVE",
"385 374 OFFCURVE",
"232 378 CURVE SMOOTH",
"157 380 LINE",
"157 370 LINE",
"211 367 LINE SMOOTH",
"294 362 OFFCURVE",
"325 322 OFFCURVE",
"320 179 CURVE SMOOTH",
"315 29 OFFCURVE",
"362 -10 OFFCURVE",
"428 -10 CURVE SMOOTH",
"488 -10 OFFCURVE",
"503 10 OFFCURVE",
"515 34 CURVE"
);
}
);
width = 515;
},
{
anchors = (
{
name = bottom;
position = "{247, 0}";
},
{
name = top;
position = "{247, 750}";
}
);
associatedMasterId = "B5727F16-0A35-4648-A4D9-FB286E4462AB";
components = (
{
name = P;
}
);
layerId = "9C25E9E5-2C87-44C0-9C54-4D7D8298B3EA";
name = "Regular Dec 24 15, 15:57";
paths = (
{
closed = 1;
nodes = (
"502 41 LINE",
"491 26 OFFCURVE",
"479 20 OFFCURVE",
"466 20 CURVE SMOOTH",
"441 20 OFFCURVE",
"428 49 OFFCURVE",
"430 159 CURVE SMOOTH",
"432 280 OFFCURVE",
"385 374 OFFCURVE",
"232 378 CURVE SMOOTH",
"157 380 LINE",
"157 370 LINE",
"211 367 LINE SMOOTH",
"294 362 OFFCURVE",
"325 322 OFFCURVE",
"320 179 CURVE SMOOTH",
"315 29 OFFCURVE",
"362 -10 OFFCURVE",
"428 -10 CURVE SMOOTH",
"488 -10 OFFCURVE",
"503 10 OFFCURVE",
"515 34 CURVE"
);
}
);
width = 515;
},
{
anchors = (
{
name = bottom;
position = "{287, 0}";
},
{
name = top;
position = "{287, 750}";
}
);
associatedMasterId = "B5727F16-0A35-4648-A4D9-FB286E4462AB";
background = {
components = (
{
name = B;
}
);
};
components = (
{
name = I;
}
);
layerId = "F2A9EB05-7E3A-48C1-94B9-7E90FA911FDE";
name = "SemiCondensed Dec 28 15, 16:36";
paths = (
{
closed = 1;
nodes = (
"545 41 LINE",
"534 26 OFFCURVE",
"527 20 OFFCURVE",
"514 20 CURVE SMOOTH",
"489 20 OFFCURVE",
"478 49 OFFCURVE",
"479 159 CURVE SMOOTH",
"480 306 OFFCURVE",
"452 409 OFFCURVE",
"232 409 CURVE SMOOTH",
"157 409 LINE",
"157 403 LINE",
"211 401 LINE SMOOTH",
"362 395 OFFCURVE",
"380 332 OFFCURVE",
"374 179 CURVE SMOOTH",
"368 29 OFFCURVE",
"410 -10 OFFCURVE",
"476 -10 CURVE SMOOTH",
"536 -10 OFFCURVE",
"546 10 OFFCURVE",
"558 34 CURVE"
);
},
{
closed = 1;
nodes = (
"250 730 LINE",
"326 730 OFFCURVE",
"365 696 OFFCURVE",
"365 570 CURVE SMOOTH",
"365 444 OFFCURVE",
"316 418 OFFCURVE",
"220 418 CURVE SMOOTH",
"166 418 LINE",
"166 412 LINE",
"204 408 LINE SMOOTH",
"363 391 OFFCURVE",
"475 438 OFFCURVE",
"475 575 CURVE SMOOTH",
"475 689 OFFCURVE",
"389 750 OFFCURVE",
"290 750 CURVE"
);
}
);
width = 565;
},
{
anchors = (
{
name = bottom;
position = "{287, 0}";
},
{
name = top;
position = "{287, 750}";
}
);
associatedMasterId = "B5727F16-0A35-4648-A4D9-FB286E4462AB";
background = {
components = (
{
name = B;
}
);
};
components = (
{
name = I;
}
);
layerId = "BE75B58C-F6C8-4433-BFE8-2D872E25DD3A";
name = "SemiCondensed Dec 29 15, 14:49";
paths = (
{
closed = 1;
nodes = (
"555 41 LINE",
"544 26 OFFCURVE",
"537 20 OFFCURVE",
"524 20 CURVE SMOOTH",
"499 20 OFFCURVE",
"488 49 OFFCURVE",
"489 159 CURVE SMOOTH",
"490 306 OFFCURVE",
"452 409 OFFCURVE",
"222 409 CURVE SMOOTH",
"157 409 LINE",
"157 403 LINE",
"201 402 LINE SMOOTH",
"362 398 OFFCURVE",
"390 332 OFFCURVE",
"384 179 CURVE SMOOTH",
"378 29 OFFCURVE",
"420 -10 OFFCURVE",
"486 -10 CURVE SMOOTH",
"546 -10 OFFCURVE",
"556 10 OFFCURVE",
"568 34 CURVE"
);
},
{
closed = 1;
nodes = (
"250 730 LINE",
"326 730 OFFCURVE",
"365 696 OFFCURVE",
"365 570 CURVE SMOOTH",
"365 444 OFFCURVE",
"316 418 OFFCURVE",
"220 418 CURVE SMOOTH",
"166 418 LINE",
"166 412 LINE",
"204 408 LINE SMOOTH",
"363 391 OFFCURVE",
"475 438 OFFCURVE",
"475 575 CURVE SMOOTH",
"475 689 OFFCURVE",
"389 750 OFFCURVE",
"290 750 CURVE"
);
}
);
width = 585;
}
);
leftMetricsKey = I;
unicode = 0052;
},
{
glyphname = S;
lastChange = "2017-02-11 06:59:39 +0000";
layers = (
{
anchors = (
{
name = bottom;
position = "{202, 0}";
},
{
name = top;
position = "{202, 750}";
}
);
associatedMasterId = "B5727F16-0A35-4648-A4D9-FB286E4462AB";
background = {
components = (
{
name = C;
}
);
};
layerId = "C970AE8E-1362-402A-8DD1-89747A51A7EF";
name = "Regular Dec 24 15, 15:07";
paths = (
{
closed = 1;
nodes = (
"318 535 LINE",
"338 535 LINE",
"338 750 LINE",
"318 750 LINE"
);
},
{
closed = 1;
nodes = (
"136 10 OFFCURVE",
"84 129 OFFCURVE",
"69 215 CURVE",
"69 1 LINE",
"95 38 OFFCURVE",
"122 -10 OFFCURVE",
"203 -10 CURVE SMOOTH",
"396 -10 OFFCURVE",
"433 243 OFFCURVE",
"229 433 CURVE SMOOTH",
"45 605 OFFCURVE",
"104 740 OFFCURVE",
"185 740 CURVE SMOOTH",
"252 740 OFFCURVE",
"303 621 OFFCURVE",
"318 535 CURVE",
"318 750 LINE",
"318 715 OFFCURVE",
"276 760 OFFCURVE",
"193 760 CURVE SMOOTH",
"33 760 OFFCURVE",
"-36 506 OFFCURVE",
"161 321 CURVE SMOOTH",
"358 136 OFFCURVE",
"291 10 OFFCURVE",
"215 10 CURVE SMOOTH"
);
},
{
closed = 1;
nodes = (
"69 215 LINE",
"49 215 LINE",
"49 1 LINE",
"69 1 LINE"
);
}
);
width = 396;
},
{
anchors = (
{
name = bottom;
position = "{202, 0}";
},
{
name = top;
position = "{202, 750}";
}
);
associatedMasterId = "B5727F16-0A35-4648-A4D9-FB286E4462AB";
background = {
components = (
{
name = C;
transform = "{1, 0, 0, 1, -80, 0}";
}
);
};
layerId = "CCCD7F99-141B-4BC8-84B9-0C652E280B78";
name = "Regular Dec 25 15, 17:29";
paths = (
{
closed = 1;
nodes = (
"318 515 LINE",
"338 515 LINE",
"338 760 LINE",
"318 760 LINE"
);
},
{
closed = 1;
nodes = (
"146 9 OFFCURVE",
"94 129 OFFCURVE",
"69 236 CURVE",
"69 1 LINE",
"105 68 OFFCURVE",
"132 -9 OFFCURVE",
"223 -9 CURVE SMOOTH",
"396 -9 OFFCURVE",
"433 243 OFFCURVE",
"229 433 CURVE SMOOTH",
"45 605 OFFCURVE",
"94 741 OFFCURVE",
"178 741 CURVE SMOOTH",
"232 741 OFFCURVE",
"284 641 OFFCURVE",
"318 515 CURVE",
"318 760 LINE",
"288 695 OFFCURVE",
"266 759 OFFCURVE",
"183 759 CURVE SMOOTH",
"33 759 OFFCURVE",
"-36 506 OFFCURVE",
"161 321 CURVE SMOOTH",
"358 136 OFFCURVE",
"311 9 OFFCURVE",
"225 9 CURVE SMOOTH"
);
},
{
closed = 1;
nodes = (
"69 236 LINE",
"49 236 LINE",
"49 1 LINE",
"69 1 LINE"
);
}
);
width = 396;
},
{
anchors = (
{
name = bottom;
position = "{202, 0}";
},
{
name = top;
position = "{202, 750}";
}
);
associatedMasterId = "B5727F16-0A35-4648-A4D9-FB286E4462AB";
background = {
components = (
{
name = C;
}
);
};
layerId = "ED86D745-A502-4A95-BF7D-5D68728C406E";
name = "Regular Dec 24 15, 15:07";
paths = (
{
closed = 1;
nodes = (
"318 535 LINE",
"338 535 LINE",
"338 750 LINE",
"318 750 LINE"
);
},
{
closed = 1;
nodes = (
"136 10 OFFCURVE",
"84 129 OFFCURVE",
"69 215 CURVE",
"69 1 LINE",
"95 38 OFFCURVE",
"122 -10 OFFCURVE",
"203 -10 CURVE SMOOTH",
"396 -10 OFFCURVE",
"433 243 OFFCURVE",
"229 433 CURVE SMOOTH",
"45 605 OFFCURVE",
"104 740 OFFCURVE",
"185 740 CURVE SMOOTH",
"252 740 OFFCURVE",
"303 621 OFFCURVE",
"318 535 CURVE",
"318 750 LINE",
"318 715 OFFCURVE",
"276 760 OFFCURVE",
"193 760 CURVE SMOOTH",
"33 760 OFFCURVE",
"-36 506 OFFCURVE",
"161 321 CURVE SMOOTH",
"358 136 OFFCURVE",
"291 10 OFFCURVE",
"215 10 CURVE SMOOTH"
);
},
{
closed = 1;
nodes = (
"69 215 LINE",
"49 215 LINE",
"49 1 LINE",
"69 1 LINE"
);
}
);
width = 396;
},
{
anchors = (
{
name = bottom;
position = "{202, 0}";
},
{
name = top;
position = "{202, 750}";
}
);
associatedMasterId = "B5727F16-0A35-4648-A4D9-FB286E4462AB";
background = {
components = (
{
name = C;
transform = "{1, 0, 0, 1, -80, 0}";
}
);
};
layerId = "F38876FC-CAAE-4205-925B-7A8B7A005AFA";
name = "Regular Dec 25 15, 17:29";
paths = (
{
closed = 1;
nodes = (
"318 515 LINE",
"338 515 LINE",
"338 760 LINE",
"318 760 LINE"
);
},
{
closed = 1;
nodes = (
"146 9 OFFCURVE",
"94 129 OFFCURVE",
"69 236 CURVE",
"69 1 LINE",
"105 68 OFFCURVE",
"132 -9 OFFCURVE",
"223 -9 CURVE SMOOTH",
"396 -9 OFFCURVE",
"433 243 OFFCURVE",
"229 433 CURVE SMOOTH",
"45 605 OFFCURVE",
"94 741 OFFCURVE",
"178 741 CURVE SMOOTH",
"232 741 OFFCURVE",
"284 641 OFFCURVE",
"318 515 CURVE",
"318 760 LINE",
"288 695 OFFCURVE",
"266 759 OFFCURVE",
"183 759 CURVE SMOOTH",
"33 759 OFFCURVE",
"-36 506 OFFCURVE",
"161 321 CURVE SMOOTH",
"358 136 OFFCURVE",
"311 9 OFFCURVE",
"225 9 CURVE SMOOTH"
);
},
{
closed = 1;
nodes = (
"69 236 LINE",
"49 236 LINE",
"49 1 LINE",
"69 1 LINE"
);
}
);
width = 396;
},
{
anchors = (
{
name = bottom;
position = "{202, 0}";
},
{
name = top;
position = "{202, 750}";
}
);
associatedMasterId = "B5727F16-0A35-4648-A4D9-FB286E4462AB";
background = {
components = (
{
name = C;
}
);
};
layerId = "92F7D6D7-2699-45D2-9613-92606B34F0CC";
name = "Regular Dec 24 15, 15:07";
paths = (
{
closed = 1;
nodes = (
"318 535 LINE",
"338 535 LINE",
"338 750 LINE",
"318 750 LINE"
);
},
{
closed = 1;
nodes = (
"136 10 OFFCURVE",
"84 129 OFFCURVE",
"69 215 CURVE",
"69 1 LINE",
"95 38 OFFCURVE",
"122 -10 OFFCURVE",
"203 -10 CURVE SMOOTH",
"396 -10 OFFCURVE",
"433 243 OFFCURVE",
"229 433 CURVE SMOOTH",
"45 605 OFFCURVE",
"104 740 OFFCURVE",
"185 740 CURVE SMOOTH",
"252 740 OFFCURVE",
"303 621 OFFCURVE",
"318 535 CURVE",
"318 750 LINE",
"318 715 OFFCURVE",
"276 760 OFFCURVE",
"193 760 CURVE SMOOTH",
"33 760 OFFCURVE",
"-36 506 OFFCURVE",
"161 321 CURVE SMOOTH",
"358 136 OFFCURVE",
"291 10 OFFCURVE",
"215 10 CURVE SMOOTH"
);
},
{
closed = 1;
nodes = (
"69 215 LINE",
"49 215 LINE",
"49 1 LINE",
"69 1 LINE"
);
}
);
width = 396;
},
{
anchors = (
{
name = bottom;
position = "{202, 0}";
},
{
name = top;
position = "{202, 750}";
}
);
associatedMasterId = "B5727F16-0A35-4648-A4D9-FB286E4462AB";
background = {
components = (
{
name = C;
transform = "{1, 0, 0, 1, -80, 0}";
}
);
};
layerId = "B7FD30C3-7994-4A4D-9C14-6805C1CED347";
name = "Regular Dec 25 15, 17:29";
paths = (
{
closed = 1;
nodes = (
"318 515 LINE",
"338 515 LINE",
"338 760 LINE",
"318 760 LINE"
);
},
{
closed = 1;
nodes = (
"146 9 OFFCURVE",
"94 129 OFFCURVE",
"69 236 CURVE",
"69 1 LINE",
"105 68 OFFCURVE",
"132 -9 OFFCURVE",
"223 -9 CURVE SMOOTH",
"396 -9 OFFCURVE",
"433 243 OFFCURVE",
"229 433 CURVE SMOOTH",
"45 605 OFFCURVE",
"94 741 OFFCURVE",
"178 741 CURVE SMOOTH",
"232 741 OFFCURVE",
"284 641 OFFCURVE",
"318 515 CURVE",
"318 760 LINE",
"288 695 OFFCURVE",
"266 759 OFFCURVE",
"183 759 CURVE SMOOTH",
"33 759 OFFCURVE",
"-36 506 OFFCURVE",
"161 321 CURVE SMOOTH",
"358 136 OFFCURVE",
"311 9 OFFCURVE",
"225 9 CURVE SMOOTH"
);
},
{
closed = 1;
nodes = (
"69 236 LINE",
"49 236 LINE",
"49 1 LINE",
"69 1 LINE"
);
}
);
width = 396;
},
{
anchors = (
{
name = bottom;
position = "{202, 0}";
},
{
name = top;
position = "{202, 750}";
}
);
associatedMasterId = "B5727F16-0A35-4648-A4D9-FB286E4462AB";
background = {
components = (
{
name = C;
}
);
};
layerId = "5815A59F-3DAE-4B97-8E25-B7CF6F1BAD8D";
name = "Regular Dec 24 15, 15:07";
paths = (
{
closed = 1;
nodes = (
"318 535 LINE",
"338 535 LINE",
"338 750 LINE",
"318 750 LINE"
);
},
{
closed = 1;
nodes = (
"136 10 OFFCURVE",
"84 129 OFFCURVE",
"69 215 CURVE",
"69 1 LINE",
"95 38 OFFCURVE",
"122 -10 OFFCURVE",
"203 -10 CURVE SMOOTH",
"396 -10 OFFCURVE",
"433 243 OFFCURVE",
"229 433 CURVE SMOOTH",
"45 605 OFFCURVE",
"104 740 OFFCURVE",
"185 740 CURVE SMOOTH",
"252 740 OFFCURVE",
"303 621 OFFCURVE",
"318 535 CURVE",
"318 750 LINE",
"318 715 OFFCURVE",
"276 760 OFFCURVE",
"193 760 CURVE SMOOTH",
"33 760 OFFCURVE",
"-36 506 OFFCURVE",
"161 321 CURVE SMOOTH",
"358 136 OFFCURVE",
"291 10 OFFCURVE",
"215 10 CURVE SMOOTH"
);
},
{
closed = 1;
nodes = (
"69 215 LINE",
"49 215 LINE",
"49 1 LINE",
"69 1 LINE"
);
}
);
width = 396;
},
{
anchors = (
{
name = bottom;
position = "{202, 0}";
},
{
name = top;
position = "{202, 750}";
}
);
associatedMasterId = "B5727F16-0A35-4648-A4D9-FB286E4462AB";
background = {
components = (
{
name = C;
transform = "{1, 0, 0, 1, -80, 0}";
}
);
};
layerId = "3E966E2A-F87C-4137-89D4-007E9DCC9CAB";
name = "Regular Dec 25 15, 17:29";
paths = (
{
closed = 1;
nodes = (
"318 515 LINE",
"338 515 LINE",
"338 760 LINE",
"318 760 LINE"
);
},
{
closed = 1;
nodes = (
"146 9 OFFCURVE",
"94 129 OFFCURVE",
"69 236 CURVE",
"69 1 LINE",
"105 68 OFFCURVE",
"132 -9 OFFCURVE",
"223 -9 CURVE SMOOTH",
"396 -9 OFFCURVE",
"433 243 OFFCURVE",
"229 433 CURVE SMOOTH",
"45 605 OFFCURVE",
"94 741 OFFCURVE",
"178 741 CURVE SMOOTH",
"232 741 OFFCURVE",
"284 641 OFFCURVE",
"318 515 CURVE",
"318 760 LINE",
"288 695 OFFCURVE",
"266 759 OFFCURVE",
"183 759 CURVE SMOOTH",
"33 759 OFFCURVE",
"-36 506 OFFCURVE",
"161 321 CURVE SMOOTH",
"358 136 OFFCURVE",
"311 9 OFFCURVE",
"225 9 CURVE SMOOTH"
);
},
{
closed = 1;
nodes = (
"69 236 LINE",
"49 236 LINE",
"49 1 LINE",
"69 1 LINE"
);
}
);
width = 396;
},
{
anchors = (
{
name = bottom;
position = "{202, 0}";
},
{
name = top;
position = "{202, 750}";
}
);
associatedMasterId = "B5727F16-0A35-4648-A4D9-FB286E4462AB";
background = {
components = (
{
name = C;
}
);
};
layerId = "29C19AD6-3696-4384-BC2F-C2F08E67F3BA";
name = "Regular Dec 24 15, 15:07";
paths = (
{
closed = 1;
nodes = (
"318 535 LINE",
"338 535 LINE",
"338 750 LINE",
"318 750 LINE"
);
},
{
closed = 1;
nodes = (
"136 10 OFFCURVE",
"84 129 OFFCURVE",
"69 215 CURVE",
"69 1 LINE",
"95 38 OFFCURVE",
"122 -10 OFFCURVE",
"203 -10 CURVE SMOOTH",
"396 -10 OFFCURVE",
"433 243 OFFCURVE",
"229 433 CURVE SMOOTH",
"45 605 OFFCURVE",
"104 740 OFFCURVE",
"185 740 CURVE SMOOTH",
"252 740 OFFCURVE",
"303 621 OFFCURVE",
"318 535 CURVE",
"318 750 LINE",
"318 715 OFFCURVE",
"276 760 OFFCURVE",
"193 760 CURVE SMOOTH",
"33 760 OFFCURVE",
"-36 506 OFFCURVE",
"161 321 CURVE SMOOTH",
"358 136 OFFCURVE",
"291 10 OFFCURVE",
"215 10 CURVE SMOOTH"
);
},
{
closed = 1;
nodes = (
"69 215 LINE",
"49 215 LINE",
"49 1 LINE",
"69 1 LINE"
);
}
);
width = 396;
},
{
anchors = (
{
name = bottom;
position = "{250, 0}";
},
{
name = top;
position = "{250, 750}";
}
);
background = {
components = (
{
name = C;
}
);
};
layerId = "B5727F16-0A35-4648-A4D9-FB286E4462AB";
paths = (
{
closed = 1;
nodes = (
"440 -9 OFFCURVE",
"523 222 OFFCURVE",
"272 433 CURVE SMOOTH",
"43 626 OFFCURVE",
"107 741 OFFCURVE",
"207 741 CURVE SMOOTH",
"295 741 OFFCURVE",
"328 641 OFFCURVE",
"357 525 CURVE",
"377 525 LINE",
"377 760 LINE",
"357 760 LINE",
"325 695 OFFCURVE",
"301 759 OFFCURVE",
"213 759 CURVE SMOOTH",
"52 759 OFFCURVE",
"-38 540 OFFCURVE",
"199 331 CURVE SMOOTH",
"403 151 OFFCURVE",
"370 9 OFFCURVE",
"257 9 CURVE SMOOTH",
"169 9 OFFCURVE",
"119 109 OFFCURVE",
"97 245 CURVE",
"77 245 LINE",
"77 -10 LINE",
"97 -10 LINE",
"119 55 OFFCURVE",
"153 -9 OFFCURVE",
"255 -9 CURVE SMOOTH"
);
}
);
width = 464;
},
{
anchors = (
{
name = bottom;
position = "{202, 0}";
},
{
name = top;
position = "{202, 750}";
}
);
associatedMasterId = "B5727F16-0A35-4648-A4D9-FB286E4462AB";
background = {
components = (
{
name = C;
transform = "{1, 0, 0, 1, -80, 0}";
}
);
};
layerId = "BA2FB903-5B9F-4AE6-8253-A0F16801AAFE";
name = "Regular Dec 25 15, 17:29";
paths = (
{
closed = 1;
nodes = (
"318 515 LINE",
"338 515 LINE",
"338 760 LINE",
"318 760 LINE"
);
},
{
closed = 1;
nodes = (
"146 9 OFFCURVE",
"94 129 OFFCURVE",
"69 236 CURVE",
"69 1 LINE",
"105 68 OFFCURVE",
"132 -9 OFFCURVE",
"223 -9 CURVE SMOOTH",
"396 -9 OFFCURVE",
"433 243 OFFCURVE",
"229 433 CURVE SMOOTH",
"45 605 OFFCURVE",
"94 741 OFFCURVE",
"178 741 CURVE SMOOTH",
"232 741 OFFCURVE",
"284 641 OFFCURVE",
"318 515 CURVE",
"318 760 LINE",
"288 695 OFFCURVE",
"266 759 OFFCURVE",
"183 759 CURVE SMOOTH",
"33 759 OFFCURVE",
"-36 506 OFFCURVE",
"161 321 CURVE SMOOTH",
"358 136 OFFCURVE",
"311 9 OFFCURVE",
"225 9 CURVE SMOOTH"
);
},
{
closed = 1;
nodes = (
"69 236 LINE",
"49 236 LINE",
"49 1 LINE",
"69 1 LINE"
);
}
);
width = 396;
},
{
anchors = (
{
name = bottom;
position = "{202, 0}";
},
{
name = top;
position = "{202, 750}";
}
);
associatedMasterId = "B5727F16-0A35-4648-A4D9-FB286E4462AB";
background = {
components = (
{
name = C;
}
);
};
layerId = "9DBE73E1-4A57-459A-8924-6A76CF5CE1A9";
name = "Regular Dec 24 15, 15:07";
paths = (
{
closed = 1;
nodes = (
"318 535 LINE",
"338 535 LINE",
"338 750 LINE",
"318 750 LINE"
);
},
{
closed = 1;
nodes = (
"136 10 OFFCURVE",
"84 129 OFFCURVE",
"69 215 CURVE",
"69 1 LINE",
"95 38 OFFCURVE",
"122 -10 OFFCURVE",
"203 -10 CURVE SMOOTH",
"396 -10 OFFCURVE",
"433 243 OFFCURVE",
"229 433 CURVE SMOOTH",
"45 605 OFFCURVE",
"104 740 OFFCURVE",
"185 740 CURVE SMOOTH",
"252 740 OFFCURVE",
"303 621 OFFCURVE",
"318 535 CURVE",
"318 750 LINE",
"318 715 OFFCURVE",
"276 760 OFFCURVE",
"193 760 CURVE SMOOTH",
"33 760 OFFCURVE",
"-36 506 OFFCURVE",
"161 321 CURVE SMOOTH",
"358 136 OFFCURVE",
"291 10 OFFCURVE",
"215 10 CURVE SMOOTH"
);
},
{
closed = 1;
nodes = (
"69 215 LINE",
"49 215 LINE",
"49 1 LINE",
"69 1 LINE"
);
}
);
width = 396;
},
{
anchors = (
{
name = bottom;
position = "{202, 0}";
},
{
name = top;
position = "{202, 750}";
}
);
associatedMasterId = "B5727F16-0A35-4648-A4D9-FB286E4462AB";
background = {
components = (
{
name = C;
transform = "{1, 0, 0, 1, -80, 0}";
}
);
};
layerId = "A239F7D1-06D8-4807-A08B-853A55A46BE7";
name = "Regular Dec 25 15, 17:29";
paths = (
{
closed = 1;
nodes = (
"318 515 LINE",
"338 515 LINE",
"338 760 LINE",
"318 760 LINE"
);
},
{
closed = 1;
nodes = (
"146 9 OFFCURVE",
"94 129 OFFCURVE",
"69 236 CURVE",
"69 1 LINE",
"105 68 OFFCURVE",
"132 -9 OFFCURVE",
"223 -9 CURVE SMOOTH",
"396 -9 OFFCURVE",
"433 243 OFFCURVE",
"229 433 CURVE SMOOTH",
"45 605 OFFCURVE",
"94 741 OFFCURVE",
"178 741 CURVE SMOOTH",
"232 741 OFFCURVE",
"284 641 OFFCURVE",
"318 515 CURVE",
"318 760 LINE",
"288 695 OFFCURVE",
"266 759 OFFCURVE",
"183 759 CURVE SMOOTH",
"33 759 OFFCURVE",
"-36 506 OFFCURVE",
"161 321 CURVE SMOOTH",
"358 136 OFFCURVE",
"311 9 OFFCURVE",
"225 9 CURVE SMOOTH"
);
},
{
closed = 1;
nodes = (
"69 236 LINE",
"49 236 LINE",
"49 1 LINE",
"69 1 LINE"
);
}
);
width = 396;
},
{
anchors = (
{
name = bottom;
position = "{250, 0}";
},
{
name = top;
position = "{250, 750}";
}
);
associatedMasterId = "B5727F16-0A35-4648-A4D9-FB286E4462AB";
background = {
components = (
{
name = C;
}
);
};
layerId = "741F3910-1F42-46DE-AFC3-A49B65B420C1";
name = "Feb 11 17, 01:59";
paths = (
{
closed = 1;
nodes = (
"440 -9 OFFCURVE",
"513 212 OFFCURVE",
"262 423 CURVE SMOOTH",
"45 606 OFFCURVE",
"107 741 OFFCURVE",
"207 741 CURVE SMOOTH",
"295 741 OFFCURVE",
"328 641 OFFCURVE",
"357 525 CURVE",
"377 525 LINE",
"377 760 LINE",
"357 760 LINE",
"325 695 OFFCURVE",
"301 759 OFFCURVE",
"213 759 CURVE SMOOTH",
"52 759 OFFCURVE",
"-54 536 OFFCURVE",
"189 321 CURVE SMOOTH",
"404 131 OFFCURVE",
"360 9 OFFCURVE",
"257 9 CURVE SMOOTH",
"169 9 OFFCURVE",
"119 109 OFFCURVE",
"97 245 CURVE",
"77 245 LINE",
"77 -10 LINE",
"97 -10 LINE",
"119 55 OFFCURVE",
"153 -9 OFFCURVE",
"255 -9 CURVE SMOOTH"
);
}
);
width = 464;
}
);
unicode = 0053;
},
{
glyphname = Germandbls;
lastChange = "2017-02-09 02:07:48 +0000";
layers = (
{
anchors = (
{
name = bottom;
position = "{238, 0}";
},
{
name = top;
position = "{182, 500}";
}
);
associatedMasterId = "B5727F16-0A35-4648-A4D9-FB286E4462AB";
layerId = "33213005-D839-4EE8-B0A8-EFF7A02B45F6";
name = "Regular Dec 16 15, 16:40";
paths = (
{
closed = 1;
nodes = (
"156 69 LINE",
"168 25 OFFCURVE",
"208 -11 OFFCURVE",
"278 -9 CURVE SMOOTH",
"392 -6 OFFCURVE",
"485 73 OFFCURVE",
"485 193 CURVE SMOOTH",
"485 391 OFFCURVE",
"353 487 OFFCURVE",
"163 412 CURVE",
"171 393 LINE",
"296 444 OFFCURVE",
"385 408 OFFCURVE",
"385 193 CURVE SMOOTH",
"385 70 OFFCURVE",
"352 19 OFFCURVE",
"268 14 CURVE SMOOTH",
"221 11 OFFCURVE",
"188 37 OFFCURVE",
"176 79 CURVE"
);
},
{
closed = 1;
nodes = (
"98 -179 OFFCURVE",
"83 -225 OFFCURVE",
"23 -225 CURVE SMOOTH",
"5 -225 OFFCURVE",
"-10 -220 OFFCURVE",
"-27 -213 CURVE",
"-36 -230 LINE",
"-20 -240 OFFCURVE",
"0 -245 OFFCURVE",
"23 -245 CURVE SMOOTH",
"134 -245 OFFCURVE",
"188 -187.566 OFFCURVE",
"188 80 CURVE SMOOTH",
"188 580 LINE SMOOTH",
"188 693 OFFCURVE",
"204 738 OFFCURVE",
"244 738 CURVE SMOOTH",
"283 738 OFFCURVE",
"298 704 OFFCURVE",
"298 620 CURVE SMOOTH",
"298 479 OFFCURVE",
"261 405 OFFCURVE",
"25.859 395.262 CURVE",
"29.205 375.187 LINE",
"238.623 384.883 OFFCURVE",
"399 480 OFFCURVE",
"399 606 CURVE SMOOTH",
"399 713 OFFCURVE",
"357 765 OFFCURVE",
"264 765 CURVE SMOOTH",
"130 765 OFFCURVE",
"93 707 OFFCURVE",
"95 460 CURVE SMOOTH",
"98 0 LINE SMOOTH"
);
}
);
width = 515;
},
{
anchors = (
{
name = bottom;
position = "{130, 0}";
},
{
name = top;
position = "{114, 600}";
}
);
associatedMasterId = "B5727F16-0A35-4648-A4D9-FB286E4462AB";
components = (
{
name = _corner.serif;
transform = "{-1, 0, 0, -1, 170, 0}";
},
{
name = _corner.serif;
transform = "{1, 0, 0, -1, 80, 0}";
}
);
layerId = "B9BD6F61-1EEF-47EB-9A9F-BE988796E997";
name = "Regular Dec 16 15, 16:52";
paths = (
{
closed = 1;
nodes = (
"152 843 OFFCURVE",
"80 736 OFFCURVE",
"80 510 CURVE SMOOTH",
"80 0 LINE",
"170 0 LINE",
"170 577 LINE SMOOTH",
"170 780 OFFCURVE",
"201 823 OFFCURVE",
"269 823 CURVE SMOOTH",
"394 823 OFFCURVE",
"485 589 OFFCURVE",
"178 463 CURVE",
"184 443 LINE",
"516 570 OFFCURVE",
"435 843 OFFCURVE",
"269 843 CURVE SMOOTH"
);
},
{
closed = 0;
nodes = (
"80 0 LINE"
);
},
{
closed = 1;
nodes = (
"380.81 0 OFFCURVE",
"473 77 OFFCURVE",
"473 215 CURVE SMOOTH",
"473 351 OFFCURVE",
"345 449 OFFCURVE",
"188 463 CURVE",
"184 443 LINE",
"282 435 OFFCURVE",
"363 341 OFFCURVE",
"363 215 CURVE SMOOTH",
"363 87 OFFCURVE",
"369.691 20 OFFCURVE",
"250 20 CURVE",
"250 0 LINE"
);
}
);
width = 463;
},
{
anchors = (
{
name = bottom;
position = "{130, 0}";
},
{
name = top;
position = "{114, 600}";
}
);
associatedMasterId = "B5727F16-0A35-4648-A4D9-FB286E4462AB";
components = (
{
name = _corner.serif;
transform = "{1, 0, 0, -1, 80, 0}";
}
);
layerId = "B6069735-A9CD-4897-B92E-4D4FE874864E";
name = "Regular Dec 16 15, 17:05";
paths = (
{
closed = 1;
nodes = (
"282 20 OFFCURVE",
"314 31 OFFCURVE",
"323 59 CURVE SMOOTH",
"347 139 OFFCURVE",
"228 172 OFFCURVE",
"210 88 CURVE SMOOTH",
"200 42 OFFCURVE",
"234 0 OFFCURVE",
"310 0 CURVE",
"438 0 OFFCURVE",
"523 82 OFFCURVE",
"523 205 CURVE SMOOTH",
"523 313 OFFCURVE",
"425 405 OFFCURVE",
"279 435 CURVE",
"283 422 LINE",
"463 499 OFFCURVE",
"425 760 OFFCURVE",
"259 760 CURVE SMOOTH",
"142 760 OFFCURVE",
"80 676 OFFCURVE",
"80 450 CURVE SMOOTH",
"80 0 LINE",
"170 0 LINE",
"170 517 LINE SMOOTH",
"170 720 OFFCURVE",
"211 738 OFFCURVE",
"269 738 CURVE SMOOTH",
"372 738 OFFCURVE",
"422 524 OFFCURVE",
"282 447 CURVE SMOOTH",
"262 436 OFFCURVE",
"258 414 OFFCURVE",
"281 402 CURVE SMOOTH",
"351 366 OFFCURVE",
"403 299 OFFCURVE",
"403 185 CURVE SMOOTH",
"403 59 OFFCURVE",
"367 20 OFFCURVE",
"310 20 CURVE"
);
}
);
width = 553;
},
{
anchors = (
{
name = bottom;
position = "{130, 0}";
},
{
name = top;
position = "{114, 600}";
}
);
associatedMasterId = "B5727F16-0A35-4648-A4D9-FB286E4462AB";
components = (
{
name = _corner.serif;
transform = "{1, 0, 0, -1, 80, 0}";
}
);
layerId = "409B2C37-8DC4-424D-A805-14B52E44EF9D";
name = "Regular Dec 16 15, 17:07";
paths = (
{
closed = 1;
nodes = (
"282 20 OFFCURVE",
"314 31 OFFCURVE",
"323 59 CURVE SMOOTH",
"347 139 OFFCURVE",
"228 172 OFFCURVE",
"210 88 CURVE SMOOTH",
"200 42 OFFCURVE",
"234 0 OFFCURVE",
"310 0 CURVE",
"420 0 OFFCURVE",
"493 78 OFFCURVE",
"493 195 CURVE SMOOTH",
"493 313 OFFCURVE",
"407 409 OFFCURVE",
"279 435 CURVE",
"283 422 LINE",
"463 499 OFFCURVE",
"425 760 OFFCURVE",
"259 760 CURVE SMOOTH",
"142 760 OFFCURVE",
"80 676 OFFCURVE",
"80 450 CURVE SMOOTH",
"80 0 LINE",
"170 0 LINE",
"170 517 LINE SMOOTH",
"170 720 OFFCURVE",
"211 738 OFFCURVE",
"269 738 CURVE SMOOTH",
"372 738 OFFCURVE",
"422 527 OFFCURVE",
"282 450 CURVE SMOOTH",
"255 435 OFFCURVE",
"254 416 OFFCURVE",
"281 402 CURVE SMOOTH",
"351 366 OFFCURVE",
"393 299 OFFCURVE",
"393 185 CURVE SMOOTH",
"393 72 OFFCURVE",
"367 20 OFFCURVE",
"310 20 CURVE"
);
}
);
width = 523;
},
{
anchors = (
{
name = bottom;
position = "{130, 0}";
},
{
name = top;
position = "{114, 600}";
}
);
associatedMasterId = "B5727F16-0A35-4648-A4D9-FB286E4462AB";
components = (
{
name = _corner.serif;
transform = "{1, 0, 0, -1, 80, 0}";
}
);
layerId = "C696C02A-9C02-43AA-BE95-6F9080984709";
name = "Regular Dec 16 15, 17:07";
paths = (
{
closed = 1;
nodes = (
"282 20 OFFCURVE",
"314 31 OFFCURVE",
"323 59 CURVE SMOOTH",
"347 139 OFFCURVE",
"228 172 OFFCURVE",
"210 88 CURVE SMOOTH",
"200 42 OFFCURVE",
"234 0 OFFCURVE",
"310 0 CURVE",
"420 0 OFFCURVE",
"493 78 OFFCURVE",
"493 195 CURVE SMOOTH",
"493 313 OFFCURVE",
"407 409 OFFCURVE",
"249 435 CURVE",
"253 422 LINE",
"463 499 OFFCURVE",
"425 760 OFFCURVE",
"259 760 CURVE SMOOTH",
"142 760 OFFCURVE",
"80 676 OFFCURVE",
"80 450 CURVE SMOOTH",
"80 0 LINE",
"170 0 LINE",
"170 517 LINE SMOOTH",
"170 720 OFFCURVE",
"211 738 OFFCURVE",
"269 738 CURVE SMOOTH",
"372 738 OFFCURVE",
"422 527 OFFCURVE",
"252 448 CURVE SMOOTH",
"225 435 OFFCURVE",
"224 416 OFFCURVE",
"252 405 CURVE SMOOTH",
"351 366 OFFCURVE",
"393 299 OFFCURVE",
"393 185 CURVE SMOOTH",
"393 72 OFFCURVE",
"367 20 OFFCURVE",
"310 20 CURVE"
);
}
);
width = 523;
},
{
anchors = (
{
name = bottom;
position = "{130, 0}";
},
{
name = top;
position = "{114, 600}";
}
);
associatedMasterId = "B5727F16-0A35-4648-A4D9-FB286E4462AB";
components = (
{
name = _corner.serif;
transform = "{1, 0, 0, -1, 80, 0}";
}
);
layerId = "A8AC37B6-2C98-4455-960F-0700E92ECA4A";
name = "Regular Dec 16 15, 20:54";
paths = (
{
closed = 1;
nodes = (
"282 20 OFFCURVE",
"314 31 OFFCURVE",
"323 59 CURVE SMOOTH",
"347 139 OFFCURVE",
"228 172 OFFCURVE",
"210 88 CURVE SMOOTH",
"200 42 OFFCURVE",
"234 0 OFFCURVE",
"310 0 CURVE",
"420 0 OFFCURVE",
"493 78 OFFCURVE",
"493 195 CURVE SMOOTH",
"493 313 OFFCURVE",
"407 409 OFFCURVE",
"249 435 CURVE",
"253 422 LINE",
"463 499 OFFCURVE",
"425 760 OFFCURVE",
"259 760 CURVE SMOOTH",
"142 760 OFFCURVE",
"80 676 OFFCURVE",
"80 450 CURVE SMOOTH",
"80 0 LINE",
"170 0 LINE",
"170 517 LINE SMOOTH",
"170 720 OFFCURVE",
"211 738 OFFCURVE",
"259 738 CURVE SMOOTH",
"382 738 OFFCURVE",
"422 525 OFFCURVE",
"256 452 CURVE SMOOTH",
"225 438 OFFCURVE",
"224 416 OFFCURVE",
"252 405 CURVE SMOOTH",
"351 366 OFFCURVE",
"393 299 OFFCURVE",
"393 185 CURVE SMOOTH",
"393 72 OFFCURVE",
"367 20 OFFCURVE",
"310 20 CURVE"
);
}
);
width = 503;
},
{
anchors = (
{
name = bottom;
position = "{130, 0}";
},
{
name = top;
position = "{114, 600}";
}
);
associatedMasterId = "B5727F16-0A35-4648-A4D9-FB286E4462AB";
components = (
{
name = _corner.serif;
transform = "{1, 0, 0, -1, 80, 0}";
}
);
layerId = "DECC5A2B-122F-42A8-AEB4-C9FD11DDFB2F";
name = "Regular Dec 19 15, 21:23";
paths = (
{
closed = 1;
nodes = (
"282 10 OFFCURVE",
"314 21 OFFCURVE",
"323 49 CURVE SMOOTH",
"347 129 OFFCURVE",
"228 162 OFFCURVE",
"210 78 CURVE SMOOTH",
"200 32 OFFCURVE",
"234 -10 OFFCURVE",
"310 -10 CURVE SMOOTH",
"420 -10 OFFCURVE",
"493 68 OFFCURVE",
"493 185 CURVE SMOOTH",
"493 406 OFFCURVE",
"268 438 OFFCURVE",
"326 530 CURVE SMOOTH",
"380 615 OFFCURVE",
"390 780 OFFCURVE",
"259 780 CURVE SMOOTH",
"142 780 OFFCURVE",
"80 696 OFFCURVE",
"80 470 CURVE SMOOTH",
"80 0 LINE",
"170 0 LINE",
"170 537 LINE SMOOTH",
"170 740 OFFCURVE",
"211 760 OFFCURVE",
"259 760 CURVE SMOOTH",
"372 760 OFFCURVE",
"351 604 OFFCURVE",
"286 514 CURVE SMOOTH",
"177 363 OFFCURVE",
"393 389 OFFCURVE",
"393 175 CURVE SMOOTH",
"393 62 OFFCURVE",
"367 10 OFFCURVE",
"310 10 CURVE SMOOTH"
);
}
);
width = 503;
},
{
anchors = (
{
name = bottom;
position = "{238, 0}";
},
{
name = top;
position = "{182, 500}";
}
);
associatedMasterId = "B5727F16-0A35-4648-A4D9-FB286E4462AB";
layerId = "6DCA2E9B-1340-4016-9C09-64485810D5B0";
name = "Regular Dec 16 15, 16:40";
paths = (
{
closed = 1;
nodes = (
"156 69 LINE",
"168 25 OFFCURVE",
"208 -11 OFFCURVE",
"278 -9 CURVE SMOOTH",
"392 -6 OFFCURVE",
"485 73 OFFCURVE",
"485 193 CURVE SMOOTH",
"485 391 OFFCURVE",
"353 487 OFFCURVE",
"163 412 CURVE",
"171 393 LINE",
"296 444 OFFCURVE",
"385 408 OFFCURVE",
"385 193 CURVE SMOOTH",
"385 70 OFFCURVE",
"352 19 OFFCURVE",
"268 14 CURVE SMOOTH",
"221 11 OFFCURVE",
"188 37 OFFCURVE",
"176 79 CURVE"
);
},
{
closed = 1;
nodes = (
"98 -179 OFFCURVE",
"83 -225 OFFCURVE",
"23 -225 CURVE SMOOTH",
"5 -225 OFFCURVE",
"-10 -220 OFFCURVE",
"-27 -213 CURVE",
"-36 -230 LINE",
"-20 -240 OFFCURVE",
"0 -245 OFFCURVE",
"23 -245 CURVE SMOOTH",
"134 -245 OFFCURVE",
"188 -187.566 OFFCURVE",
"188 80 CURVE SMOOTH",
"188 580 LINE SMOOTH",
"188 693 OFFCURVE",
"204 738 OFFCURVE",
"244 738 CURVE SMOOTH",
"283 738 OFFCURVE",
"298 704 OFFCURVE",
"298 620 CURVE SMOOTH",
"298 479 OFFCURVE",
"261 405 OFFCURVE",
"25.859 395.262 CURVE",
"29.205 375.187 LINE",
"238.623 384.883 OFFCURVE",
"399 480 OFFCURVE",
"399 606 CURVE SMOOTH",
"399 713 OFFCURVE",
"357 765 OFFCURVE",
"264 765 CURVE SMOOTH",
"130 765 OFFCURVE",
"93 707 OFFCURVE",
"95 460 CURVE SMOOTH",
"98 0 LINE SMOOTH"
);
}
);
width = 515;
},
{
anchors = (
{
name = bottom;
position = "{130, 0}";
},
{
name = top;
position = "{114, 600}";
}
);
associatedMasterId = "B5727F16-0A35-4648-A4D9-FB286E4462AB";
components = (
{
name = _corner.serif;
transform = "{-1, 0, 0, -1, 170, 0}";
},
{
name = _corner.serif;
transform = "{1, 0, 0, -1, 80, 0}";
}
);
layerId = "84B40EF7-064C-4F0C-918D-AEBF1D2033A8";
name = "Regular Dec 16 15, 16:52";
paths = (
{
closed = 1;
nodes = (
"152 843 OFFCURVE",
"80 736 OFFCURVE",
"80 510 CURVE SMOOTH",
"80 0 LINE",
"170 0 LINE",
"170 577 LINE SMOOTH",
"170 780 OFFCURVE",
"201 823 OFFCURVE",
"269 823 CURVE SMOOTH",
"394 823 OFFCURVE",
"485 589 OFFCURVE",
"178 463 CURVE",
"184 443 LINE",
"516 570 OFFCURVE",
"435 843 OFFCURVE",
"269 843 CURVE SMOOTH"
);
},
{
closed = 0;
nodes = (
"80 0 LINE"
);
},
{
closed = 1;
nodes = (
"380.81 0 OFFCURVE",
"473 77 OFFCURVE",
"473 215 CURVE SMOOTH",
"473 351 OFFCURVE",
"345 449 OFFCURVE",
"188 463 CURVE",
"184 443 LINE",
"282 435 OFFCURVE",
"363 341 OFFCURVE",
"363 215 CURVE SMOOTH",
"363 87 OFFCURVE",
"369.691 20 OFFCURVE",
"250 20 CURVE",
"250 0 LINE"
);
}
);
width = 463;
},
{
anchors = (
{
name = bottom;
position = "{130, 0}";
},
{
name = top;
position = "{114, 600}";
}
);
associatedMasterId = "B5727F16-0A35-4648-A4D9-FB286E4462AB";
components = (
{
name = _corner.serif;
transform = "{1, 0, 0, -1, 80, 0}";
}
);
layerId = "32CFF189-517A-41CA-8F73-D83A6744556D";
name = "Regular Dec 16 15, 17:05";
paths = (
{
closed = 1;
nodes = (
"282 20 OFFCURVE",
"314 31 OFFCURVE",
"323 59 CURVE SMOOTH",
"347 139 OFFCURVE",
"228 172 OFFCURVE",
"210 88 CURVE SMOOTH",
"200 42 OFFCURVE",
"234 0 OFFCURVE",
"310 0 CURVE",
"438 0 OFFCURVE",
"523 82 OFFCURVE",
"523 205 CURVE SMOOTH",
"523 313 OFFCURVE",
"425 405 OFFCURVE",
"279 435 CURVE",
"283 422 LINE",
"463 499 OFFCURVE",
"425 760 OFFCURVE",
"259 760 CURVE SMOOTH",
"142 760 OFFCURVE",
"80 676 OFFCURVE",
"80 450 CURVE SMOOTH",
"80 0 LINE",
"170 0 LINE",
"170 517 LINE SMOOTH",
"170 720 OFFCURVE",
"211 738 OFFCURVE",
"269 738 CURVE SMOOTH",
"372 738 OFFCURVE",
"422 524 OFFCURVE",
"282 447 CURVE SMOOTH",
"262 436 OFFCURVE",
"258 414 OFFCURVE",
"281 402 CURVE SMOOTH",
"351 366 OFFCURVE",
"403 299 OFFCURVE",
"403 185 CURVE SMOOTH",
"403 59 OFFCURVE",
"367 20 OFFCURVE",
"310 20 CURVE"
);
}
);
width = 553;
},
{
anchors = (
{
name = bottom;
position = "{130, 0}";
},
{
name = top;
position = "{114, 600}";
}
);
associatedMasterId = "B5727F16-0A35-4648-A4D9-FB286E4462AB";
components = (
{
name = _corner.serif;
transform = "{1, 0, 0, -1, 80, 0}";
}
);
layerId = "E8072B37-A5B6-4651-B510-8CC6B9D3C7CE";
name = "Regular Dec 16 15, 17:07";
paths = (
{
closed = 1;
nodes = (
"282 20 OFFCURVE",
"314 31 OFFCURVE",
"323 59 CURVE SMOOTH",
"347 139 OFFCURVE",
"228 172 OFFCURVE",
"210 88 CURVE SMOOTH",
"200 42 OFFCURVE",
"234 0 OFFCURVE",
"310 0 CURVE",
"420 0 OFFCURVE",
"493 78 OFFCURVE",
"493 195 CURVE SMOOTH",
"493 313 OFFCURVE",
"407 409 OFFCURVE",
"279 435 CURVE",
"283 422 LINE",
"463 499 OFFCURVE",
"425 760 OFFCURVE",
"259 760 CURVE SMOOTH",
"142 760 OFFCURVE",
"80 676 OFFCURVE",
"80 450 CURVE SMOOTH",
"80 0 LINE",
"170 0 LINE",
"170 517 LINE SMOOTH",
"170 720 OFFCURVE",
"211 738 OFFCURVE",
"269 738 CURVE SMOOTH",
"372 738 OFFCURVE",
"422 527 OFFCURVE",
"282 450 CURVE SMOOTH",
"255 435 OFFCURVE",
"254 416 OFFCURVE",
"281 402 CURVE SMOOTH",
"351 366 OFFCURVE",
"393 299 OFFCURVE",
"393 185 CURVE SMOOTH",
"393 72 OFFCURVE",
"367 20 OFFCURVE",
"310 20 CURVE"
);
}
);
width = 523;
},
{
anchors = (
{
name = bottom;
position = "{130, 0}";
},
{
name = top;
position = "{114, 600}";
}
);
associatedMasterId = "B5727F16-0A35-4648-A4D9-FB286E4462AB";
components = (
{
name = _corner.serif;
transform = "{1, 0, 0, -1, 80, 0}";
}
);
layerId = "5826172D-2F63-43D3-ABD9-72051D11ABD8";
name = "Regular Dec 16 15, 17:07";
paths = (
{
closed = 1;
nodes = (
"282 20 OFFCURVE",
"314 31 OFFCURVE",
"323 59 CURVE SMOOTH",
"347 139 OFFCURVE",
"228 172 OFFCURVE",
"210 88 CURVE SMOOTH",
"200 42 OFFCURVE",
"234 0 OFFCURVE",
"310 0 CURVE",
"420 0 OFFCURVE",
"493 78 OFFCURVE",
"493 195 CURVE SMOOTH",
"493 313 OFFCURVE",
"407 409 OFFCURVE",
"249 435 CURVE",
"253 422 LINE",
"463 499 OFFCURVE",
"425 760 OFFCURVE",
"259 760 CURVE SMOOTH",
"142 760 OFFCURVE",
"80 676 OFFCURVE",
"80 450 CURVE SMOOTH",
"80 0 LINE",
"170 0 LINE",
"170 517 LINE SMOOTH",
"170 720 OFFCURVE",
"211 738 OFFCURVE",
"269 738 CURVE SMOOTH",
"372 738 OFFCURVE",
"422 527 OFFCURVE",
"252 448 CURVE SMOOTH",
"225 435 OFFCURVE",
"224 416 OFFCURVE",
"252 405 CURVE SMOOTH",
"351 366 OFFCURVE",
"393 299 OFFCURVE",
"393 185 CURVE SMOOTH",
"393 72 OFFCURVE",
"367 20 OFFCURVE",
"310 20 CURVE"
);
}
);
width = 523;
},
{
anchors = (
{
name = bottom;
position = "{130, 0}";
},
{
name = top;
position = "{114, 600}";
}
);
associatedMasterId = "B5727F16-0A35-4648-A4D9-FB286E4462AB";
components = (
{
name = _corner.serif;
transform = "{1, 0, 0, -1, 80, 0}";
}
);
layerId = "2FE4358F-DC27-4538-B157-7FADC4549186";
name = "Regular Dec 16 15, 20:54";
paths = (
{
closed = 1;
nodes = (
"282 20 OFFCURVE",
"314 31 OFFCURVE",
"323 59 CURVE SMOOTH",
"347 139 OFFCURVE",
"228 172 OFFCURVE",
"210 88 CURVE SMOOTH",
"200 42 OFFCURVE",
"234 0 OFFCURVE",
"310 0 CURVE",
"420 0 OFFCURVE",
"493 78 OFFCURVE",
"493 195 CURVE SMOOTH",
"493 313 OFFCURVE",
"407 409 OFFCURVE",
"249 435 CURVE",
"253 422 LINE",
"463 499 OFFCURVE",
"425 760 OFFCURVE",
"259 760 CURVE SMOOTH",
"142 760 OFFCURVE",
"80 676 OFFCURVE",
"80 450 CURVE SMOOTH",
"80 0 LINE",
"170 0 LINE",
"170 517 LINE SMOOTH",
"170 720 OFFCURVE",
"211 738 OFFCURVE",
"259 738 CURVE SMOOTH",
"382 738 OFFCURVE",
"422 525 OFFCURVE",
"256 452 CURVE SMOOTH",
"225 438 OFFCURVE",
"224 416 OFFCURVE",
"252 405 CURVE SMOOTH",
"351 366 OFFCURVE",
"393 299 OFFCURVE",
"393 185 CURVE SMOOTH",
"393 72 OFFCURVE",
"367 20 OFFCURVE",
"310 20 CURVE"
);
}
);
width = 503;
},
{
anchors = (
{
name = bottom;
position = "{130, 0}";
},
{
name = top;
position = "{114, 600}";
}
);
associatedMasterId = "B5727F16-0A35-4648-A4D9-FB286E4462AB";
components = (
{
name = _corner.serif;
transform = "{1, 0, 0, -1, 80, 0}";
}
);
layerId = "67C3FD35-DF1E-44ED-9EF4-A76746AF4916";
name = "Regular Dec 19 15, 21:23";
paths = (
{
closed = 1;
nodes = (
"282 10 OFFCURVE",
"314 21 OFFCURVE",
"323 49 CURVE SMOOTH",
"347 129 OFFCURVE",
"228 162 OFFCURVE",
"210 78 CURVE SMOOTH",
"200 32 OFFCURVE",
"234 -10 OFFCURVE",
"310 -10 CURVE SMOOTH",
"420 -10 OFFCURVE",
"493 68 OFFCURVE",
"493 185 CURVE SMOOTH",
"493 406 OFFCURVE",
"268 438 OFFCURVE",
"326 530 CURVE SMOOTH",
"380 615 OFFCURVE",
"390 780 OFFCURVE",
"259 780 CURVE SMOOTH",
"142 780 OFFCURVE",
"80 696 OFFCURVE",
"80 470 CURVE SMOOTH",
"80 0 LINE",
"170 0 LINE",
"170 537 LINE SMOOTH",
"170 740 OFFCURVE",
"211 760 OFFCURVE",
"259 760 CURVE SMOOTH",
"372 760 OFFCURVE",
"351 604 OFFCURVE",
"286 514 CURVE SMOOTH",
"177 363 OFFCURVE",
"393 389 OFFCURVE",
"393 175 CURVE SMOOTH",
"393 62 OFFCURVE",
"367 10 OFFCURVE",
"310 10 CURVE SMOOTH"
);
}
);
width = 503;
},
{
anchors = (
{
name = bottom;
position = "{238, 0}";
},
{
name = top;
position = "{182, 500}";
}
);
associatedMasterId = "B5727F16-0A35-4648-A4D9-FB286E4462AB";
layerId = "97643C90-9ADB-429D-ABF1-944654E5399A";
name = "Regular Dec 16 15, 16:40";
paths = (
{
closed = 1;
nodes = (
"156 69 LINE",
"168 25 OFFCURVE",
"208 -11 OFFCURVE",
"278 -9 CURVE SMOOTH",
"392 -6 OFFCURVE",
"485 73 OFFCURVE",
"485 193 CURVE SMOOTH",
"485 391 OFFCURVE",
"353 487 OFFCURVE",
"163 412 CURVE",
"171 393 LINE",
"296 444 OFFCURVE",
"385 408 OFFCURVE",
"385 193 CURVE SMOOTH",
"385 70 OFFCURVE",
"352 19 OFFCURVE",
"268 14 CURVE SMOOTH",
"221 11 OFFCURVE",
"188 37 OFFCURVE",
"176 79 CURVE"
);
},
{
closed = 1;
nodes = (
"98 -179 OFFCURVE",
"83 -225 OFFCURVE",
"23 -225 CURVE SMOOTH",
"5 -225 OFFCURVE",
"-10 -220 OFFCURVE",
"-27 -213 CURVE",
"-36 -230 LINE",
"-20 -240 OFFCURVE",
"0 -245 OFFCURVE",
"23 -245 CURVE SMOOTH",
"134 -245 OFFCURVE",
"188 -187.566 OFFCURVE",
"188 80 CURVE SMOOTH",
"188 580 LINE SMOOTH",
"188 693 OFFCURVE",
"204 738 OFFCURVE",
"244 738 CURVE SMOOTH",
"283 738 OFFCURVE",
"298 704 OFFCURVE",
"298 620 CURVE SMOOTH",
"298 479 OFFCURVE",
"261 405 OFFCURVE",
"25.859 395.262 CURVE",
"29.205 375.187 LINE",
"238.623 384.883 OFFCURVE",
"399 480 OFFCURVE",
"399 606 CURVE SMOOTH",
"399 713 OFFCURVE",
"357 765 OFFCURVE",
"264 765 CURVE SMOOTH",
"130 765 OFFCURVE",
"93 707 OFFCURVE",
"95 460 CURVE SMOOTH",
"98 0 LINE SMOOTH"
);
}
);
width = 515;
},
{
anchors = (
{
name = bottom;
position = "{130, 0}";
},
{
name = top;
position = "{114, 600}";
}
);
associatedMasterId = "B5727F16-0A35-4648-A4D9-FB286E4462AB";
components = (
{
name = _corner.serif;
transform = "{-1, 0, 0, -1, 170, 0}";
},
{
name = _corner.serif;
transform = "{1, 0, 0, -1, 80, 0}";
}
);
layerId = "6C67D4B5-CC89-4E42-A3E3-238690F25D53";
name = "Regular Dec 16 15, 16:52";
paths = (
{
closed = 1;
nodes = (
"152 843 OFFCURVE",
"80 736 OFFCURVE",
"80 510 CURVE SMOOTH",
"80 0 LINE",
"170 0 LINE",
"170 577 LINE SMOOTH",
"170 780 OFFCURVE",
"201 823 OFFCURVE",
"269 823 CURVE SMOOTH",
"394 823 OFFCURVE",
"485 589 OFFCURVE",
"178 463 CURVE",
"184 443 LINE",
"516 570 OFFCURVE",
"435 843 OFFCURVE",
"269 843 CURVE SMOOTH"
);
},
{
closed = 0;
nodes = (
"80 0 LINE"
);
},
{
closed = 1;
nodes = (
"380.81 0 OFFCURVE",
"473 77 OFFCURVE",
"473 215 CURVE SMOOTH",
"473 351 OFFCURVE",
"345 449 OFFCURVE",
"188 463 CURVE",
"184 443 LINE",
"282 435 OFFCURVE",
"363 341 OFFCURVE",
"363 215 CURVE SMOOTH",
"363 87 OFFCURVE",
"369.691 20 OFFCURVE",
"250 20 CURVE",
"250 0 LINE"
);
}
);
width = 463;
},
{
anchors = (
{
name = bottom;
position = "{130, 0}";
},
{
name = top;
position = "{114, 600}";
}
);
associatedMasterId = "B5727F16-0A35-4648-A4D9-FB286E4462AB";
components = (
{
name = _corner.serif;
transform = "{1, 0, 0, -1, 80, 0}";
}
);
layerId = "128019B1-D362-4F24-BB40-45AA1ECF8770";
name = "Regular Dec 16 15, 17:05";
paths = (
{
closed = 1;
nodes = (
"282 20 OFFCURVE",
"314 31 OFFCURVE",
"323 59 CURVE SMOOTH",
"347 139 OFFCURVE",
"228 172 OFFCURVE",
"210 88 CURVE SMOOTH",
"200 42 OFFCURVE",
"234 0 OFFCURVE",
"310 0 CURVE",
"438 0 OFFCURVE",
"523 82 OFFCURVE",
"523 205 CURVE SMOOTH",
"523 313 OFFCURVE",
"425 405 OFFCURVE",
"279 435 CURVE",
"283 422 LINE",
"463 499 OFFCURVE",
"425 760 OFFCURVE",
"259 760 CURVE SMOOTH",
"142 760 OFFCURVE",
"80 676 OFFCURVE",
"80 450 CURVE SMOOTH",
"80 0 LINE",
"170 0 LINE",
"170 517 LINE SMOOTH",
"170 720 OFFCURVE",
"211 738 OFFCURVE",
"269 738 CURVE SMOOTH",
"372 738 OFFCURVE",
"422 524 OFFCURVE",
"282 447 CURVE SMOOTH",
"262 436 OFFCURVE",
"258 414 OFFCURVE",
"281 402 CURVE SMOOTH",
"351 366 OFFCURVE",
"403 299 OFFCURVE",
"403 185 CURVE SMOOTH",
"403 59 OFFCURVE",
"367 20 OFFCURVE",
"310 20 CURVE"
);
}
);
width = 553;
},
{
anchors = (
{
name = bottom;
position = "{130, 0}";
},
{
name = top;
position = "{114, 600}";
}
);
associatedMasterId = "B5727F16-0A35-4648-A4D9-FB286E4462AB";
components = (
{
name = _corner.serif;
transform = "{1, 0, 0, -1, 80, 0}";
}
);
layerId = "9B647EA8-5E9C-4B7E-B9AC-8C07D83CC848";
name = "Regular Dec 16 15, 17:07";
paths = (
{
closed = 1;
nodes = (
"282 20 OFFCURVE",
"314 31 OFFCURVE",
"323 59 CURVE SMOOTH",
"347 139 OFFCURVE",
"228 172 OFFCURVE",
"210 88 CURVE SMOOTH",
"200 42 OFFCURVE",
"234 0 OFFCURVE",
"310 0 CURVE",
"420 0 OFFCURVE",
"493 78 OFFCURVE",
"493 195 CURVE SMOOTH",
"493 313 OFFCURVE",
"407 409 OFFCURVE",
"279 435 CURVE",
"283 422 LINE",
"463 499 OFFCURVE",
"425 760 OFFCURVE",
"259 760 CURVE SMOOTH",
"142 760 OFFCURVE",
"80 676 OFFCURVE",
"80 450 CURVE SMOOTH",
"80 0 LINE",
"170 0 LINE",
"170 517 LINE SMOOTH",
"170 720 OFFCURVE",
"211 738 OFFCURVE",
"269 738 CURVE SMOOTH",
"372 738 OFFCURVE",
"422 527 OFFCURVE",
"282 450 CURVE SMOOTH",
"255 435 OFFCURVE",
"254 416 OFFCURVE",
"281 402 CURVE SMOOTH",
"351 366 OFFCURVE",
"393 299 OFFCURVE",
"393 185 CURVE SMOOTH",
"393 72 OFFCURVE",
"367 20 OFFCURVE",
"310 20 CURVE"
);
}
);
width = 523;
},
{
anchors = (
{
name = bottom;
position = "{130, 0}";
},
{
name = top;
position = "{114, 600}";
}
);
associatedMasterId = "B5727F16-0A35-4648-A4D9-FB286E4462AB";
components = (
{
name = _corner.serif;
transform = "{1, 0, 0, -1, 80, 0}";
}
);
layerId = "781808F1-15EA-44F8-BA25-6D3EF8FF42E0";
name = "Regular Dec 16 15, 17:07";
paths = (
{
closed = 1;
nodes = (
"282 20 OFFCURVE",
"314 31 OFFCURVE",
"323 59 CURVE SMOOTH",
"347 139 OFFCURVE",
"228 172 OFFCURVE",
"210 88 CURVE SMOOTH",
"200 42 OFFCURVE",
"234 0 OFFCURVE",
"310 0 CURVE",
"420 0 OFFCURVE",
"493 78 OFFCURVE",
"493 195 CURVE SMOOTH",
"493 313 OFFCURVE",
"407 409 OFFCURVE",
"249 435 CURVE",
"253 422 LINE",
"463 499 OFFCURVE",
"425 760 OFFCURVE",
"259 760 CURVE SMOOTH",
"142 760 OFFCURVE",
"80 676 OFFCURVE",
"80 450 CURVE SMOOTH",
"80 0 LINE",
"170 0 LINE",
"170 517 LINE SMOOTH",
"170 720 OFFCURVE",
"211 738 OFFCURVE",
"269 738 CURVE SMOOTH",
"372 738 OFFCURVE",
"422 527 OFFCURVE",
"252 448 CURVE SMOOTH",
"225 435 OFFCURVE",
"224 416 OFFCURVE",
"252 405 CURVE SMOOTH",
"351 366 OFFCURVE",
"393 299 OFFCURVE",
"393 185 CURVE SMOOTH",
"393 72 OFFCURVE",
"367 20 OFFCURVE",
"310 20 CURVE"
);
}
);
width = 523;
},
{
anchors = (
{
name = bottom;
position = "{130, 0}";
},
{
name = top;
position = "{114, 600}";
}
);
associatedMasterId = "B5727F16-0A35-4648-A4D9-FB286E4462AB";
components = (
{
name = _corner.serif;
transform = "{1, 0, 0, -1, 80, 0}";
}
);
layerId = "185A4F72-18F6-418D-AB9F-5E130AEDAB61";
name = "Regular Dec 16 15, 20:54";
paths = (
{
closed = 1;
nodes = (
"282 20 OFFCURVE",
"314 31 OFFCURVE",
"323 59 CURVE SMOOTH",
"347 139 OFFCURVE",
"228 172 OFFCURVE",
"210 88 CURVE SMOOTH",
"200 42 OFFCURVE",
"234 0 OFFCURVE",
"310 0 CURVE",
"420 0 OFFCURVE",
"493 78 OFFCURVE",
"493 195 CURVE SMOOTH",
"493 313 OFFCURVE",
"407 409 OFFCURVE",
"249 435 CURVE",
"253 422 LINE",
"463 499 OFFCURVE",
"425 760 OFFCURVE",
"259 760 CURVE SMOOTH",
"142 760 OFFCURVE",
"80 676 OFFCURVE",
"80 450 CURVE SMOOTH",
"80 0 LINE",
"170 0 LINE",
"170 517 LINE SMOOTH",
"170 720 OFFCURVE",
"211 738 OFFCURVE",
"259 738 CURVE SMOOTH",
"382 738 OFFCURVE",
"422 525 OFFCURVE",
"256 452 CURVE SMOOTH",
"225 438 OFFCURVE",
"224 416 OFFCURVE",
"252 405 CURVE SMOOTH",
"351 366 OFFCURVE",
"393 299 OFFCURVE",
"393 185 CURVE SMOOTH",
"393 72 OFFCURVE",
"367 20 OFFCURVE",
"310 20 CURVE"
);
}
);
width = 503;
},
{
anchors = (
{
name = bottom;
position = "{130, 0}";
},
{
name = top;
position = "{114, 600}";
}
);
associatedMasterId = "B5727F16-0A35-4648-A4D9-FB286E4462AB";
components = (
{
name = _corner.serif;
transform = "{1, 0, 0, -1, 80, 0}";
}
);
layerId = "1D69DA2A-50CD-4E6F-9177-6FB4F6D3A7B9";
name = "Regular Dec 19 15, 21:23";
paths = (
{
closed = 1;
nodes = (
"282 10 OFFCURVE",
"314 21 OFFCURVE",
"323 49 CURVE SMOOTH",
"347 129 OFFCURVE",
"228 162 OFFCURVE",
"210 78 CURVE SMOOTH",
"200 32 OFFCURVE",
"234 -10 OFFCURVE",
"310 -10 CURVE SMOOTH",
"420 -10 OFFCURVE",
"493 68 OFFCURVE",
"493 185 CURVE SMOOTH",
"493 406 OFFCURVE",
"268 438 OFFCURVE",
"326 530 CURVE SMOOTH",
"380 615 OFFCURVE",
"390 780 OFFCURVE",
"259 780 CURVE SMOOTH",
"142 780 OFFCURVE",
"80 696 OFFCURVE",
"80 470 CURVE SMOOTH",
"80 0 LINE",
"170 0 LINE",
"170 537 LINE SMOOTH",
"170 740 OFFCURVE",
"211 760 OFFCURVE",
"259 760 CURVE SMOOTH",
"372 760 OFFCURVE",
"351 604 OFFCURVE",
"286 514 CURVE SMOOTH",
"177 363 OFFCURVE",
"393 389 OFFCURVE",
"393 175 CURVE SMOOTH",
"393 62 OFFCURVE",
"367 10 OFFCURVE",
"310 10 CURVE SMOOTH"
);
}
);
width = 503;
},
{
anchors = (
{
name = bottom;
position = "{238, 0}";
},
{
name = top;
position = "{182, 500}";
}
);
associatedMasterId = "B5727F16-0A35-4648-A4D9-FB286E4462AB";
layerId = "78A3501D-84D7-49CF-A49E-5085744E76FD";
name = "Regular Dec 16 15, 16:40";
paths = (
{
closed = 1;
nodes = (
"156 69 LINE",
"168 25 OFFCURVE",
"208 -11 OFFCURVE",
"278 -9 CURVE SMOOTH",
"392 -6 OFFCURVE",
"485 73 OFFCURVE",
"485 193 CURVE SMOOTH",
"485 391 OFFCURVE",
"353 487 OFFCURVE",
"163 412 CURVE",
"171 393 LINE",
"296 444 OFFCURVE",
"385 408 OFFCURVE",
"385 193 CURVE SMOOTH",
"385 70 OFFCURVE",
"352 19 OFFCURVE",
"268 14 CURVE SMOOTH",
"221 11 OFFCURVE",
"188 37 OFFCURVE",
"176 79 CURVE"
);
},
{
closed = 1;
nodes = (
"98 -179 OFFCURVE",
"83 -225 OFFCURVE",
"23 -225 CURVE SMOOTH",
"5 -225 OFFCURVE",
"-10 -220 OFFCURVE",
"-27 -213 CURVE",
"-36 -230 LINE",
"-20 -240 OFFCURVE",
"0 -245 OFFCURVE",
"23 -245 CURVE SMOOTH",
"134 -245 OFFCURVE",
"188 -187.566 OFFCURVE",
"188 80 CURVE SMOOTH",
"188 580 LINE SMOOTH",
"188 693 OFFCURVE",
"204 738 OFFCURVE",
"244 738 CURVE SMOOTH",
"283 738 OFFCURVE",
"298 704 OFFCURVE",
"298 620 CURVE SMOOTH",
"298 479 OFFCURVE",
"261 405 OFFCURVE",
"25.859 395.262 CURVE",
"29.205 375.187 LINE",
"238.623 384.883 OFFCURVE",
"399 480 OFFCURVE",
"399 606 CURVE SMOOTH",
"399 713 OFFCURVE",
"357 765 OFFCURVE",
"264 765 CURVE SMOOTH",
"130 765 OFFCURVE",
"93 707 OFFCURVE",
"95 460 CURVE SMOOTH",
"98 0 LINE SMOOTH"
);
}
);
width = 515;
},
{
anchors = (
{
name = bottom;
position = "{130, 0}";
},
{
name = top;
position = "{114, 600}";
}
);
associatedMasterId = "B5727F16-0A35-4648-A4D9-FB286E4462AB";
components = (
{
name = _corner.serif;
transform = "{-1, 0, 0, -1, 170, 0}";
},
{
name = _corner.serif;
transform = "{1, 0, 0, -1, 80, 0}";
}
);
layerId = "DBD17590-8FCF-4A48-8A2D-6347C30BA500";
name = "Regular Dec 16 15, 16:52";
paths = (
{
closed = 1;
nodes = (
"152 843 OFFCURVE",
"80 736 OFFCURVE",
"80 510 CURVE SMOOTH",
"80 0 LINE",
"170 0 LINE",
"170 577 LINE SMOOTH",
"170 780 OFFCURVE",
"201 823 OFFCURVE",
"269 823 CURVE SMOOTH",
"394 823 OFFCURVE",
"485 589 OFFCURVE",
"178 463 CURVE",
"184 443 LINE",
"516 570 OFFCURVE",
"435 843 OFFCURVE",
"269 843 CURVE SMOOTH"
);
},
{
closed = 0;
nodes = (
"80 0 LINE"
);
},
{
closed = 1;
nodes = (
"380.81 0 OFFCURVE",
"473 77 OFFCURVE",
"473 215 CURVE SMOOTH",
"473 351 OFFCURVE",
"345 449 OFFCURVE",
"188 463 CURVE",
"184 443 LINE",
"282 435 OFFCURVE",
"363 341 OFFCURVE",
"363 215 CURVE SMOOTH",
"363 87 OFFCURVE",
"369.691 20 OFFCURVE",
"250 20 CURVE",
"250 0 LINE"
);
}
);
width = 463;
},
{
anchors = (
{
name = bottom;
position = "{130, 0}";
},
{
name = top;
position = "{114, 600}";
}
);
associatedMasterId = "B5727F16-0A35-4648-A4D9-FB286E4462AB";
components = (
{
name = _corner.serif;
transform = "{1, 0, 0, -1, 80, 0}";
}
);
layerId = "7FAAE4E4-6112-46C6-80F4-87CEF72BEE05";
name = "Regular Dec 16 15, 17:05";
paths = (
{
closed = 1;
nodes = (
"282 20 OFFCURVE",
"314 31 OFFCURVE",
"323 59 CURVE SMOOTH",
"347 139 OFFCURVE",
"228 172 OFFCURVE",
"210 88 CURVE SMOOTH",
"200 42 OFFCURVE",
"234 0 OFFCURVE",
"310 0 CURVE",
"438 0 OFFCURVE",
"523 82 OFFCURVE",
"523 205 CURVE SMOOTH",
"523 313 OFFCURVE",
"425 405 OFFCURVE",
"279 435 CURVE",
"283 422 LINE",
"463 499 OFFCURVE",
"425 760 OFFCURVE",
"259 760 CURVE SMOOTH",
"142 760 OFFCURVE",
"80 676 OFFCURVE",
"80 450 CURVE SMOOTH",
"80 0 LINE",
"170 0 LINE",
"170 517 LINE SMOOTH",
"170 720 OFFCURVE",
"211 738 OFFCURVE",
"269 738 CURVE SMOOTH",
"372 738 OFFCURVE",
"422 524 OFFCURVE",
"282 447 CURVE SMOOTH",
"262 436 OFFCURVE",
"258 414 OFFCURVE",
"281 402 CURVE SMOOTH",
"351 366 OFFCURVE",
"403 299 OFFCURVE",
"403 185 CURVE SMOOTH",
"403 59 OFFCURVE",
"367 20 OFFCURVE",
"310 20 CURVE"
);
}
);
width = 553;
},
{
anchors = (
{
name = bottom;
position = "{130, 0}";
},
{
name = top;
position = "{114, 600}";
}
);
associatedMasterId = "B5727F16-0A35-4648-A4D9-FB286E4462AB";
components = (
{
name = _corner.serif;
transform = "{1, 0, 0, -1, 80, 0}";
}
);
layerId = "7FE68104-0B73-4B18-A6B7-0305AF420DF5";
name = "Regular Dec 16 15, 17:07";
paths = (
{
closed = 1;
nodes = (
"282 20 OFFCURVE",
"314 31 OFFCURVE",
"323 59 CURVE SMOOTH",
"347 139 OFFCURVE",
"228 172 OFFCURVE",
"210 88 CURVE SMOOTH",
"200 42 OFFCURVE",
"234 0 OFFCURVE",
"310 0 CURVE",
"420 0 OFFCURVE",
"493 78 OFFCURVE",
"493 195 CURVE SMOOTH",
"493 313 OFFCURVE",
"407 409 OFFCURVE",
"279 435 CURVE",
"283 422 LINE",
"463 499 OFFCURVE",
"425 760 OFFCURVE",
"259 760 CURVE SMOOTH",
"142 760 OFFCURVE",
"80 676 OFFCURVE",
"80 450 CURVE SMOOTH",
"80 0 LINE",
"170 0 LINE",
"170 517 LINE SMOOTH",
"170 720 OFFCURVE",
"211 738 OFFCURVE",
"269 738 CURVE SMOOTH",
"372 738 OFFCURVE",
"422 527 OFFCURVE",
"282 450 CURVE SMOOTH",
"255 435 OFFCURVE",
"254 416 OFFCURVE",
"281 402 CURVE SMOOTH",
"351 366 OFFCURVE",
"393 299 OFFCURVE",
"393 185 CURVE SMOOTH",
"393 72 OFFCURVE",
"367 20 OFFCURVE",
"310 20 CURVE"
);
}
);
width = 523;
},
{
anchors = (
{
name = bottom;
position = "{130, 0}";
},
{
name = top;
position = "{114, 600}";
}
);
associatedMasterId = "B5727F16-0A35-4648-A4D9-FB286E4462AB";
components = (
{
name = _corner.serif;
transform = "{1, 0, 0, -1, 80, 0}";
}
);
layerId = "B31BFDA5-1FB3-4F2F-83B8-EE9593DE4196";
name = "Regular Dec 16 15, 17:07";
paths = (
{
closed = 1;
nodes = (
"282 20 OFFCURVE",
"314 31 OFFCURVE",
"323 59 CURVE SMOOTH",
"347 139 OFFCURVE",
"228 172 OFFCURVE",
"210 88 CURVE SMOOTH",
"200 42 OFFCURVE",
"234 0 OFFCURVE",
"310 0 CURVE",
"420 0 OFFCURVE",
"493 78 OFFCURVE",
"493 195 CURVE SMOOTH",
"493 313 OFFCURVE",
"407 409 OFFCURVE",
"249 435 CURVE",
"253 422 LINE",
"463 499 OFFCURVE",
"425 760 OFFCURVE",
"259 760 CURVE SMOOTH",
"142 760 OFFCURVE",
"80 676 OFFCURVE",
"80 450 CURVE SMOOTH",
"80 0 LINE",
"170 0 LINE",
"170 517 LINE SMOOTH",
"170 720 OFFCURVE",
"211 738 OFFCURVE",
"269 738 CURVE SMOOTH",
"372 738 OFFCURVE",
"422 527 OFFCURVE",
"252 448 CURVE SMOOTH",
"225 435 OFFCURVE",
"224 416 OFFCURVE",
"252 405 CURVE SMOOTH",
"351 366 OFFCURVE",
"393 299 OFFCURVE",
"393 185 CURVE SMOOTH",
"393 72 OFFCURVE",
"367 20 OFFCURVE",
"310 20 CURVE"
);
}
);
width = 523;
},
{
anchors = (
{
name = bottom;
position = "{130, 0}";
},
{
name = top;
position = "{114, 600}";
}
);
associatedMasterId = "B5727F16-0A35-4648-A4D9-FB286E4462AB";
components = (
{
name = _corner.serif;
transform = "{1, 0, 0, -1, 80, 0}";
}
);
layerId = "6FE855E4-FA58-49AE-9766-2EB411398523";
name = "Regular Dec 16 15, 20:54";
paths = (
{
closed = 1;
nodes = (
"282 20 OFFCURVE",
"314 31 OFFCURVE",
"323 59 CURVE SMOOTH",
"347 139 OFFCURVE",
"228 172 OFFCURVE",
"210 88 CURVE SMOOTH",
"200 42 OFFCURVE",
"234 0 OFFCURVE",
"310 0 CURVE",
"420 0 OFFCURVE",
"493 78 OFFCURVE",
"493 195 CURVE SMOOTH",
"493 313 OFFCURVE",
"407 409 OFFCURVE",
"249 435 CURVE",
"253 422 LINE",
"463 499 OFFCURVE",
"425 760 OFFCURVE",
"259 760 CURVE SMOOTH",
"142 760 OFFCURVE",
"80 676 OFFCURVE",
"80 450 CURVE SMOOTH",
"80 0 LINE",
"170 0 LINE",
"170 517 LINE SMOOTH",
"170 720 OFFCURVE",
"211 738 OFFCURVE",
"259 738 CURVE SMOOTH",
"382 738 OFFCURVE",
"422 525 OFFCURVE",
"256 452 CURVE SMOOTH",
"225 438 OFFCURVE",
"224 416 OFFCURVE",
"252 405 CURVE SMOOTH",
"351 366 OFFCURVE",
"393 299 OFFCURVE",
"393 185 CURVE SMOOTH",
"393 72 OFFCURVE",
"367 20 OFFCURVE",
"310 20 CURVE"
);
}
);
width = 503;
},
{
anchors = (
{
name = bottom;
position = "{130, 0}";
},
{
name = top;
position = "{114, 600}";
}
);
associatedMasterId = "B5727F16-0A35-4648-A4D9-FB286E4462AB";
components = (
{
name = _corner.serif;
transform = "{1, 0, 0, -1, 80, 0}";
}
);
layerId = "0726A9B4-67F4-41B8-BE76-DE5CB181CF4B";
name = "Regular Dec 19 15, 21:23";
paths = (
{
closed = 1;
nodes = (
"282 10 OFFCURVE",
"314 21 OFFCURVE",
"323 49 CURVE SMOOTH",
"347 129 OFFCURVE",
"228 162 OFFCURVE",
"210 78 CURVE SMOOTH",
"200 32 OFFCURVE",
"234 -10 OFFCURVE",
"310 -10 CURVE SMOOTH",
"420 -10 OFFCURVE",
"493 68 OFFCURVE",
"493 185 CURVE SMOOTH",
"493 406 OFFCURVE",
"268 438 OFFCURVE",
"326 530 CURVE SMOOTH",
"380 615 OFFCURVE",
"390 780 OFFCURVE",
"259 780 CURVE SMOOTH",
"142 780 OFFCURVE",
"80 696 OFFCURVE",
"80 470 CURVE SMOOTH",
"80 0 LINE",
"170 0 LINE",
"170 537 LINE SMOOTH",
"170 740 OFFCURVE",
"211 760 OFFCURVE",
"259 760 CURVE SMOOTH",
"372 760 OFFCURVE",
"351 604 OFFCURVE",
"286 514 CURVE SMOOTH",
"177 363 OFFCURVE",
"393 389 OFFCURVE",
"393 175 CURVE SMOOTH",
"393 62 OFFCURVE",
"367 10 OFFCURVE",
"310 10 CURVE SMOOTH"
);
}
);
width = 503;
},
{
anchors = (
{
name = bottom;
position = "{170, 0}";
},
{
name = top;
position = "{154, 600}";
}
);
hints = (
{
origin = "{1, 16}";
scale = "{-1, 1}";
type = Corner;
name = _corner.serif;
options = 1;
}
);
layerId = "B5727F16-0A35-4648-A4D9-FB286E4462AB";
paths = (
{
closed = 1;
nodes = (
"352 10 OFFCURVE",
"387 21 OFFCURVE",
"396 49 CURVE SMOOTH",
"422 129 OFFCURVE",
"295 162 OFFCURVE",
"276 78 CURVE SMOOTH",
"265 32 OFFCURVE",
"301 -10 OFFCURVE",
"382 -10 CURVE SMOOTH",
"499 -10 OFFCURVE",
"598 68 OFFCURVE",
"598 195 CURVE SMOOTH",
"598 356 OFFCURVE",
"410 427 OFFCURVE",
"263 381 CURVE",
"267 367 LINE",
"371 390 OFFCURVE",
"501 338 OFFCURVE",
"501 185 CURVE SMOOTH",
"501 62 OFFCURVE",
"443 10 OFFCURVE",
"382 10 CURVE SMOOTH"
);
},
{
closed = 1;
nodes = (
"210 0 LINE",
"210 438 LINE SMOOTH",
"210 740 OFFCURVE",
"202 749 OFFCURVE",
"421 729 CURVE",
"410 628 OFFCURVE",
"349 486 OFFCURVE",
"263 381 CURVE",
"347 377 LINE",
"444 473 OFFCURVE",
"503 603 OFFCURVE",
"529 740 CURVE",
"422 750 LINE SMOOTH",
"121 778 OFFCURVE",
"110 720 OFFCURVE",
"110 398 CURVE SMOOTH",
"110 0 LINE"
);
}
);
width = 621;
},
{
anchors = (
{
name = bottom;
position = "{238, 0}";
},
{
name = top;
position = "{182, 500}";
}
);
associatedMasterId = "B5727F16-0A35-4648-A4D9-FB286E4462AB";
layerId = "3F8CFE81-C578-4F9D-97A4-33A9CC47AEB1";
name = "Regular Dec 16 15, 16:40";
paths = (
{
closed = 1;
nodes = (
"156 69 LINE",
"168 25 OFFCURVE",
"208 -11 OFFCURVE",
"278 -9 CURVE SMOOTH",
"392 -6 OFFCURVE",
"485 73 OFFCURVE",
"485 193 CURVE SMOOTH",
"485 391 OFFCURVE",
"353 487 OFFCURVE",
"163 412 CURVE",
"171 393 LINE",
"296 444 OFFCURVE",
"385 408 OFFCURVE",
"385 193 CURVE SMOOTH",
"385 70 OFFCURVE",
"352 19 OFFCURVE",
"268 14 CURVE SMOOTH",
"221 11 OFFCURVE",
"188 37 OFFCURVE",
"176 79 CURVE"
);
},
{
closed = 1;
nodes = (
"98 -179 OFFCURVE",
"83 -225 OFFCURVE",
"23 -225 CURVE SMOOTH",
"5 -225 OFFCURVE",
"-10 -220 OFFCURVE",
"-27 -213 CURVE",
"-36 -230 LINE",
"-20 -240 OFFCURVE",
"0 -245 OFFCURVE",
"23 -245 CURVE SMOOTH",
"134 -245 OFFCURVE",
"188 -187.566 OFFCURVE",
"188 80 CURVE SMOOTH",
"188 580 LINE SMOOTH",
"188 693 OFFCURVE",
"204 738 OFFCURVE",
"244 738 CURVE SMOOTH",
"283 738 OFFCURVE",
"298 704 OFFCURVE",
"298 620 CURVE SMOOTH",
"298 479 OFFCURVE",
"261 405 OFFCURVE",
"25.859 395.262 CURVE",
"29.205 375.187 LINE",
"238.623 384.883 OFFCURVE",
"399 480 OFFCURVE",
"399 606 CURVE SMOOTH",
"399 713 OFFCURVE",
"357 765 OFFCURVE",
"264 765 CURVE SMOOTH",
"130 765 OFFCURVE",
"93 707 OFFCURVE",
"95 460 CURVE SMOOTH",
"98 0 LINE SMOOTH"
);
}
);
width = 515;
},
{
anchors = (
{
name = bottom;
position = "{130, 0}";
},
{
name = top;
position = "{114, 600}";
}
);
associatedMasterId = "B5727F16-0A35-4648-A4D9-FB286E4462AB";
components = (
{
name = _corner.serif;
transform = "{-1, 0, 0, -1, 170, 0}";
},
{
name = _corner.serif;
transform = "{1, 0, 0, -1, 80, 0}";
}
);
layerId = "9B39A639-075E-452A-9DD3-D0681608D9F3";
name = "Regular Dec 16 15, 16:52";
paths = (
{
closed = 1;
nodes = (
"152 843 OFFCURVE",
"80 736 OFFCURVE",
"80 510 CURVE SMOOTH",
"80 0 LINE",
"170 0 LINE",
"170 577 LINE SMOOTH",
"170 780 OFFCURVE",
"201 823 OFFCURVE",
"269 823 CURVE SMOOTH",
"394 823 OFFCURVE",
"485 589 OFFCURVE",
"178 463 CURVE",
"184 443 LINE",
"516 570 OFFCURVE",
"435 843 OFFCURVE",
"269 843 CURVE SMOOTH"
);
},
{
closed = 0;
nodes = (
"80 0 LINE"
);
},
{
closed = 1;
nodes = (
"380.81 0 OFFCURVE",
"473 77 OFFCURVE",
"473 215 CURVE SMOOTH",
"473 351 OFFCURVE",
"345 449 OFFCURVE",
"188 463 CURVE",
"184 443 LINE",
"282 435 OFFCURVE",
"363 341 OFFCURVE",
"363 215 CURVE SMOOTH",
"363 87 OFFCURVE",
"369.691 20 OFFCURVE",
"250 20 CURVE",
"250 0 LINE"
);
}
);
width = 463;
},
{
anchors = (
{
name = bottom;
position = "{130, 0}";
},
{
name = top;
position = "{114, 600}";
}
);
associatedMasterId = "B5727F16-0A35-4648-A4D9-FB286E4462AB";
components = (
{
name = _corner.serif;
transform = "{1, 0, 0, -1, 80, 0}";
}
);
layerId = "642DA905-5B3A-4E57-9E0A-DE75C90834DB";
name = "Regular Dec 16 15, 17:05";
paths = (
{
closed = 1;
nodes = (
"282 20 OFFCURVE",
"314 31 OFFCURVE",
"323 59 CURVE SMOOTH",
"347 139 OFFCURVE",
"228 172 OFFCURVE",
"210 88 CURVE SMOOTH",
"200 42 OFFCURVE",
"234 0 OFFCURVE",
"310 0 CURVE",
"438 0 OFFCURVE",
"523 82 OFFCURVE",
"523 205 CURVE SMOOTH",
"523 313 OFFCURVE",
"425 405 OFFCURVE",
"279 435 CURVE",
"283 422 LINE",
"463 499 OFFCURVE",
"425 760 OFFCURVE",
"259 760 CURVE SMOOTH",
"142 760 OFFCURVE",
"80 676 OFFCURVE",
"80 450 CURVE SMOOTH",
"80 0 LINE",
"170 0 LINE",
"170 517 LINE SMOOTH",
"170 720 OFFCURVE",
"211 738 OFFCURVE",
"269 738 CURVE SMOOTH",
"372 738 OFFCURVE",
"422 524 OFFCURVE",
"282 447 CURVE SMOOTH",
"262 436 OFFCURVE",
"258 414 OFFCURVE",
"281 402 CURVE SMOOTH",
"351 366 OFFCURVE",
"403 299 OFFCURVE",
"403 185 CURVE SMOOTH",
"403 59 OFFCURVE",
"367 20 OFFCURVE",
"310 20 CURVE"
);
}
);
width = 553;
},
{
anchors = (
{
name = bottom;
position = "{130, 0}";
},
{
name = top;
position = "{114, 600}";
}
);
associatedMasterId = "B5727F16-0A35-4648-A4D9-FB286E4462AB";
components = (
{
name = _corner.serif;
transform = "{1, 0, 0, -1, 80, 0}";
}
);
layerId = "A8EEDF1E-41EF-4E64-8C86-1EB2291E628C";
name = "Regular Dec 16 15, 17:07";
paths = (
{
closed = 1;
nodes = (
"282 20 OFFCURVE",
"314 31 OFFCURVE",
"323 59 CURVE SMOOTH",
"347 139 OFFCURVE",
"228 172 OFFCURVE",
"210 88 CURVE SMOOTH",
"200 42 OFFCURVE",
"234 0 OFFCURVE",
"310 0 CURVE",
"420 0 OFFCURVE",
"493 78 OFFCURVE",
"493 195 CURVE SMOOTH",
"493 313 OFFCURVE",
"407 409 OFFCURVE",
"279 435 CURVE",
"283 422 LINE",
"463 499 OFFCURVE",
"425 760 OFFCURVE",
"259 760 CURVE SMOOTH",
"142 760 OFFCURVE",
"80 676 OFFCURVE",
"80 450 CURVE SMOOTH",
"80 0 LINE",
"170 0 LINE",
"170 517 LINE SMOOTH",
"170 720 OFFCURVE",
"211 738 OFFCURVE",
"269 738 CURVE SMOOTH",
"372 738 OFFCURVE",
"422 527 OFFCURVE",
"282 450 CURVE SMOOTH",
"255 435 OFFCURVE",
"254 416 OFFCURVE",
"281 402 CURVE SMOOTH",
"351 366 OFFCURVE",
"393 299 OFFCURVE",
"393 185 CURVE SMOOTH",
"393 72 OFFCURVE",
"367 20 OFFCURVE",
"310 20 CURVE"
);
}
);
width = 523;
},
{
anchors = (
{
name = bottom;
position = "{130, 0}";
},
{
name = top;
position = "{114, 600}";
}
);
associatedMasterId = "B5727F16-0A35-4648-A4D9-FB286E4462AB";
components = (
{
name = _corner.serif;
transform = "{1, 0, 0, -1, 80, 0}";
}
);
layerId = "72ED2A98-E4A0-4964-A4F4-06B389B8332F";
name = "Regular Dec 16 15, 17:07";
paths = (
{
closed = 1;
nodes = (
"282 20 OFFCURVE",
"314 31 OFFCURVE",
"323 59 CURVE SMOOTH",
"347 139 OFFCURVE",
"228 172 OFFCURVE",
"210 88 CURVE SMOOTH",
"200 42 OFFCURVE",
"234 0 OFFCURVE",
"310 0 CURVE",
"420 0 OFFCURVE",
"493 78 OFFCURVE",
"493 195 CURVE SMOOTH",
"493 313 OFFCURVE",
"407 409 OFFCURVE",
"249 435 CURVE",
"253 422 LINE",
"463 499 OFFCURVE",
"425 760 OFFCURVE",
"259 760 CURVE SMOOTH",
"142 760 OFFCURVE",
"80 676 OFFCURVE",
"80 450 CURVE SMOOTH",
"80 0 LINE",
"170 0 LINE",
"170 517 LINE SMOOTH",
"170 720 OFFCURVE",
"211 738 OFFCURVE",
"269 738 CURVE SMOOTH",
"372 738 OFFCURVE",
"422 527 OFFCURVE",
"252 448 CURVE SMOOTH",
"225 435 OFFCURVE",
"224 416 OFFCURVE",
"252 405 CURVE SMOOTH",
"351 366 OFFCURVE",
"393 299 OFFCURVE",
"393 185 CURVE SMOOTH",
"393 72 OFFCURVE",
"367 20 OFFCURVE",
"310 20 CURVE"
);
}
);
width = 523;
},
{
anchors = (
{
name = bottom;
position = "{130, 0}";
},
{
name = top;
position = "{114, 600}";
}
);
associatedMasterId = "B5727F16-0A35-4648-A4D9-FB286E4462AB";
components = (
{
name = _corner.serif;
transform = "{1, 0, 0, -1, 80, 0}";
}
);
layerId = "C9C29586-7083-45E7-B805-CCE764012BBC";
name = "Regular Dec 16 15, 20:54";
paths = (
{
closed = 1;
nodes = (
"282 20 OFFCURVE",
"314 31 OFFCURVE",
"323 59 CURVE SMOOTH",
"347 139 OFFCURVE",
"228 172 OFFCURVE",
"210 88 CURVE SMOOTH",
"200 42 OFFCURVE",
"234 0 OFFCURVE",
"310 0 CURVE",
"420 0 OFFCURVE",
"493 78 OFFCURVE",
"493 195 CURVE SMOOTH",
"493 313 OFFCURVE",
"407 409 OFFCURVE",
"249 435 CURVE",
"253 422 LINE",
"463 499 OFFCURVE",
"425 760 OFFCURVE",
"259 760 CURVE SMOOTH",
"142 760 OFFCURVE",
"80 676 OFFCURVE",
"80 450 CURVE SMOOTH",
"80 0 LINE",
"170 0 LINE",
"170 517 LINE SMOOTH",
"170 720 OFFCURVE",
"211 738 OFFCURVE",
"259 738 CURVE SMOOTH",
"382 738 OFFCURVE",
"422 525 OFFCURVE",
"256 452 CURVE SMOOTH",
"225 438 OFFCURVE",
"224 416 OFFCURVE",
"252 405 CURVE SMOOTH",
"351 366 OFFCURVE",
"393 299 OFFCURVE",
"393 185 CURVE SMOOTH",
"393 72 OFFCURVE",
"367 20 OFFCURVE",
"310 20 CURVE"
);
}
);
width = 503;
},
{
anchors = (
{
name = bottom;
position = "{130, 0}";
},
{
name = top;
position = "{114, 600}";
}
);
associatedMasterId = "B5727F16-0A35-4648-A4D9-FB286E4462AB";
components = (
{
name = _corner.serif;
transform = "{1, 0, 0, -1, 80, 0}";
}
);
layerId = "5D248873-5A70-4566-BE81-19A9371B5F64";
name = "Regular Dec 19 15, 21:23";
paths = (
{
closed = 1;
nodes = (
"282 10 OFFCURVE",
"314 21 OFFCURVE",
"323 49 CURVE SMOOTH",
"347 129 OFFCURVE",
"228 162 OFFCURVE",
"210 78 CURVE SMOOTH",
"200 32 OFFCURVE",
"234 -10 OFFCURVE",
"310 -10 CURVE SMOOTH",
"420 -10 OFFCURVE",
"493 68 OFFCURVE",
"493 185 CURVE SMOOTH",
"493 406 OFFCURVE",
"268 438 OFFCURVE",
"326 530 CURVE SMOOTH",
"380 615 OFFCURVE",
"390 780 OFFCURVE",
"259 780 CURVE SMOOTH",
"142 780 OFFCURVE",
"80 696 OFFCURVE",
"80 470 CURVE SMOOTH",
"80 0 LINE",
"170 0 LINE",
"170 537 LINE SMOOTH",
"170 740 OFFCURVE",
"211 760 OFFCURVE",
"259 760 CURVE SMOOTH",
"372 760 OFFCURVE",
"351 604 OFFCURVE",
"286 514 CURVE SMOOTH",
"177 363 OFFCURVE",
"393 389 OFFCURVE",
"393 175 CURVE SMOOTH",
"393 62 OFFCURVE",
"367 10 OFFCURVE",
"310 10 CURVE SMOOTH"
);
}
);
width = 503;
},
{
anchors = (
{
name = bottom;
position = "{238, 0}";
},
{
name = top;
position = "{182, 500}";
}
);
associatedMasterId = "B5727F16-0A35-4648-A4D9-FB286E4462AB";
layerId = "2078965F-4B1E-4A53-979F-2CE012781B71";
name = "Regular Dec 16 15, 16:40";
paths = (
{
closed = 1;
nodes = (
"156 69 LINE",
"168 25 OFFCURVE",
"208 -11 OFFCURVE",
"278 -9 CURVE SMOOTH",
"392 -6 OFFCURVE",
"485 73 OFFCURVE",
"485 193 CURVE SMOOTH",
"485 391 OFFCURVE",
"353 487 OFFCURVE",
"163 412 CURVE",
"171 393 LINE",
"296 444 OFFCURVE",
"385 408 OFFCURVE",
"385 193 CURVE SMOOTH",
"385 70 OFFCURVE",
"352 19 OFFCURVE",
"268 14 CURVE SMOOTH",
"221 11 OFFCURVE",
"188 37 OFFCURVE",
"176 79 CURVE"
);
},
{
closed = 1;
nodes = (
"98 -179 OFFCURVE",
"83 -225 OFFCURVE",
"23 -225 CURVE SMOOTH",
"5 -225 OFFCURVE",
"-10 -220 OFFCURVE",
"-27 -213 CURVE",
"-36 -230 LINE",
"-20 -240 OFFCURVE",
"0 -245 OFFCURVE",
"23 -245 CURVE SMOOTH",
"134 -245 OFFCURVE",
"188 -187.566 OFFCURVE",
"188 80 CURVE SMOOTH",
"188 580 LINE SMOOTH",
"188 693 OFFCURVE",
"204 738 OFFCURVE",
"244 738 CURVE SMOOTH",
"283 738 OFFCURVE",
"298 704 OFFCURVE",
"298 620 CURVE SMOOTH",
"298 479 OFFCURVE",
"261 405 OFFCURVE",
"25.859 395.262 CURVE",
"29.205 375.187 LINE",
"238.623 384.883 OFFCURVE",
"399 480 OFFCURVE",
"399 606 CURVE SMOOTH",
"399 713 OFFCURVE",
"357 765 OFFCURVE",
"264 765 CURVE SMOOTH",
"130 765 OFFCURVE",
"93 707 OFFCURVE",
"95 460 CURVE SMOOTH",
"98 0 LINE SMOOTH"
);
}
);
width = 515;
},
{
anchors = (
{
name = bottom;
position = "{130, 0}";
},
{
name = top;
position = "{114, 600}";
}
);
associatedMasterId = "B5727F16-0A35-4648-A4D9-FB286E4462AB";
components = (
{
name = _corner.serif;
transform = "{-1, 0, 0, -1, 170, 0}";
},
{
name = _corner.serif;
transform = "{1, 0, 0, -1, 80, 0}";
}
);
layerId = "B2C1BE4A-93D6-4C19-BEE2-85E43A9EF5A3";
name = "Regular Dec 16 15, 16:52";
paths = (
{
closed = 1;
nodes = (
"152 843 OFFCURVE",
"80 736 OFFCURVE",
"80 510 CURVE SMOOTH",
"80 0 LINE",
"170 0 LINE",
"170 577 LINE SMOOTH",
"170 780 OFFCURVE",
"201 823 OFFCURVE",
"269 823 CURVE SMOOTH",
"394 823 OFFCURVE",
"485 589 OFFCURVE",
"178 463 CURVE",
"184 443 LINE",
"516 570 OFFCURVE",
"435 843 OFFCURVE",
"269 843 CURVE SMOOTH"
);
},
{
closed = 0;
nodes = (
"80 0 LINE"
);
},
{
closed = 1;
nodes = (
"380.81 0 OFFCURVE",
"473 77 OFFCURVE",
"473 215 CURVE SMOOTH",
"473 351 OFFCURVE",
"345 449 OFFCURVE",
"188 463 CURVE",
"184 443 LINE",
"282 435 OFFCURVE",
"363 341 OFFCURVE",
"363 215 CURVE SMOOTH",
"363 87 OFFCURVE",
"369.691 20 OFFCURVE",
"250 20 CURVE",
"250 0 LINE"
);
}
);
width = 463;
},
{
anchors = (
{
name = bottom;
position = "{130, 0}";
},
{
name = top;
position = "{114, 600}";
}
);
associatedMasterId = "B5727F16-0A35-4648-A4D9-FB286E4462AB";
components = (
{
name = _corner.serif;
transform = "{1, 0, 0, -1, 80, 0}";
}
);
layerId = "9D1996F1-A3E8-45F4-8091-2AAEE308EF3E";
name = "Regular Dec 16 15, 17:05";
paths = (
{
closed = 1;
nodes = (
"282 20 OFFCURVE",
"314 31 OFFCURVE",
"323 59 CURVE SMOOTH",
"347 139 OFFCURVE",
"228 172 OFFCURVE",
"210 88 CURVE SMOOTH",
"200 42 OFFCURVE",
"234 0 OFFCURVE",
"310 0 CURVE",
"438 0 OFFCURVE",
"523 82 OFFCURVE",
"523 205 CURVE SMOOTH",
"523 313 OFFCURVE",
"425 405 OFFCURVE",
"279 435 CURVE",
"283 422 LINE",
"463 499 OFFCURVE",
"425 760 OFFCURVE",
"259 760 CURVE SMOOTH",
"142 760 OFFCURVE",
"80 676 OFFCURVE",
"80 450 CURVE SMOOTH",
"80 0 LINE",
"170 0 LINE",
"170 517 LINE SMOOTH",
"170 720 OFFCURVE",
"211 738 OFFCURVE",
"269 738 CURVE SMOOTH",
"372 738 OFFCURVE",
"422 524 OFFCURVE",
"282 447 CURVE SMOOTH",
"262 436 OFFCURVE",
"258 414 OFFCURVE",
"281 402 CURVE SMOOTH",
"351 366 OFFCURVE",
"403 299 OFFCURVE",
"403 185 CURVE SMOOTH",
"403 59 OFFCURVE",
"367 20 OFFCURVE",
"310 20 CURVE"
);
}
);
width = 553;
},
{
anchors = (
{
name = bottom;
position = "{130, 0}";
},
{
name = top;
position = "{114, 600}";
}
);
associatedMasterId = "B5727F16-0A35-4648-A4D9-FB286E4462AB";
components = (
{
name = _corner.serif;
transform = "{1, 0, 0, -1, 80, 0}";
}
);
layerId = "C07DBACB-201D-4036-A9CC-FF1C353F87A5";
name = "Regular Dec 16 15, 17:07";
paths = (
{
closed = 1;
nodes = (
"282 20 OFFCURVE",
"314 31 OFFCURVE",
"323 59 CURVE SMOOTH",
"347 139 OFFCURVE",
"228 172 OFFCURVE",
"210 88 CURVE SMOOTH",
"200 42 OFFCURVE",
"234 0 OFFCURVE",
"310 0 CURVE",
"420 0 OFFCURVE",
"493 78 OFFCURVE",
"493 195 CURVE SMOOTH",
"493 313 OFFCURVE",
"407 409 OFFCURVE",
"279 435 CURVE",
"283 422 LINE",
"463 499 OFFCURVE",
"425 760 OFFCURVE",
"259 760 CURVE SMOOTH",
"142 760 OFFCURVE",
"80 676 OFFCURVE",
"80 450 CURVE SMOOTH",
"80 0 LINE",
"170 0 LINE",
"170 517 LINE SMOOTH",
"170 720 OFFCURVE",
"211 738 OFFCURVE",
"269 738 CURVE SMOOTH",
"372 738 OFFCURVE",
"422 527 OFFCURVE",
"282 450 CURVE SMOOTH",
"255 435 OFFCURVE",
"254 416 OFFCURVE",
"281 402 CURVE SMOOTH",
"351 366 OFFCURVE",
"393 299 OFFCURVE",
"393 185 CURVE SMOOTH",
"393 72 OFFCURVE",
"367 20 OFFCURVE",
"310 20 CURVE"
);
}
);
width = 523;
},
{
anchors = (
{
name = bottom;
position = "{130, 0}";
},
{
name = top;
position = "{114, 600}";
}
);
associatedMasterId = "B5727F16-0A35-4648-A4D9-FB286E4462AB";
components = (
{
name = _corner.serif;
transform = "{1, 0, 0, -1, 80, 0}";
}
);
layerId = "913D606E-DF94-4F4E-9FD4-52D4A22359C9";
name = "Regular Dec 16 15, 17:07";
paths = (
{
closed = 1;
nodes = (
"282 20 OFFCURVE",
"314 31 OFFCURVE",
"323 59 CURVE SMOOTH",
"347 139 OFFCURVE",
"228 172 OFFCURVE",
"210 88 CURVE SMOOTH",
"200 42 OFFCURVE",
"234 0 OFFCURVE",
"310 0 CURVE",
"420 0 OFFCURVE",
"493 78 OFFCURVE",
"493 195 CURVE SMOOTH",
"493 313 OFFCURVE",
"407 409 OFFCURVE",
"249 435 CURVE",
"253 422 LINE",
"463 499 OFFCURVE",
"425 760 OFFCURVE",
"259 760 CURVE SMOOTH",
"142 760 OFFCURVE",
"80 676 OFFCURVE",
"80 450 CURVE SMOOTH",
"80 0 LINE",
"170 0 LINE",
"170 517 LINE SMOOTH",
"170 720 OFFCURVE",
"211 738 OFFCURVE",
"269 738 CURVE SMOOTH",
"372 738 OFFCURVE",
"422 527 OFFCURVE",
"252 448 CURVE SMOOTH",
"225 435 OFFCURVE",
"224 416 OFFCURVE",
"252 405 CURVE SMOOTH",
"351 366 OFFCURVE",
"393 299 OFFCURVE",
"393 185 CURVE SMOOTH",
"393 72 OFFCURVE",
"367 20 OFFCURVE",
"310 20 CURVE"
);
}
);
width = 523;
},
{
anchors = (
{
name = bottom;
position = "{130, 0}";
},
{
name = top;
position = "{114, 600}";
}
);
associatedMasterId = "B5727F16-0A35-4648-A4D9-FB286E4462AB";
components = (
{
name = _corner.serif;
transform = "{1, 0, 0, -1, 80, 0}";
}
);
layerId = "9F1A4284-7B4A-49EE-A2FD-270DA8B40067";
name = "Regular Dec 16 15, 20:54";
paths = (
{
closed = 1;
nodes = (
"282 20 OFFCURVE",
"314 31 OFFCURVE",
"323 59 CURVE SMOOTH",
"347 139 OFFCURVE",
"228 172 OFFCURVE",
"210 88 CURVE SMOOTH",
"200 42 OFFCURVE",
"234 0 OFFCURVE",
"310 0 CURVE",
"420 0 OFFCURVE",
"493 78 OFFCURVE",
"493 195 CURVE SMOOTH",
"493 313 OFFCURVE",
"407 409 OFFCURVE",
"249 435 CURVE",
"253 422 LINE",
"463 499 OFFCURVE",
"425 760 OFFCURVE",
"259 760 CURVE SMOOTH",
"142 760 OFFCURVE",
"80 676 OFFCURVE",
"80 450 CURVE SMOOTH",
"80 0 LINE",
"170 0 LINE",
"170 517 LINE SMOOTH",
"170 720 OFFCURVE",
"211 738 OFFCURVE",
"259 738 CURVE SMOOTH",
"382 738 OFFCURVE",
"422 525 OFFCURVE",
"256 452 CURVE SMOOTH",
"225 438 OFFCURVE",
"224 416 OFFCURVE",
"252 405 CURVE SMOOTH",
"351 366 OFFCURVE",
"393 299 OFFCURVE",
"393 185 CURVE SMOOTH",
"393 72 OFFCURVE",
"367 20 OFFCURVE",
"310 20 CURVE"
);
}
);
width = 503;
},
{
anchors = (
{
name = bottom;
position = "{130, 0}";
},
{
name = top;
position = "{114, 600}";
}
);
associatedMasterId = "B5727F16-0A35-4648-A4D9-FB286E4462AB";
components = (
{
name = _corner.serif;
transform = "{1, 0, 0, -1, 80, 0}";
}
);
layerId = "D68D27D4-E18E-4ADD-8A19-3B4A2A2D08C7";
name = "Regular Dec 19 15, 21:23";
paths = (
{
closed = 1;
nodes = (
"282 10 OFFCURVE",
"314 21 OFFCURVE",
"323 49 CURVE SMOOTH",
"347 129 OFFCURVE",
"228 162 OFFCURVE",
"210 78 CURVE SMOOTH",
"200 32 OFFCURVE",
"234 -10 OFFCURVE",
"310 -10 CURVE SMOOTH",
"420 -10 OFFCURVE",
"493 68 OFFCURVE",
"493 185 CURVE SMOOTH",
"493 406 OFFCURVE",
"268 438 OFFCURVE",
"326 530 CURVE SMOOTH",
"380 615 OFFCURVE",
"390 780 OFFCURVE",
"259 780 CURVE SMOOTH",
"142 780 OFFCURVE",
"80 696 OFFCURVE",
"80 470 CURVE SMOOTH",
"80 0 LINE",
"170 0 LINE",
"170 537 LINE SMOOTH",
"170 740 OFFCURVE",
"211 760 OFFCURVE",
"259 760 CURVE SMOOTH",
"372 760 OFFCURVE",
"351 604 OFFCURVE",
"286 514 CURVE SMOOTH",
"177 363 OFFCURVE",
"393 389 OFFCURVE",
"393 175 CURVE SMOOTH",
"393 62 OFFCURVE",
"367 10 OFFCURVE",
"310 10 CURVE SMOOTH"
);
}
);
width = 503;
}
);
leftMetricsKey = "=I-10";
unicode = 1E9E;
},
{
glyphname = T;
lastChange = "2017-02-11 06:59:28 +0000";
layers = (
{
anchors = (
{
name = bottom;
position = "{269, 0}";
},
{
name = center;
position = "{269, 375}";
},
{
name = top;
position = "{269, 750}";
}
);
background = {
components = (
{
name = _serifVertical;
transform = "{1, 0, 0, 1, 518, 730}";
},
{
name = _serifVertical;
transform = "{-1, 0, 0, 1, 20, 730}";
}
);
};
components = (
{
name = I;
transform = "{1, 0, 0, 1, 99, 0}";
}
);
hints = (
{
origin = "{0, 0}";
type = Corner;
name = _corner.serifVertical;
options = 1;
},
{
origin = "{0, 1}";
scale = "{-1, 1}";
type = Corner;
name = _corner.serifVertical;
options = 1;
}
);
layerId = "B5727F16-0A35-4648-A4D9-FB286E4462AB";
paths = (
{
closed = 1;
nodes = (
"47 730 LINE",
"490 730 LINE",
"490 750 LINE",
"47 750 LINE"
);
}
);
width = 538;
}
);
unicode = 0054;
},
{
glyphname = U;
lastChange = "2017-02-11 08:37:56 +0000";
layers = (
{
anchors = (
{
name = bottom;
position = "{314, 0}";
},
{
name = ogonek;
position = "{315, -12}";
},
{
name = top;
position = "{310, 750}";
},
{
name = topright;
position = "{470, 650}";
}
);
hints = (
{
origin = "{0, 16}";
type = Corner;
name = _corner.serif;
options = 1;
},
{
origin = "{0, 1}";
scale = "{0.9, 1}";
type = Corner;
name = _corner.serif;
options = 1;
},
{
origin = "{0, 15}";
scale = "{-0.9, 1}";
type = Corner;
name = _corner.serif;
options = 1;
},
{
origin = "{0, 0}";
scale = "{-0.9, 1}";
type = Corner;
name = _corner.serif;
options = 1;
}
);
layerId = "B5727F16-0A35-4648-A4D9-FB286E4462AB";
paths = (
{
closed = 1;
nodes = (
"470 750 LINE",
"450 750 LINE",
"450 230 LINE SMOOTH",
"450 123 OFFCURVE",
"443 79 OFFCURVE",
"424 51 CURVE SMOOTH",
"405 23 OFFCURVE",
"375 12 OFFCURVE",
"330 12 CURVE SMOOTH",
"291 12 OFFCURVE",
"267 22 OFFCURVE",
"251 49 CURVE SMOOTH",
"236 76 OFFCURVE",
"230 120 OFFCURVE",
"230 230 CURVE SMOOTH",
"230 750 LINE",
"120 750 LINE",
"120 230 LINE SMOOTH",
"120 113 OFFCURVE",
"135 65 OFFCURVE",
"164 34 CURVE SMOOTH",
"194 4 OFFCURVE",
"240 -12 OFFCURVE",
"315 -12 CURVE SMOOTH",
"373 -12 OFFCURVE",
"412 1 OFFCURVE",
"436 32 CURVE SMOOTH",
"460 64 OFFCURVE",
"470 114 OFFCURVE",
"470 230 CURVE SMOOTH"
);
}
);
width = 562;
}
);
leftMetricsKey = I;
rightMetricsKey = "=I-20";
unicode = 0055;
},
{
glyphname = V;
lastChange = "2017-02-09 03:11:34 +0000";
layers = (
{
anchors = (
{
name = bottom;
position = "{236, 0}";
},
{
name = top;
position = "{236, 750}";
}
);
associatedMasterId = "B5727F16-0A35-4648-A4D9-FB286E4462AB";
components = (
{
name = _corner.serif;
transform = "{1, 0, 0, 1, 50, 750}";
},
{
name = _corner.serif;
transform = "{1, 0, 0, 1, 410, 750}";
},
{
name = _corner.serif;
transform = "{-1, 0, 0, 1, 141, 750}";
},
{
name = _corner.serif;
transform = "{-1, 0, 0, 1, 421, 750}";
}
);
layerId = "212FA8CB-6C7B-4BC4-8E78-3929D0BF454C";
name = "Regular Dec 23 15, 18:28";
paths = (
{
closed = 1;
nodes = (
"284 152 LINE",
"282 213 OFFCURVE",
"262 296 OFFCURVE",
"210 493 CURVE SMOOTH",
"141 750 LINE",
"40 750 LINE",
"240 -12 LINE",
"271 -12 LINE",
"431 750 LINE",
"410 750 LINE"
);
}
);
width = 471;
},
{
anchors = (
{
name = bottom;
position = "{236, 0}";
},
{
name = top;
position = "{236, 750}";
}
);
associatedMasterId = "B5727F16-0A35-4648-A4D9-FB286E4462AB";
components = (
{
name = _corner.serif;
transform = "{1, 0, 0, 1, 50, 750}";
},
{
name = _corner.serif;
transform = "{1, 0, 0, 1, 410, 750}";
},
{
name = _corner.serif;
transform = "{-1, 0, 0, 1, 141, 750}";
},
{
name = _corner.serif;
transform = "{-1, 0, 0, 1, 421, 750}";
}
);
layerId = "6FE60B7C-E6CE-4BB9-BAC0-2BDC1F5BE4AD";
name = "Regular Dec 23 15, 18:28";
paths = (
{
closed = 1;
nodes = (
"284 152 LINE",
"282 213 OFFCURVE",
"262 296 OFFCURVE",
"210 493 CURVE SMOOTH",
"141 750 LINE",
"40 750 LINE",
"240 -12 LINE",
"271 -12 LINE",
"431 750 LINE",
"410 750 LINE"
);
}
);
width = 471;
},
{
anchors = (
{
name = bottom;
position = "{236, 0}";
},
{
name = top;
position = "{236, 750}";
}
);
associatedMasterId = "B5727F16-0A35-4648-A4D9-FB286E4462AB";
components = (
{
name = _corner.serif;
transform = "{1, 0, 0, 1, 50, 750}";
},
{
name = _corner.serif;
transform = "{1, 0, 0, 1, 410, 750}";
},
{
name = _corner.serif;
transform = "{-1, 0, 0, 1, 141, 750}";
},
{
name = _corner.serif;
transform = "{-1, 0, 0, 1, 421, 750}";
}
);
layerId = "D8375C46-461D-49DE-AFC8-7727E0D0F327";
name = "Regular Dec 23 15, 18:28";
paths = (
{
closed = 1;
nodes = (
"284 152 LINE",
"282 213 OFFCURVE",
"262 296 OFFCURVE",
"210 493 CURVE SMOOTH",
"141 750 LINE",
"40 750 LINE",
"240 -12 LINE",
"271 -12 LINE",
"431 750 LINE",
"410 750 LINE"
);
}
);
width = 471;
},
{
anchors = (
{
name = bottom;
position = "{236, 0}";
},
{
name = top;
position = "{236, 750}";
}
);
associatedMasterId = "B5727F16-0A35-4648-A4D9-FB286E4462AB";
components = (
{
name = _corner.serif;
transform = "{1, 0, 0, 1, 50, 750}";
},
{
name = _corner.serif;
transform = "{1, 0, 0, 1, 410, 750}";
},
{
name = _corner.serif;
transform = "{-1, 0, 0, 1, 141, 750}";
},
{
name = _corner.serif;
transform = "{-1, 0, 0, 1, 421, 750}";
}
);
layerId = "0998B162-F16A-49E1-AD53-E421310B37B2";
name = "Regular Dec 23 15, 18:28";
paths = (
{
closed = 1;
nodes = (
"284 152 LINE",
"282 213 OFFCURVE",
"262 296 OFFCURVE",
"210 493 CURVE SMOOTH",
"141 750 LINE",
"40 750 LINE",
"240 -12 LINE",
"271 -12 LINE",
"431 750 LINE",
"410 750 LINE"
);
}
);
width = 471;
},
{
anchors = (
{
name = bottom;
position = "{271, 0}";
},
{
name = top;
position = "{271, 750}";
}
);
hints = (
{
origin = "{0, 6}";
type = Corner;
name = _corner.serif;
options = 1;
},
{
origin = "{0, 10}";
type = Corner;
name = _corner.serif;
options = 1;
},
{
origin = "{0, 9}";
scale = "{-1, 1}";
type = Corner;
name = _corner.serif;
},
{
origin = "{0, 5}";
scale = "{-1, 1}";
type = Corner;
name = _corner.serif;
}
);
layerId = "B5727F16-0A35-4648-A4D9-FB286E4462AB";
paths = (
{
closed = 1;
nodes = (
"309 108 LINE",
"319 127 LINE",
"305 200 OFFCURVE",
"286 279 OFFCURVE",
"230 493 CURVE SMOOTH",
"161 750 LINE",
"60 750 LINE",
"264 -11 LINE",
"301 -11 LINE",
"461 750 LINE",
"440 750 LINE"
);
}
);
width = 511;
},
{
anchors = (
{
name = bottom;
position = "{236, 0}";
},
{
name = top;
position = "{236, 750}";
}
);
associatedMasterId = "B5727F16-0A35-4648-A4D9-FB286E4462AB";
components = (
{
name = _corner.serif;
transform = "{1, 0, 0, 1, 50, 750}";
},
{
name = _corner.serif;
transform = "{1, 0, 0, 1, 410, 750}";
},
{
name = _corner.serif;
transform = "{-1, 0, 0, 1, 141, 750}";
},
{
name = _corner.serif;
transform = "{-1, 0, 0, 1, 421, 750}";
}
);
layerId = "EE8B7005-97BC-4930-8CF6-123D06AA81A2";
name = "Regular Dec 23 15, 18:28";
paths = (
{
closed = 1;
nodes = (
"284 152 LINE",
"282 213 OFFCURVE",
"262 296 OFFCURVE",
"210 493 CURVE SMOOTH",
"141 750 LINE",
"40 750 LINE",
"240 -12 LINE",
"271 -12 LINE",
"431 750 LINE",
"410 750 LINE"
);
}
);
width = 471;
},
{
anchors = (
{
name = bottom;
position = "{236, 0}";
},
{
name = top;
position = "{236, 750}";
}
);
associatedMasterId = "B5727F16-0A35-4648-A4D9-FB286E4462AB";
components = (
{
name = _corner.serif;
transform = "{1, 0, 0, 1, 50, 750}";
},
{
name = _corner.serif;
transform = "{1, 0, 0, 1, 410, 750}";
},
{
name = _corner.serif;
transform = "{-1, 0, 0, 1, 141, 750}";
},
{
name = _corner.serif;
transform = "{-1, 0, 0, 1, 421, 750}";
}
);
layerId = "652A2D9F-99F1-4F63-9D6F-7D391529A484";
name = "Regular Dec 23 15, 18:28";
paths = (
{
closed = 1;
nodes = (
"284 152 LINE",
"282 213 OFFCURVE",
"262 296 OFFCURVE",
"210 493 CURVE SMOOTH",
"141 750 LINE",
"40 750 LINE",
"240 -12 LINE",
"271 -12 LINE",
"431 750 LINE",
"410 750 LINE"
);
}
);
width = 471;
}
);
unicode = 0056;
},
{
glyphname = W;
lastChange = "2017-02-09 03:12:25 +0000";
layers = (
{
anchors = (
{
name = bottom;
position = "{396, 0}";
},
{
name = top;
position = "{396, 750}";
}
);
components = (
{
alignment = -1;
name = V;
transform = "{1, 0, 0, 1, 225, 0}";
}
);
hints = (
{
origin = "{0, 6}";
type = Corner;
name = _corner.serif;
options = 1;
}
);
layerId = "B5727F16-0A35-4648-A4D9-FB286E4462AB";
paths = (
{
closed = 1;
nodes = (
"304 108 LINE",
"314 127 LINE",
"300 200 OFFCURVE",
"281 279 OFFCURVE",
"225 493 CURVE SMOOTH",
"156 750 LINE",
"55 750 LINE",
"259 -11 LINE",
"296 -11 LINE",
"408 513 LINE",
"387 513 LINE"
);
}
);
width = 734;
}
);
leftMetricsKey = V;
rightMetricsKey = V;
unicode = 0057;
},
{
glyphname = X;
lastChange = "2017-02-09 02:08:50 +0000";
layers = (
{
anchors = (
{
name = bottom;
position = "{275, 0}";
},
{
name = top;
position = "{275, 750}";
}
);
hints = (
{
origin = "{0, 3}";
type = Corner;
name = _corner.serif;
options = 1;
},
{
origin = "{1, 2}";
type = Corner;
name = _corner.serif;
options = 1;
},
{
origin = "{2, 2}";
type = Corner;
name = _corner.serif;
options = 1;
},
{
origin = "{0, 1}";
type = Corner;
name = _corner.serif;
options = 1;
},
{
origin = "{0, 0}";
scale = "{-1, 1}";
type = Corner;
name = _corner.serif;
},
{
origin = "{1, 1}";
scale = "{-1, 1}";
type = Corner;
name = _corner.serif;
},
{
origin = "{2, 1}";
scale = "{-1, 1}";
type = Corner;
name = _corner.serif;
},
{
origin = "{0, 2}";
scale = "{-1, 1}";
type = Corner;
name = _corner.serif;
}
);
layerId = "B5727F16-0A35-4648-A4D9-FB286E4462AB";
paths = (
{
closed = 1;
nodes = (
"360 0 LINE",
"466 0 LINE",
"174 750 LINE",
"70 750 LINE"
);
},
{
closed = 1;
nodes = (
"244 404 LINE",
"76 0 LINE",
"97 0 LINE",
"254 378 LINE"
);
},
{
closed = 1;
nodes = (
"284 348 LINE",
"448 750 LINE",
"426 750 LINE",
"274 374 LINE"
);
}
);
width = 536;
}
);
unicode = 0058;
},
{
glyphname = Y;
lastChange = "2017-02-09 02:09:28 +0000";
layers = (
{
anchors = (
{
name = bottom;
position = "{268, 0}";
},
{
name = top;
position = "{273, 750}";
},
{
name = topleft;
position = "{50, 750}";
}
);
hints = (
{
origin = "{0, 2}";
scale = "{-1, 1}";
type = Corner;
name = _corner.serif;
},
{
origin = "{1, 1}";
scale = "{-1, 1}";
type = Corner;
name = _corner.serif;
},
{
origin = "{2, 0}";
scale = "{-1, 1}";
type = Corner;
name = _corner.serif;
},
{
origin = "{2, 1}";
type = Corner;
name = _corner.serif;
},
{
origin = "{0, 3}";
type = Corner;
name = _corner.serif;
options = 1;
},
{
origin = "{1, 2}";
type = Corner;
name = _corner.serif;
options = 1;
}
);
layerId = "B5727F16-0A35-4648-A4D9-FB286E4462AB";
paths = (
{
closed = 1;
nodes = (
"220 349 LINE",
"313 380 LINE",
"157 750 LINE",
"50 750 LINE"
);
},
{
closed = 1;
nodes = (
"301 326 LINE",
"476 750 LINE",
"454 750 LINE",
"285 335 LINE"
);
},
{
closed = 1;
nodes = (
"218 0 LINE",
"318 0 LINE",
"318 380 LINE",
"218 380 LINE"
);
}
);
width = 526;
}
);
unicode = 0059;
},
{
glyphname = Z;
lastChange = "2017-02-09 01:57:11 +0000";
layers = (
{
anchors = (
{
name = bottom;
position = "{231, 0}";
},
{
name = top;
position = "{231, 750}";
}
);
background = {
components = (
{
name = z;
}
);
};
hints = (
{
origin = "{2, 2}";
type = Corner;
name = _corner.serifVerticalBottom;
options = 1;
},
{
origin = "{0, 0}";
type = Corner;
name = _corner.serifVertical;
options = 1;
}
);
layerId = "B5727F16-0A35-4648-A4D9-FB286E4462AB";
paths = (
{
closed = 1;
nodes = (
"54 730 LINE",
"403 730 LINE",
"403 750 LINE",
"54 750 LINE"
);
},
{
closed = 1;
nodes = (
"431 750 LINE",
"324 750 LINE",
"20 0 LINE",
"126 0 LINE"
);
},
{
closed = 1;
nodes = (
"44 0 LINE",
"405 0 LINE",
"405 20 LINE",
"44 20 LINE"
);
}
);
width = 441;
}
);
unicode = 005A;
},
